<svg width="84" height="24" viewBox="0 0 84 24" fill="none" xmlns="http://www.w3.org/2000/svg">
<path d="M6.30566 20.8408C6.30557 22.9468 5.2633 23.9999 3.17969 24C2.1645 24 1.38918 23.7501 0.828125 23.2236C0.267129 22.7103 6.05128e-05 21.9334 0 20.8936V20.2744H1.92383V21.1035C1.92383 21.222 1.95018 21.3802 1.99023 21.5645C2.03031 21.7488 2.09758 21.8942 2.17773 21.9863C2.25782 22.0783 2.36443 22.1575 2.52441 22.2363C2.68466 22.3153 2.87197 22.3408 3.1123 22.3408C3.35276 22.3408 3.55356 22.3016 3.71387 22.2227C3.87404 22.1437 3.98043 22.0251 4.06055 21.8672C4.12734 21.7092 4.16762 21.5379 4.19434 21.3799C4.20768 21.222 4.22168 21.0243 4.22168 20.7744V14.4033H6.30566V20.8408ZM12.2988 14.1797C13.6881 14.1797 14.8101 14.6405 15.665 15.5488C16.5198 16.4571 16.9609 17.6415 16.9609 19.1025C16.9609 20.577 16.52 21.762 15.665 22.6572C14.8101 23.5524 13.6744 24 12.2852 24C10.8693 24 9.73381 23.5524 8.87891 22.6572C8.01062 21.7621 7.58301 20.5769 7.58301 19.1025C7.58307 17.6283 8.01042 16.4303 8.86523 15.5352C9.72018 14.64 10.8695 14.1797 12.2988 14.1797ZM20.4248 20.0107C20.4248 20.7742 20.5724 21.3404 20.8662 21.709C21.1601 22.0776 21.694 22.2627 22.4688 22.2627C23.2168 22.2627 23.725 22.0776 23.9922 21.709C24.2591 21.3404 24.4062 20.774 24.4062 20.0107V14.4033H26.4902V20.0371C26.4902 21.3799 26.1555 22.3808 25.501 23.0127C24.8464 23.6444 23.8314 23.9609 22.4424 23.9609C21.0264 23.9609 19.998 23.6441 19.3301 22.999C18.6622 22.354 18.3408 21.3535 18.3408 20.0107V14.4033H20.4248V20.0107ZM33.1055 14.416C34.0403 14.4161 34.815 14.6268 35.416 15.0742C36.0037 15.5086 36.3114 16.1802 36.3115 17.0752C36.3115 17.6149 36.1773 18.089 35.9102 18.4971C35.643 18.9051 35.2692 19.1946 34.8018 19.3789C35.6166 19.5369 36.0839 20.2744 36.2041 21.5645C36.2041 21.6039 36.2047 21.7357 36.2314 21.9727C36.2448 22.1965 36.2575 22.3811 36.2842 22.5127C36.2932 22.6016 36.3091 22.7083 36.3262 22.8291C36.3344 22.8871 36.3429 22.9487 36.3516 23.0127C36.3783 23.197 36.4183 23.3684 36.4717 23.5C36.525 23.6313 36.5783 23.7233 36.6582 23.7891H34.4941C34.4141 23.6444 34.3607 23.4603 34.334 23.25C34.2939 23.0394 34.267 22.7622 34.2402 22.4199C34.2136 22.0787 34.2003 21.8946 34.2002 21.8545C34.1201 21.1966 33.9603 20.7487 33.6934 20.4854C33.4262 20.2352 32.9716 20.1035 32.3037 20.1035H30.4463V23.7764H28.376V14.4033L33.1055 14.416ZM43.9746 20.6826V14.4033H45.9785V23.7764H43.8945L39.9541 17.4834V23.7764H37.9365V14.4033H40.0605L43.9746 20.6826ZM54.9717 16.0879H49.9092V18.1289H54.5469L53.4697 19.748H49.9092V22.0518H51.9375L50.791 23.7764H47.8379V14.4033H54.9717V16.0879ZM61.0693 20.1689V23.7764H59.0117V20.1299L56.877 16.6885L58.3164 15.2158L60.0537 18.1553L62.2979 14.4033H64.6094L61.0693 20.1689ZM12.2725 15.8643C11.4844 15.8643 10.8562 16.1671 10.3887 16.7461C9.92118 17.3253 9.68072 18.1022 9.68066 19.0762C9.68066 20.0767 9.92081 20.8671 10.375 21.4463C10.8425 22.0123 11.484 22.3023 12.2988 22.3154C13.0869 22.3154 13.7148 22.0254 14.1689 21.4463C14.6231 20.8671 14.8506 20.0767 14.8506 19.0762C14.8505 18.089 14.6094 17.3126 14.1553 16.7334C13.6878 16.1543 13.0604 15.8644 12.2725 15.8643ZM30.4463 18.6289H32.4238C32.9982 18.6289 33.4528 18.5368 33.7734 18.3525C34.0938 18.1683 34.2675 17.826 34.2676 17.2998C34.2676 16.7996 34.1067 16.47 33.7861 16.2988C33.4656 16.1146 33.0517 16.0352 32.5176 16.0352H30.4463V18.6289ZM71.4775 0C72.5461 6.2414e-06 73.4145 0.24987 74.0957 0.75C74.7636 1.25024 75.111 1.98781 75.1377 2.98828L73.1475 3.00195C73.0673 2.06728 72.4659 1.60645 71.3438 1.60645C70.8629 1.60647 70.4888 1.69853 70.2217 1.88281C69.9547 2.06711 69.8076 2.33067 69.8076 2.67285C69.8077 2.77801 69.8346 2.88358 69.8613 2.97559C69.9014 3.05441 69.9682 3.13309 70.0615 3.21191C70.1684 3.2909 70.262 3.34383 70.3555 3.39648C70.4623 3.44911 70.609 3.50207 70.7959 3.55469C70.9829 3.60735 71.1571 3.65926 71.3174 3.71191C71.4777 3.75141 71.6912 3.80481 71.9717 3.88379C72.2655 3.9496 72.506 4.01524 72.7197 4.08105C73.6548 4.34434 74.3632 4.67343 74.8174 5.06836C75.2715 5.46328 75.498 6.02949 75.498 6.7666C75.498 7.29314 75.3911 7.7672 75.1641 8.16211C74.9504 8.55681 74.6434 8.87249 74.2695 9.10938C73.8956 9.34629 73.4814 9.51773 73.0273 9.62305C72.5732 9.72836 72.0916 9.79395 71.584 9.79395C70.3017 9.79388 69.2867 9.49128 68.5654 8.91211C67.8441 8.33288 67.4704 7.50333 67.457 6.4502H69.5273C69.5674 7.62179 70.2885 8.2148 71.6777 8.21484C72.2254 8.21484 72.653 8.09587 72.9736 7.87207C73.2942 7.64828 73.4414 7.3456 73.4414 6.96387C73.4414 6.63481 73.3075 6.39772 73.0137 6.25293C72.7197 6.09497 72.1185 5.89801 71.1836 5.63477C71.1693 5.63124 71.1559 5.6273 71.1436 5.62402C71.1097 5.61509 71.083 5.60842 71.0635 5.6084C71.0368 5.59523 71.0095 5.58152 70.9561 5.56836C70.9161 5.55525 70.8759 5.54199 70.8359 5.54199L70.3008 5.38477V5.38379L70.168 5.34473C70.0477 5.30522 69.847 5.23952 69.5801 5.14746C69.3132 5.04227 69.1133 4.9627 68.9932 4.88379C68.95 4.85828 68.9052 4.82875 68.8584 4.7959L68.71 4.68848H68.709C68.6518 4.6465 68.5913 4.60109 68.5254 4.55469C68.3384 4.40989 68.2178 4.26538 68.1377 4.10742C68.0575 3.94945 67.9779 3.76481 67.9111 3.54102C67.8444 3.3173 67.8174 3.08055 67.8174 2.81738C67.8174 1.9617 68.1514 1.27708 68.8193 0.763672C69.4873 0.263452 70.3688 0 71.4775 0ZM40.7754 0.210938C41.7105 0.210938 42.4858 0.421551 43.0869 0.869141C43.6746 1.30357 43.9814 1.97501 43.9814 2.87012C43.9814 3.40974 43.8482 3.88397 43.5811 4.29199C43.3139 4.69987 42.94 4.98957 42.4727 5.17383C43.2874 5.33192 43.7548 6.06941 43.875 7.35938C43.875 7.39942 43.8748 7.53086 43.9014 7.7666C43.9147 7.99033 43.9284 8.175 43.9551 8.30664L43.9961 8.62305C44.0043 8.68096 44.0138 8.74276 44.0225 8.80664C44.0492 8.99094 44.0891 9.1623 44.1426 9.29395C44.196 9.42558 44.249 9.51817 44.3291 9.58398H42.165C42.0849 9.43918 42.0316 9.25457 42.0049 9.04395C41.9648 8.83337 41.9378 8.55701 41.9111 8.21484C41.8844 7.87257 41.8711 7.68793 41.8711 7.64844C41.7909 6.99027 41.6304 6.54257 41.3633 6.2793C41.0961 6.02936 40.6422 5.89749 39.9746 5.89746H38.1172V9.57031H36.0469V0.197266L40.7754 0.210938ZM59.3262 0.210938C60.2613 0.210938 61.0366 0.421551 61.6377 0.869141C62.2253 1.30357 62.5322 1.97505 62.5322 2.87012C62.5322 3.40974 62.399 3.88397 62.1318 4.29199C61.8647 4.69987 61.4908 4.98956 61.0234 5.17383C61.8381 5.33197 62.3056 6.06948 62.4258 7.35938C62.4258 7.39942 62.4256 7.53085 62.4521 7.7666C62.4655 7.99035 62.4792 8.175 62.5059 8.30664C62.5149 8.39568 62.5297 8.50292 62.5469 8.62402C62.555 8.68185 62.5636 8.74288 62.5723 8.80664C62.599 8.99094 62.6399 9.1623 62.6934 9.29395C62.7008 9.31229 62.7083 9.32983 62.7158 9.34668L62.7031 9.35938L62.8154 9.58398H60.7158C60.6357 9.43918 60.5824 9.25457 60.5557 9.04395C60.5156 8.83337 60.4886 8.557 60.4619 8.21484C60.4352 7.87257 60.4219 7.68793 60.4219 7.64844C60.3417 6.99026 60.1812 6.54257 59.9141 6.2793C59.6469 6.02933 59.193 5.89751 58.5254 5.89746H56.668V9.57031H54.5977V0.197266L59.3262 0.210938ZM7.70801 1.88281H2.64453V3.92285H7.29395V5.54199H2.64453V7.8457H7.80176V9.57031H0.574219V0.197266H7.70801V1.88281ZM15.2744 6.47656V0.197266H17.2783V9.57031H15.1943L11.2539 3.27832V9.57031H9.23633V0.197266H11.3604L15.2744 6.47656ZM26.2051 1.94824H23.3457V9.57031H21.249V1.94824H18.3896V0.197266H26.2051V1.94824ZM34.4385 1.88281H29.375V3.92285H34.0244V5.54199H29.375V7.8457H34.5312V9.57031H27.3047V0.197266H34.4385V1.88281ZM49.7217 0.197266C50.7903 0.197266 51.6319 0.460765 52.2598 0.960938C52.8876 1.46115 53.208 2.21152 53.208 3.21191C53.208 4.19924 52.8879 4.94995 52.2734 5.4502C51.6457 5.95038 50.8308 6.20013 49.8291 6.2002H47.6914V9.57031H45.6211V0.197266H49.7217ZM83.9062 1.88281H78.8438V3.92285H83.4922V5.54199H78.8438V7.8457H84V9.57031H76.7734V0.197266H83.9062V1.88281ZM66.2549 5.72656L64.1582 7.87109V0.197266H66.2549V5.72656ZM47.6914 4.58105H49.5479C50.6299 4.58105 51.1777 4.13346 51.1777 3.23828C51.1777 2.34321 50.6301 1.88281 49.5615 1.88281H47.6914V4.58105ZM38.1172 4.42285H40.0947C40.669 4.42284 41.1228 4.33069 41.4434 4.14648C41.7639 3.9622 41.9384 3.62026 41.9385 3.09375C41.9385 2.5935 41.7776 2.26391 41.457 2.09277C41.1365 1.90862 40.7225 1.83012 40.1885 1.83008H38.1172V4.42285ZM56.668 4.42285H58.6455C59.2197 4.42282 59.6736 4.33072 59.9941 4.14648C60.3147 3.9622 60.4883 3.62026 60.4883 3.09375C60.4883 2.5935 60.3284 2.26391 60.0078 2.09277C59.6872 1.90854 59.2725 1.83008 58.7383 1.83008H56.668V4.42285Z" fill="#0030E3"/>
</svg>
