<svg width="49" height="49" viewBox="0 0 49 49" fill="none" xmlns="http://www.w3.org/2000/svg">
<mask id="mask0_2135_20931" style="mask-type:alpha" maskUnits="userSpaceOnUse" x="0" y="0" width="49" height="49">
<rect x="0.5" y="0.5" width="48" height="48" fill="#D9D9D9"/>
</mask>
<g mask="url(#mask0_2135_20931)">
<path d="M30.5 40.5C26.0333 40.5 22.25 38.95 19.15 35.85C16.05 32.75 14.5 28.9667 14.5 24.5C14.5 20.0667 16.05 16.2917 19.15 13.175C22.25 10.0583 26.0333 8.5 30.5 8.5C34.9333 8.5 38.7083 10.0583 41.825 13.175C44.9417 16.2917 46.5 20.0667 46.5 24.5C46.5 28.9667 44.9417 32.75 41.825 35.85C38.7083 38.95 34.9333 40.5 30.5 40.5ZM35.05 31.95L37.9 29.1L32.5 23.7V16.5H28.5V25.35L35.05 31.95ZM4.5 18.5V14.5H12.5V18.5H4.5ZM2.5 26.5V22.5H12.5V26.5H2.5ZM4.5 34.5V30.5H12.5V34.5H4.5Z" fill="#012EE3"/>
</g>
</svg>
