<svg width="36" height="36" viewBox="0 0 36 36" fill="none" xmlns="http://www.w3.org/2000/svg">
<path d="M2.26367 29.5377V23.9127C2.26367 23.1877 2.5093 22.5738 3.00055 22.0711C3.4918 21.5681 4.08742 21.3069 4.78742 21.2877H9.41155C9.86355 21.2877 10.2929 21.3983 10.6997 21.6196C11.1062 21.8408 11.4374 22.1494 11.6934 22.5454C12.4374 23.5684 13.3599 24.3646 14.4609 24.9338C15.5619 25.5031 16.7413 25.7877 17.999 25.7877C19.272 25.7877 20.4614 25.5031 21.5672 24.9338C22.6732 24.3646 23.5905 23.5684 24.3193 22.5454C24.6058 22.1494 24.9485 21.8408 25.3475 21.6196C25.7465 21.3983 26.1595 21.2877 26.5865 21.2877H31.2107C31.9259 21.3069 32.5278 21.5681 33.0163 22.0711C33.5048 22.5738 33.749 23.1877 33.749 23.9127V29.5377H23.999V26.0097C23.1433 26.6637 22.2068 27.1652 21.1895 27.5142C20.172 27.8632 19.1085 28.0377 17.999 28.0377C16.9145 28.0377 15.8622 27.8617 14.8419 27.5097C13.8217 27.1579 12.8788 26.6551 12.0133 26.0011V29.5377H2.26367ZM17.999 23.7109C17.097 23.7109 16.2427 23.5018 15.4359 23.0836C14.6294 22.6653 13.953 22.0878 13.4068 21.3511C13.0203 20.7936 12.5492 20.3383 11.9934 19.9853C11.4377 19.6326 10.8328 19.4177 10.1788 19.3407C10.8153 18.5599 11.9273 17.9537 13.5148 17.5219C15.1023 17.0902 16.597 16.8743 17.999 16.8743C19.401 16.8743 20.8958 17.0902 22.4833 17.5219C24.0708 17.9537 25.1875 18.5599 25.8335 19.3407C25.195 19.4177 24.5942 19.6326 24.0309 19.9853C23.4674 20.3383 22.9924 20.7936 22.6059 21.3511C22.0847 22.1128 21.4183 22.6966 20.6068 23.1023C19.7953 23.5081 18.926 23.7109 17.999 23.7109ZM6.4318 19.2109C5.2973 19.2109 4.32617 18.8071 3.51842 17.9993C2.71067 17.1916 2.3068 16.2204 2.3068 15.0859C2.3068 13.9262 2.71067 12.9488 3.51842 12.1538C4.32617 11.3586 5.2973 10.9609 6.4318 10.9609C7.5913 10.9609 8.56867 11.3586 9.36392 12.1538C10.1592 12.9488 10.5568 13.9262 10.5568 15.0859C10.5568 16.2204 10.1592 17.1916 9.36392 17.9993C8.56867 18.8071 7.5913 19.2109 6.4318 19.2109ZM29.5663 19.2109C28.4318 19.2109 27.4607 18.8071 26.6529 17.9993C25.8452 17.1916 25.4413 16.2204 25.4413 15.0859C25.4413 13.9262 25.8452 12.9488 26.6529 12.1538C27.4607 11.3586 28.4318 10.9609 29.5663 10.9609C30.7258 10.9609 31.7032 11.3586 32.4984 12.1538C33.2937 12.9488 33.6913 13.9262 33.6913 15.0859C33.6913 16.2204 33.2937 17.1916 32.4984 17.9993C31.7032 18.8071 30.7258 19.2109 29.5663 19.2109ZM17.999 14.7109C16.8645 14.7109 15.8934 14.3071 15.0857 13.4993C14.2779 12.6916 13.874 11.7204 13.874 10.5859C13.874 9.42619 14.2779 8.44881 15.0857 7.65381C15.8934 6.85856 16.8645 6.46094 17.999 6.46094C19.1585 6.46094 20.1359 6.85856 20.9312 7.65381C21.7264 8.44881 22.124 9.42619 22.124 10.5859C22.124 11.7204 21.7264 12.6916 20.9312 13.4993C20.1359 14.3071 19.1585 14.7109 17.999 14.7109Z" fill="#0030E3"/>
</svg>
