<svg width="21" height="10" viewBox="0 0 21 10" fill="none" xmlns="http://www.w3.org/2000/svg">
<path d="M5.2625 9.5C4.00417 9.5 2.9375 9.0641 2.0625 8.19229C1.1875 7.32049 0.75 6.25799 0.75 5.00479C0.75 3.7516 1.1875 2.6875 2.0625 1.8125C2.93764 0.9375 4.00417 0.5 5.26208 0.5C5.76792 0.5 6.25347 0.586806 6.71875 0.760417C7.18403 0.934028 7.60417 1.1875 7.97917 1.52083L9.625 3L8.5 4L7 2.64583C6.76389 2.4375 6.50076 2.27778 6.21062 2.16667C5.92049 2.05556 5.61583 2 5.29667 2C4.45514 2 3.73701 2.29229 3.14229 2.87688C2.54743 3.46146 2.25 4.16979 2.25 5.00187C2.25 5.83396 2.54743 6.54514 3.14229 7.13542C3.73701 7.72569 4.45514 8.02083 5.29667 8.02083C5.61583 8.02083 5.92049 7.96528 6.21062 7.85417C6.50076 7.74306 6.76389 7.58333 7 7.375L13.5208 1.52083C13.8958 1.20139 14.3158 0.951389 14.7808 0.770833C15.2457 0.590278 15.7311 0.5 16.2371 0.5C17.4953 0.5 18.5619 0.937153 19.4371 1.81146C20.3124 2.68576 20.75 3.74861 20.75 5C20.75 6.26389 20.3096 7.32986 19.4288 8.19792C18.5479 9.06597 17.4744 9.5 16.2083 9.5C15.7042 9.5 15.2205 9.41319 14.7573 9.23958C14.2941 9.06597 13.875 8.8125 13.5 8.47917L11.8333 6.97917L13 6L14.5 7.35417C14.7361 7.5625 14.9992 7.72222 15.2894 7.83333C15.5795 7.94444 15.8842 8 16.2033 8C17.0449 8 17.763 7.70771 18.3577 7.12313C18.9526 6.53854 19.25 5.83021 19.25 4.99813C19.25 4.16604 18.9526 3.45486 18.3577 2.86458C17.763 2.27431 17.0449 1.97917 16.2033 1.97917C15.8842 1.97917 15.5795 2.03472 15.2894 2.14583C14.9992 2.25694 14.7361 2.41667 14.5 2.625L7.98417 8.4775C7.60583 8.81194 7.18417 9.06597 6.71917 9.23958C6.25417 9.41319 5.76861 9.5 5.2625 9.5Z" fill="#747474"/>
</svg>
