<svg width="21" height="20" viewBox="0 0 21 20" fill="none" xmlns="http://www.w3.org/2000/svg">
<mask id="mask0_13899_31821" style="mask-type:alpha" maskUnits="userSpaceOnUse" x="0" y="0" width="21" height="20">
<rect x="0.25" width="20" height="20" fill="#D9D9D9"/>
</mask>
<g mask="url(#mask0_13899_31821)">
<path d="M18.25 18L15.25 15H7.75C7.3375 15 6.98438 14.8531 6.69063 14.5594C6.39688 14.2656 6.25 13.9125 6.25 13.5V12.5H14.25C14.6625 12.5 15.0156 12.3531 15.3094 12.0594C15.6031 11.7656 15.75 11.4125 15.75 11V6H16.75C17.1625 6 17.5156 6.14688 17.8094 6.44063C18.1031 6.73438 18.25 7.0875 18.25 7.5V18ZM3.75 10.375L4.625 9.5H12.75V3.5H3.75V10.375ZM2.25 14V3.5C2.25 3.0875 2.39688 2.73438 2.69063 2.44063C2.98438 2.14688 3.3375 2 3.75 2H12.75C13.1625 2 13.5156 2.14688 13.8094 2.44063C14.1031 2.73438 14.25 3.0875 14.25 3.5V9.5C14.25 9.9125 14.1031 10.2656 13.8094 10.5594C13.5156 10.8531 13.1625 11 12.75 11H5.25L2.25 14Z" fill="#747474"/>
</g>
</svg>
