<svg width="20" height="20" viewBox="0 0 20 20" fill="none" xmlns="http://www.w3.org/2000/svg">
<rect width="20" height="20" fill="#1E1E1E"/>
<g id="MAY RELEASE DESIGNS">
<path d="M-3223 -919C-3223 -920.105 -3222.1 -921 -3221 -921H17295C17296.1 -921 17297 -920.105 17297 -919V11772C17297 11773.1 17296.1 11774 17295 11774H-3221C-3222.1 11774 -3223 11773.1 -3223 11772V-919Z" fill="#444444"/>
<path d="M-3221 -921V-920H17295V-921V-922H-3221V-921ZM17297 -919H17296V11772H17297H17298V-919H17297ZM17295 11774V11773H-3221V11774V11775H17295V11774ZM-3223 11772H-3222V-919H-3223H-3224V11772H-3223ZM-3221 11774V11773C-3221.55 11773 -3222 11772.6 -3222 11772H-3223H-3224C-3224 11773.7 -3222.66 11775 -3221 11775V11774ZM17297 11772H17296C17296 11772.6 17295.6 11773 17295 11773V11774V11775C17296.7 11775 17298 11773.7 17298 11772H17297ZM17295 -921V-920C17295.6 -920 17296 -919.552 17296 -919H17297H17298C17298 -920.657 17296.7 -922 17295 -922V-921ZM-3221 -921V-922C-3222.66 -922 -3224 -920.657 -3224 -919H-3223H-3222C-3222 -919.552 -3221.55 -920 -3221 -920V-921Z" fill="white" fill-opacity="0.1"/>
<g id="MZN Finance Service Catalogue (Search page)" clip-path="url(#clip0_843_3199)">
<rect width="1440" height="2178" transform="translate(-702 -130)" fill="white"/>
<g id="Frame 2147223755">
<g id="Frame 2147223756">
<g id="brand_awareness">
<mask id="mask0_843_3199" style="mask-type:alpha" maskUnits="userSpaceOnUse" x="0" y="0" width="20" height="20">
<rect id="Bounding box" width="20" height="20" fill="#D9D9D9"/>
</mask>
<g mask="url(#mask0_843_3199)">
<path id="brand_awareness_2" d="M13 10.75V9.25H16V10.75H13ZM14.0625 15.75L11.6667 13.9375L12.5625 12.75L14.9792 14.5417L14.0625 15.75ZM12.5625 7.25L11.6667 6.0625L14.0625 4.25L14.9792 5.45833L12.5625 7.25ZM3 12V8H6L10 4V16L6 12H3ZM8.5 7.625L6.625 9.5H4.5V10.5H6.625L8.5 12.375V7.625Z" fill="#747474"/>
</g>
</g>
</g>
</g>
</g>
</g>
<defs>
<clipPath id="clip0_843_3199">
<rect width="1440" height="2178" fill="white" transform="translate(-702 -130)"/>
</clipPath>
</defs>
</svg>
