<svg width="20" height="20" viewBox="0 0 20 20" fill="none" xmlns="http://www.w3.org/2000/svg">
<rect width="20" height="20" fill="#1E1E1E"/>
<g id="MAY RELEASE DESIGNS">
<path d="M-3497 -919C-3497 -920.105 -3496.1 -921 -3495 -921H17021C17022.1 -921 17023 -920.105 17023 -919V11772C17023 11773.1 17022.1 11774 17021 11774H-3495C-3496.1 11774 -3497 11773.1 -3497 11772V-919Z" fill="#444444"/>
<path d="M-3495 -921V-920H17021V-921V-922H-3495V-921ZM17023 -919H17022V11772H17023H17024V-919H17023ZM17021 11774V11773H-3495V11774V11775H17021V11774ZM-3497 11772H-3496V-919H-3497H-3498V11772H-3497ZM-3495 11774V11773C-3495.55 11773 -3496 11772.6 -3496 11772H-3497H-3498C-3498 11773.7 -3496.66 11775 -3495 11775V11774ZM17023 11772H17022C17022 11772.6 17021.6 11773 17021 11773V11774V11775C17022.7 11775 17024 11773.7 17024 11772H17023ZM17021 -921V-920C17021.6 -920 17022 -919.552 17022 -919H17023H17024C17024 -920.657 17022.7 -922 17021 -922V-921ZM-3495 -921V-922C-3496.66 -922 -3498 -920.657 -3498 -919H-3497H-3496C-3496 -919.552 -3495.55 -920 -3495 -920V-921Z" fill="white" fill-opacity="0.1"/>
<g id="MZN Finance Service Catalogue (Search page)" clip-path="url(#clip0_843_3199)">
<rect width="1440" height="2178" transform="translate(-976 -130)" fill="white"/>
<g id="Frame 2147223755">
<g id="Frame 2147223758">
<g id="calendar_month">
<mask id="mask0_843_3199" style="mask-type:alpha" maskUnits="userSpaceOnUse" x="0" y="0" width="20" height="20">
<rect id="Bounding box" width="20" height="20" fill="#D9D9D9"/>
</mask>
<g mask="url(#mask0_843_3199)">
<path id="calendar_month_2" d="M4.5 18C4.0875 18 3.73437 17.8507 3.44062 17.5521C3.14687 17.2535 3 16.9028 3 16.5V5.5C3 5.09722 3.14687 4.74653 3.44062 4.44792C3.73437 4.14931 4.0875 4 4.5 4H6V2H7.5V4H12.5V2H14V4H15.5C15.9125 4 16.2656 4.14931 16.5594 4.44792C16.8531 4.74653 17 5.09722 17 5.5V16.5C17 16.9028 16.8531 17.2535 16.5594 17.5521C16.2656 17.8507 15.9125 18 15.5 18H4.5ZM4.5 16.5H15.5V9H4.5V16.5ZM4.5 7.5H15.5V5.5H4.5V7.5ZM10.0044 12C9.79313 12 9.61458 11.9285 9.46875 11.7856C9.32292 11.6427 9.25 11.4656 9.25 11.2544C9.25 11.0431 9.32146 10.8646 9.46438 10.7188C9.60729 10.5729 9.78438 10.5 9.99563 10.5C10.2069 10.5 10.3854 10.5715 10.5312 10.7144C10.6771 10.8573 10.75 11.0344 10.75 11.2456C10.75 11.4569 10.6785 11.6354 10.5356 11.7812C10.3927 11.9271 10.2156 12 10.0044 12ZM6.75437 12C6.54312 12 6.36458 11.9285 6.21875 11.7856C6.07292 11.6427 6 11.4656 6 11.2544C6 11.0431 6.07146 10.8646 6.21438 10.7188C6.35729 10.5729 6.53438 10.5 6.74563 10.5C6.95688 10.5 7.13542 10.5715 7.28125 10.7144C7.42708 10.8573 7.5 11.0344 7.5 11.2456C7.5 11.4569 7.42854 11.6354 7.28562 11.7812C7.14271 11.9271 6.96563 12 6.75437 12ZM13.2544 12C13.0431 12 12.8646 11.9285 12.7188 11.7856C12.5729 11.6427 12.5 11.4656 12.5 11.2544C12.5 11.0431 12.5715 10.8646 12.7144 10.7188C12.8573 10.5729 13.0344 10.5 13.2456 10.5C13.4569 10.5 13.6354 10.5715 13.7812 10.7144C13.9271 10.8573 14 11.0344 14 11.2456C14 11.4569 13.9285 11.6354 13.7856 11.7812C13.6427 11.9271 13.4656 12 13.2544 12ZM10.0044 15C9.79313 15 9.61458 14.9285 9.46875 14.7856C9.32292 14.6427 9.25 14.4656 9.25 14.2544C9.25 14.0431 9.32146 13.8646 9.46438 13.7188C9.60729 13.5729 9.78438 13.5 9.99563 13.5C10.2069 13.5 10.3854 13.5715 10.5312 13.7144C10.6771 13.8573 10.75 14.0344 10.75 14.2456C10.75 14.4569 10.6785 14.6354 10.5356 14.7812C10.3927 14.9271 10.2156 15 10.0044 15ZM6.75437 15C6.54312 15 6.36458 14.9285 6.21875 14.7856C6.07292 14.6427 6 14.4656 6 14.2544C6 14.0431 6.07146 13.8646 6.21438 13.7188C6.35729 13.5729 6.53438 13.5 6.74563 13.5C6.95688 13.5 7.13542 13.5715 7.28125 13.7144C7.42708 13.8573 7.5 14.0344 7.5 14.2456C7.5 14.4569 7.42854 14.6354 7.28562 14.7812C7.14271 14.9271 6.96563 15 6.75437 15ZM13.2544 15C13.0431 15 12.8646 14.9285 12.7188 14.7856C12.5729 14.6427 12.5 14.4656 12.5 14.2544C12.5 14.0431 12.5715 13.8646 12.7144 13.7188C12.8573 13.5729 13.0344 13.5 13.2456 13.5C13.4569 13.5 13.6354 13.5715 13.7812 13.7144C13.9271 13.8573 14 14.0344 14 14.2456C14 14.4569 13.9285 14.6354 13.7856 14.7812C13.6427 14.9271 13.4656 15 13.2544 15Z" fill="#747474"/>
</g>
</g>
</g>
</g>
</g>
</g>
<defs>
<clipPath id="clip0_843_3199">
<rect width="1440" height="2178" fill="white" transform="translate(-976 -130)"/>
</clipPath>
</defs>
</svg>
