<svg width="21" height="20" viewBox="0 0 21 20" fill="none" xmlns="http://www.w3.org/2000/svg">
<mask id="mask0_13899_31850" style="mask-type:alpha" maskUnits="userSpaceOnUse" x="0" y="0" width="21" height="20">
<rect x="0.25" width="20" height="20" fill="#D9D9D9"/>
</mask>
<g mask="url(#mask0_13899_31850)">
<path d="M4.75 18C4.3375 18 3.98437 17.8507 3.69062 17.5521C3.39687 17.2535 3.25 16.9028 3.25 16.5V5.5C3.25 5.09722 3.39687 4.74653 3.69062 4.44792C3.98437 4.14931 4.3375 4 4.75 4H6.25V2H7.75V4H12.75V2H14.25V4H15.75C16.1625 4 16.5156 4.14931 16.8094 4.44792C17.1031 4.74653 17.25 5.09722 17.25 5.5V16.5C17.25 16.9028 17.1031 17.2535 16.8094 17.5521C16.5156 17.8507 16.1625 18 15.75 18H4.75ZM4.75 16.5H15.75V9H4.75V16.5ZM4.75 7.5H15.75V5.5H4.75V7.5ZM10.2544 12C10.0431 12 9.86458 11.9285 9.71875 11.7856C9.57292 11.6427 9.5 11.4656 9.5 11.2544C9.5 11.0431 9.57146 10.8646 9.71438 10.7188C9.85729 10.5729 10.0344 10.5 10.2456 10.5C10.4569 10.5 10.6354 10.5715 10.7812 10.7144C10.9271 10.8573 11 11.0344 11 11.2456C11 11.4569 10.9285 11.6354 10.7856 11.7812C10.6427 11.9271 10.4656 12 10.2544 12ZM7.00437 12C6.79312 12 6.61458 11.9285 6.46875 11.7856C6.32292 11.6427 6.25 11.4656 6.25 11.2544C6.25 11.0431 6.32146 10.8646 6.46438 10.7188C6.60729 10.5729 6.78438 10.5 6.99563 10.5C7.20688 10.5 7.38542 10.5715 7.53125 10.7144C7.67708 10.8573 7.75 11.0344 7.75 11.2456C7.75 11.4569 7.67854 11.6354 7.53562 11.7812C7.39271 11.9271 7.21563 12 7.00437 12ZM13.5044 12C13.2931 12 13.1146 11.9285 12.9688 11.7856C12.8229 11.6427 12.75 11.4656 12.75 11.2544C12.75 11.0431 12.8215 10.8646 12.9644 10.7188C13.1073 10.5729 13.2844 10.5 13.4956 10.5C13.7069 10.5 13.8854 10.5715 14.0312 10.7144C14.1771 10.8573 14.25 11.0344 14.25 11.2456C14.25 11.4569 14.1785 11.6354 14.0356 11.7812C13.8927 11.9271 13.7156 12 13.5044 12ZM10.2544 15C10.0431 15 9.86458 14.9285 9.71875 14.7856C9.57292 14.6427 9.5 14.4656 9.5 14.2544C9.5 14.0431 9.57146 13.8646 9.71438 13.7188C9.85729 13.5729 10.0344 13.5 10.2456 13.5C10.4569 13.5 10.6354 13.5715 10.7812 13.7144C10.9271 13.8573 11 14.0344 11 14.2456C11 14.4569 10.9285 14.6354 10.7856 14.7812C10.6427 14.9271 10.4656 15 10.2544 15ZM7.00437 15C6.79312 15 6.61458 14.9285 6.46875 14.7856C6.32292 14.6427 6.25 14.4656 6.25 14.2544C6.25 14.0431 6.32146 13.8646 6.46438 13.7188C6.60729 13.5729 6.78438 13.5 6.99563 13.5C7.20688 13.5 7.38542 13.5715 7.53125 13.7144C7.67708 13.8573 7.75 14.0344 7.75 14.2456C7.75 14.4569 7.67854 14.6354 7.53562 14.7812C7.39271 14.9271 7.21563 15 7.00437 15ZM13.5044 15C13.2931 15 13.1146 14.9285 12.9688 14.7856C12.8229 14.6427 12.75 14.4656 12.75 14.2544C12.75 14.0431 12.8215 13.8646 12.9644 13.7188C13.1073 13.5729 13.2844 13.5 13.4956 13.5C13.7069 13.5 13.8854 13.5715 14.0312 13.7144C14.1771 13.8573 14.25 14.0344 14.25 14.2456C14.25 14.4569 14.1785 14.6354 14.0356 14.7812C13.8927 14.9271 13.7156 15 13.5044 15Z" fill="#747474"/>
</g>
</svg>
