<svg width="18" height="18" viewBox="0 0 18 18" fill="none" xmlns="http://www.w3.org/2000/svg">
<g id="card_membership">
<mask id="mask0_380_25002" style="mask-type:alpha" maskUnits="userSpaceOnUse" x="0" y="0" width="18" height="18">
<rect id="Bounding box" width="18" height="18" fill="#D9D9D9"/>
</mask>
<g mask="url(#mask0_380_25002)">
<path id="card_membership_2" d="M3.00391 9.74219V11.2422H15.0039V9.74219H3.00391ZM3.00391 1.49219H15.0039C15.4164 1.49219 15.7695 1.63906 16.0633 1.93281C16.357 2.22656 16.5039 2.57969 16.5039 2.99219V11.2422C16.5039 11.6547 16.357 12.0078 16.0633 12.3016C15.7695 12.5953 15.4164 12.7422 15.0039 12.7422H12.0039V16.4922L9.00391 14.9922L6.00391 16.4922V12.7422H3.00391C2.59141 12.7422 2.23828 12.5953 1.94453 12.3016C1.65078 12.0078 1.50391 11.6547 1.50391 11.2422V2.99219C1.50391 2.57969 1.65078 2.22656 1.94453 1.93281C2.23828 1.63906 2.59141 1.49219 3.00391 1.49219ZM3.00391 7.49219H15.0039V2.99219H3.00391V7.49219Z" fill="#7D879C"/>
</g>
</g>
</svg>
