<svg width="49" height="49" viewBox="0 0 49 49" fill="none" xmlns="http://www.w3.org/2000/svg">
<mask id="mask0_2135_20923" style="mask-type:alpha" maskUnits="userSpaceOnUse" x="0" y="0" width="49" height="49">
<rect x="0.5" y="0.5" width="48" height="48" fill="#D9D9D9"/>
</mask>
<g mask="url(#mask0_2135_20923)">
<path d="M15.3 32.5L21.4 26.4L25.4 30.4L32.5 23.35V26.5H36.5V16.5H26.5V20.5H29.65L25.4 24.75L21.4 20.75L12.5 29.7L15.3 32.5ZM10.5 42.5C9.4 42.5 8.45833 42.1083 7.675 41.325C6.89167 40.5417 6.5 39.6 6.5 38.5V10.5C6.5 9.4 6.89167 8.45833 7.675 7.675C8.45833 6.89167 9.4 6.5 10.5 6.5H38.5C39.6 6.5 40.5417 6.89167 41.325 7.675C42.1083 8.45833 42.5 9.4 42.5 10.5V38.5C42.5 39.6 42.1083 40.5417 41.325 41.325C40.5417 42.1083 39.6 42.5 38.5 42.5H10.5Z" fill="#012EE3"/>
</g>
</svg>
