<svg width="60" height="60" viewBox="0 0 60 60" fill="none" xmlns="http://www.w3.org/2000/svg">
<path d="M0 30C0 13.4315 13.4315 0 30 0C46.5685 0 60 13.4315 60 30C60 46.5685 46.5685 60 30 60C13.4315 60 0 46.5685 0 30Z" fill="#DEE4FF"/>
<mask id="mask0_2819_42603" style="mask-type:alpha" maskUnits="userSpaceOnUse" x="12" y="12" width="36" height="36">
<rect x="12" y="12" width="36" height="36" fill="#D9D9D9"/>
</mask>
<g mask="url(#mask0_2819_42603)">
<path d="M25.0938 42.6004C22.9688 42.6004 21.1562 41.8504 19.6562 40.3504C18.1562 38.8504 17.4062 37.0379 17.4062 34.9129C17.4062 34.0379 17.55 33.1879 17.8375 32.3629C18.125 31.5379 18.5312 30.7879 19.0562 30.1129L23.9312 23.9254L21.2312 17.4004H38.7812L36.0438 23.9254L40.9563 30.1129C41.4813 30.7879 41.8875 31.5379 42.175 32.3629C42.4625 33.1879 42.6062 34.0379 42.6062 34.9129C42.6062 37.0379 41.8562 38.8504 40.3562 40.3504C38.8562 41.8504 37.0438 42.6004 34.9188 42.6004H25.0938ZM30.0062 35.8504C29.1312 35.8504 28.3875 35.5441 27.775 34.9316C27.1625 34.3191 26.8562 33.5754 26.8562 32.7004C26.8562 31.8254 27.1625 31.0816 27.775 30.4691C28.3875 29.8566 29.1312 29.5504 30.0062 29.5504C30.8812 29.5504 31.625 29.8566 32.2375 30.4691C32.85 31.0816 33.1562 31.8254 33.1562 32.7004C33.1562 33.5754 32.85 34.3191 32.2375 34.9316C31.625 35.5441 30.8812 35.8504 30.0062 35.8504ZM26.4062 22.8004H33.6062L34.7312 20.1004H25.2812L26.4062 22.8004ZM25.0938 39.9004H34.9188C36.2938 39.9004 37.4688 39.4129 38.4438 38.4379C39.4187 37.4629 39.9062 36.2879 39.9062 34.9129C39.9062 34.3379 39.8125 33.7879 39.625 33.2629C39.4375 32.7379 39.1688 32.2504 38.8188 31.8004L33.8688 25.5004H26.1438L21.1938 31.8004C20.8438 32.2504 20.575 32.7379 20.3875 33.2629C20.2 33.7879 20.1062 34.3379 20.1062 34.9129C20.1062 36.2879 20.5937 37.4629 21.5687 38.4379C22.5437 39.4129 23.7188 39.9004 25.0938 39.9004Z" fill="#0030E3"/>
</g>
</svg>
