<svg width="60" height="60" viewBox="0 0 60 60" fill="none" xmlns="http://www.w3.org/2000/svg">
<path d="M0 30C0 13.4315 13.4315 0 30 0C46.5685 0 60 13.4315 60 30C60 46.5685 46.5685 60 30 60C13.4315 60 0 46.5685 0 30Z" fill="#DEE4FF"/>
<mask id="mask0_2819_42593" style="mask-type:alpha" maskUnits="userSpaceOnUse" x="12" y="12" width="36" height="36">
<rect x="12" y="12" width="36" height="36" fill="#D9D9D9"/>
</mask>
<g mask="url(#mask0_2819_42593)">
<path d="M20.1225 38.1004C17.8575 38.1004 15.9375 37.3158 14.3625 35.7465C12.7875 34.1773 12 32.2648 12 30.009C12 27.7533 12.7875 25.8379 14.3625 24.2629C15.9378 22.6879 17.8575 21.9004 20.1217 21.9004C21.0323 21.9004 21.9062 22.0566 22.7437 22.3691C23.5813 22.6816 24.3375 23.1379 25.0125 23.7379L27.975 26.4004L25.95 28.2004L23.25 25.7629C22.825 25.3879 22.3514 25.1004 21.8291 24.9004C21.3069 24.7004 20.7585 24.6004 20.184 24.6004C18.6693 24.6004 17.3766 25.1265 16.3061 26.1788C15.2354 27.231 14.7 28.506 14.7 30.0038C14.7 31.5015 15.2354 32.7816 16.3061 33.8441C17.3766 34.9066 18.6693 35.4379 20.184 35.4379C20.7585 35.4379 21.3069 35.3379 21.8291 35.1379C22.3514 34.9379 22.825 34.6504 23.25 34.2754L34.9875 23.7379C35.6625 23.1629 36.4185 22.7129 37.2555 22.3879C38.0922 22.0629 38.966 21.9004 39.8767 21.9004C42.1415 21.9004 44.0615 22.6873 45.6367 24.261C47.2122 25.8348 48 27.7479 48 30.0004C48 32.2754 47.2073 34.1941 45.6217 35.7566C44.0363 37.3191 42.104 38.1004 39.825 38.1004C38.9175 38.1004 38.0469 37.9441 37.2131 37.6316C36.3794 37.3191 35.625 36.8629 34.95 36.2629L31.95 33.5629L34.05 31.8004L36.75 34.2379C37.175 34.6129 37.6486 34.9004 38.1709 35.1004C38.6931 35.3004 39.2415 35.4004 39.816 35.4004C41.3307 35.4004 42.6234 34.8743 43.6939 33.822C44.7646 32.7698 45.3 31.4948 45.3 29.997C45.3 28.4993 44.7646 27.2191 43.6939 26.1566C42.6234 25.0941 41.3307 24.5629 39.816 24.5629C39.2415 24.5629 38.6931 24.6629 38.1709 24.8629C37.6486 25.0629 37.175 25.3504 36.75 25.7254L25.0215 36.2599C24.3405 36.8619 23.5815 37.3191 22.7445 37.6316C21.9075 37.9441 21.0335 38.1004 20.1225 38.1004Z" fill="#0030E3"/>
</g>
</svg>
