<svg width="20" height="20" viewBox="0 0 20 20" fill="none" xmlns="http://www.w3.org/2000/svg">
<rect width="20" height="20" fill="#1E1E1E"/>
<g id="MAY RELEASE DESIGNS">
<path d="M-3344 -919C-3344 -920.105 -3343.1 -921 -3342 -921H17174C17175.1 -921 17176 -920.105 17176 -919V11772C17176 11773.1 17175.1 11774 17174 11774H-3342C-3343.1 11774 -3344 11773.1 -3344 11772V-919Z" fill="#444444"/>
<path d="M-3342 -921V-920H17174V-921V-922H-3342V-921ZM17176 -919H17175V11772H17176H17177V-919H17176ZM17174 11774V11773H-3342V11774V11775H17174V11774ZM-3344 11772H-3343V-919H-3344H-3345V11772H-3344ZM-3342 11774V11773C-3342.55 11773 -3343 11772.6 -3343 11772H-3344H-3345C-3345 11773.7 -3343.66 11775 -3342 11775V11774ZM17176 11772H17175C17175 11772.6 17174.6 11773 17174 11773V11774V11775C17175.7 11775 17177 11773.7 17177 11772H17176ZM17174 -921V-920C17174.6 -920 17175 -919.552 17175 -919H17176H17177C17177 -920.657 17175.7 -922 17174 -922V-921ZM-3342 -921V-922C-3343.66 -922 -3345 -920.657 -3345 -919H-3344H-3343C-3343 -919.552 -3342.55 -920 -3342 -920V-921Z" fill="white" fill-opacity="0.1"/>
<g id="MZN Finance Service Catalogue (Search page)" clip-path="url(#clip0_843_3199)">
<rect width="1440" height="2178" transform="translate(-823 -130)" fill="white"/>
<g id="Frame 2147223755">
<g id="Frame 2147223757">
<g id="crowdsource">
<mask id="mask0_843_3199" style="mask-type:alpha" maskUnits="userSpaceOnUse" x="0" y="0" width="20" height="20">
<rect id="Bounding box" width="20" height="20" fill="#D9D9D9"/>
</mask>
<g mask="url(#mask0_843_3199)">
<path id="crowdsource_2" d="M13.75 8C13.4028 8 13.1076 7.87847 12.8646 7.63542C12.6215 7.39236 12.5 7.09722 12.5 6.75C12.5 6.40278 12.6215 6.10764 12.8646 5.86458C13.1076 5.62153 13.4028 5.5 13.75 5.5C14.0972 5.5 14.3924 5.62153 14.6354 5.86458C14.8785 6.10764 15 6.40278 15 6.75C15 7.09722 14.8785 7.39236 14.6354 7.63542C14.3924 7.87847 14.0972 8 13.75 8ZM6.25 8C5.90278 8 5.60764 7.87847 5.36458 7.63542C5.12153 7.39236 5 7.09722 5 6.75C5 6.40278 5.12153 6.10764 5.36458 5.86458C5.60764 5.62153 5.90278 5.5 6.25 5.5C6.59722 5.5 6.89236 5.62153 7.13542 5.86458C7.37847 6.10764 7.5 6.40278 7.5 6.75C7.5 7.09722 7.37847 7.39236 7.13542 7.63542C6.89236 7.87847 6.59722 8 6.25 8ZM10 10C9.65278 10 9.35764 9.87847 9.11458 9.63542C8.87153 9.39236 8.75 9.09722 8.75 8.75C8.75 8.40278 8.87153 8.10764 9.11458 7.86458C9.35764 7.62153 9.65278 7.5 10 7.5C10.3472 7.5 10.6424 7.62153 10.8854 7.86458C11.1285 8.10764 11.25 8.40278 11.25 8.75C11.25 9.09722 11.1285 9.39236 10.8854 9.63542C10.6424 9.87847 10.3472 10 10 10ZM10 5.5C9.65278 5.5 9.35764 5.37847 9.11458 5.13542C8.87153 4.89236 8.75 4.59722 8.75 4.25C8.75 3.90278 8.87153 3.60764 9.11458 3.36458C9.35764 3.12153 9.65278 3 10 3C10.3472 3 10.6424 3.12153 10.8854 3.36458C11.1285 3.60764 11.25 3.90278 11.25 4.25C11.25 4.59722 11.1285 4.89236 10.8854 5.13542C10.6424 5.37847 10.3472 5.5 10 5.5ZM10 17C9.65278 17 9.3125 16.9792 8.97917 16.9375C8.64583 16.8958 8.31944 16.8194 8 16.7083V13C8 12.4444 8.19583 11.9722 8.5875 11.5833C8.97917 11.1944 9.45 11 10 11C10.55 11 11.0208 11.1944 11.4125 11.5833C11.8042 11.9722 12 12.4444 12 13V16.7083C11.6806 16.8194 11.3542 16.8958 11.0208 16.9375C10.6875 16.9792 10.3472 17 10 17ZM7 16.3125C6.72222 16.2014 6.46181 16.059 6.21875 15.8854C5.97569 15.7118 5.73611 15.5347 5.5 15.3542C5.05556 15.0347 4.69444 14.6372 4.41667 14.1617C4.13889 13.6861 4 13.1808 4 12.6458C4 12.2986 3.98611 11.9514 3.95833 11.6042C3.93056 11.2569 3.79861 10.9514 3.5625 10.6875C3.25694 10.3681 2.95139 10.059 2.64583 9.76042C2.34028 9.46181 2.0325 9.15278 1.7225 8.83333C1.57417 8.68056 1.5 8.50347 1.5 8.30208C1.5 8.10069 1.57292 7.92361 1.71875 7.77083C1.86458 7.61806 2.03819 7.54167 2.23958 7.54167C2.44097 7.54167 2.61806 7.61806 2.77083 7.77083L6.125 11.125C6.40278 11.4028 6.61806 11.7257 6.77083 12.0938C6.92361 12.4618 7 12.8472 7 13.25V16.3125ZM13 16.3125V13.25C13 12.8472 13.0729 12.4618 13.2188 12.0938C13.3646 11.7257 13.5833 11.4028 13.875 11.125L17.2292 7.77083C17.3736 7.61806 17.5451 7.54167 17.7438 7.54167C17.9424 7.54167 18.1146 7.61806 18.2604 7.77083C18.4063 7.92361 18.4861 8.10069 18.5 8.30208C18.5139 8.50347 18.4444 8.68056 18.2917 8.83333C17.9722 9.15278 17.6597 9.46181 17.3542 9.76042C17.0486 10.059 16.75 10.3681 16.4583 10.6875C16.2083 10.9375 16.0694 11.2361 16.0417 11.5833C16.0139 11.9306 16 12.2778 16 12.625C16 13.1667 15.8611 13.6736 15.5833 14.1458C15.3056 14.6181 14.9444 15.0208 14.5 15.3542C14.2639 15.5486 14.0243 15.7292 13.7812 15.8958C13.5382 16.0625 13.2778 16.2014 13 16.3125Z" fill="#747474"/>
</g>
</g>
</g>
</g>
</g>
</g>
<defs>
<clipPath id="clip0_843_3199">
<rect width="1440" height="2178" fill="white" transform="translate(-823 -130)"/>
</clipPath>
</defs>
</svg>
