<svg width="21" height="20" viewBox="0 0 21 20" fill="none" xmlns="http://www.w3.org/2000/svg">
<mask id="mask0_13899_31828" style="mask-type:alpha" maskUnits="userSpaceOnUse" x="0" y="0" width="21" height="20">
<rect x="0.75" width="20" height="20" fill="#D9D9D9"/>
</mask>
<g mask="url(#mask0_13899_31828)">
<path d="M14.5 8C14.1528 8 13.8576 7.87847 13.6146 7.63542C13.3715 7.39236 13.25 7.09722 13.25 6.75C13.25 6.40278 13.3715 6.10764 13.6146 5.86458C13.8576 5.62153 14.1528 5.5 14.5 5.5C14.8472 5.5 15.1424 5.62153 15.3854 5.86458C15.6285 6.10764 15.75 6.40278 15.75 6.75C15.75 7.09722 15.6285 7.39236 15.3854 7.63542C15.1424 7.87847 14.8472 8 14.5 8ZM7 8C6.65278 8 6.35764 7.87847 6.11458 7.63542C5.87153 7.39236 5.75 7.09722 5.75 6.75C5.75 6.40278 5.87153 6.10764 6.11458 5.86458C6.35764 5.62153 6.65278 5.5 7 5.5C7.34722 5.5 7.64236 5.62153 7.88542 5.86458C8.12847 6.10764 8.25 6.40278 8.25 6.75C8.25 7.09722 8.12847 7.39236 7.88542 7.63542C7.64236 7.87847 7.34722 8 7 8ZM10.75 10C10.4028 10 10.1076 9.87847 9.86458 9.63542C9.62153 9.39236 9.5 9.09722 9.5 8.75C9.5 8.40278 9.62153 8.10764 9.86458 7.86458C10.1076 7.62153 10.4028 7.5 10.75 7.5C11.0972 7.5 11.3924 7.62153 11.6354 7.86458C11.8785 8.10764 12 8.40278 12 8.75C12 9.09722 11.8785 9.39236 11.6354 9.63542C11.3924 9.87847 11.0972 10 10.75 10ZM10.75 5.5C10.4028 5.5 10.1076 5.37847 9.86458 5.13542C9.62153 4.89236 9.5 4.59722 9.5 4.25C9.5 3.90278 9.62153 3.60764 9.86458 3.36458C10.1076 3.12153 10.4028 3 10.75 3C11.0972 3 11.3924 3.12153 11.6354 3.36458C11.8785 3.60764 12 3.90278 12 4.25C12 4.59722 11.8785 4.89236 11.6354 5.13542C11.3924 5.37847 11.0972 5.5 10.75 5.5ZM10.75 17C10.4028 17 10.0625 16.9792 9.72917 16.9375C9.39583 16.8958 9.06944 16.8194 8.75 16.7083V13C8.75 12.4444 8.94583 11.9722 9.3375 11.5833C9.72917 11.1944 10.2 11 10.75 11C11.3 11 11.7708 11.1944 12.1625 11.5833C12.5542 11.9722 12.75 12.4444 12.75 13V16.7083C12.4306 16.8194 12.1042 16.8958 11.7708 16.9375C11.4375 16.9792 11.0972 17 10.75 17ZM7.75 16.3125C7.47222 16.2014 7.21181 16.059 6.96875 15.8854C6.72569 15.7118 6.48611 15.5347 6.25 15.3542C5.80556 15.0347 5.44444 14.6372 5.16667 14.1617C4.88889 13.6861 4.75 13.1808 4.75 12.6458C4.75 12.2986 4.73611 11.9514 4.70833 11.6042C4.68056 11.2569 4.54861 10.9514 4.3125 10.6875C4.00694 10.3681 3.70139 10.059 3.39583 9.76042C3.09028 9.46181 2.7825 9.15278 2.4725 8.83333C2.32417 8.68056 2.25 8.50347 2.25 8.30208C2.25 8.10069 2.32292 7.92361 2.46875 7.77083C2.61458 7.61806 2.78819 7.54167 2.98958 7.54167C3.19097 7.54167 3.36806 7.61806 3.52083 7.77083L6.875 11.125C7.15278 11.4028 7.36806 11.7257 7.52083 12.0938C7.67361 12.4618 7.75 12.8472 7.75 13.25V16.3125ZM13.75 16.3125V13.25C13.75 12.8472 13.8229 12.4618 13.9688 12.0938C14.1146 11.7257 14.3333 11.4028 14.625 11.125L17.9792 7.77083C18.1236 7.61806 18.2951 7.54167 18.4938 7.54167C18.6924 7.54167 18.8646 7.61806 19.0104 7.77083C19.1563 7.92361 19.2361 8.10069 19.25 8.30208C19.2639 8.50347 19.1944 8.68056 19.0417 8.83333C18.7222 9.15278 18.4097 9.46181 18.1042 9.76042C17.7986 10.059 17.5 10.3681 17.2083 10.6875C16.9583 10.9375 16.8194 11.2361 16.7917 11.5833C16.7639 11.9306 16.75 12.2778 16.75 12.625C16.75 13.1667 16.6111 13.6736 16.3333 14.1458C16.0556 14.6181 15.6944 15.0208 15.25 15.3542C15.0139 15.5486 14.7743 15.7292 14.5312 15.8958C14.2882 16.0625 14.0278 16.2014 13.75 16.3125Z" fill="#747474"/>
</g>
</svg>
