<svg width="49" height="49" viewBox="0 0 49 49" fill="none" xmlns="http://www.w3.org/2000/svg">
<mask id="mask0_2135_20915" style="mask-type:alpha" maskUnits="userSpaceOnUse" x="0" y="0" width="49" height="49">
<rect x="0.5" y="0.5" width="48" height="48" fill="#D9D9D9"/>
</mask>
<g mask="url(#mask0_2135_20915)">
<path d="M1.5 27.15L2.5 23.15H13.5L12.5 27.15H1.5ZM14.5 40.5C12.8333 40.5 11.4167 39.9167 10.25 38.75C9.08333 37.5833 8.5 36.1667 8.5 34.5H3.5L4.5 30.15H14.85L16.65 22.85H20.85L23.35 12.85H9.5L9.8 11.65C10 10.7167 10.4583 9.95833 11.175 9.375C11.8917 8.79167 12.7333 8.5 13.7 8.5H36.5L34.65 16.5H40.5L46.5 24.5L44.5 34.5H40.5C40.5 36.1667 39.9167 37.5833 38.75 38.75C37.5833 39.9167 36.1667 40.5 34.5 40.5C32.8333 40.5 31.4167 39.9167 30.25 38.75C29.0833 37.5833 28.5 36.1667 28.5 34.5H20.5C20.5 36.1667 19.9167 37.5833 18.75 38.75C17.5833 39.9167 16.1667 40.5 14.5 40.5ZM5.5 19.85L6.5 15.85H19.5L18.5 19.85H5.5ZM14.5 36.5C15.0667 36.5 15.5417 36.3083 15.925 35.925C16.3083 35.5417 16.5 35.0667 16.5 34.5C16.5 33.9333 16.3083 33.4583 15.925 33.075C15.5417 32.6917 15.0667 32.5 14.5 32.5C13.9333 32.5 13.4583 32.6917 13.075 33.075C12.6917 33.4583 12.5 33.9333 12.5 34.5C12.5 35.0667 12.6917 35.5417 13.075 35.925C13.4583 36.3083 13.9333 36.5 14.5 36.5ZM34.5 36.5C35.0667 36.5 35.5417 36.3083 35.925 35.925C36.3083 35.5417 36.5 35.0667 36.5 34.5C36.5 33.9333 36.3083 33.4583 35.925 33.075C35.5417 32.6917 35.0667 32.5 34.5 32.5C33.9333 32.5 33.4583 32.6917 33.075 33.075C32.6917 33.4583 32.5 33.9333 32.5 34.5C32.5 35.0667 32.6917 35.5417 33.075 35.925C33.4583 36.3083 33.9333 36.5 34.5 36.5ZM32.35 26.5H42L42.2 25.45L38.5 20.5H33.75L32.35 26.5Z" fill="#012EE3"/>
</g>
</svg>
