<svg width="24" height="25" viewBox="0 0 24 25" fill="none" xmlns="http://www.w3.org/2000/svg">
<path d="M12.0243 4.97539C13.791 4.97539 15.4576 5.35456 17.0243 6.11289C18.591 6.87122 19.8993 7.96706 20.9493 9.40039C21.066 9.55039 21.1035 9.68372 21.0618 9.80039C21.0201 9.91706 20.9493 10.0171 20.8493 10.1004C20.7493 10.1837 20.6326 10.2212 20.4993 10.2129C20.366 10.2046 20.2493 10.1337 20.1493 10.0004C19.2326 8.70039 18.0535 7.70456 16.6118 7.01289C15.1701 6.32122 13.641 5.97539 12.0243 5.97539C10.4076 5.97539 8.89096 6.32122 7.4743 7.01289C6.05763 7.70456 4.88263 8.70039 3.9493 10.0004C3.8493 10.1504 3.73263 10.2337 3.5993 10.2504C3.46596 10.2671 3.3493 10.2337 3.2493 10.1504C3.13263 10.0671 3.0618 9.96289 3.0368 9.83789C3.0118 9.71289 3.0493 9.58372 3.1493 9.45039C4.18263 8.03372 5.47846 6.93372 7.0368 6.15039C8.59513 5.36706 10.2576 4.97539 12.0243 4.97539ZM12.0243 7.32539C14.2743 7.32539 16.2076 8.07539 17.8243 9.57539C19.441 11.0754 20.2493 12.9337 20.2493 15.1504C20.2493 15.9837 19.9535 16.6796 19.3618 17.2379C18.7701 17.7962 18.0493 18.0754 17.1993 18.0754C16.3493 18.0754 15.6201 17.7962 15.0118 17.2379C14.4035 16.6796 14.0993 15.9837 14.0993 15.1504C14.0993 14.6004 13.8951 14.1379 13.4868 13.7629C13.0785 13.3879 12.591 13.2004 12.0243 13.2004C11.4576 13.2004 10.9701 13.3879 10.5618 13.7629C10.1535 14.1379 9.9493 14.6004 9.9493 15.1504C9.9493 16.7671 10.4285 18.1171 11.3868 19.2004C12.3451 20.2837 13.5826 21.0421 15.0993 21.4754C15.2493 21.5254 15.3493 21.6087 15.3993 21.7254C15.4493 21.8421 15.4576 21.9671 15.4243 22.1004C15.391 22.2171 15.3243 22.3171 15.2243 22.4004C15.1243 22.4837 14.9993 22.5087 14.8493 22.4754C13.116 22.0421 11.6993 21.1796 10.5993 19.8879C9.4993 18.5962 8.9493 17.0171 8.9493 15.1504C8.9493 14.3171 9.2493 13.6171 9.8493 13.0504C10.4493 12.4837 11.1743 12.2004 12.0243 12.2004C12.8743 12.2004 13.5993 12.4837 14.1993 13.0504C14.7993 13.6171 15.0993 14.3171 15.0993 15.1504C15.0993 15.7004 15.3076 16.1629 15.7243 16.5379C16.141 16.9129 16.6326 17.1004 17.1993 17.1004C17.766 17.1004 18.2493 16.9129 18.6493 16.5379C19.0493 16.1629 19.2493 15.7004 19.2493 15.1504C19.2493 13.2171 18.541 11.5921 17.1243 10.2754C15.7076 8.95872 14.016 8.30039 12.0493 8.30039C10.0826 8.30039 8.39096 8.95872 6.9743 10.2754C5.55763 11.5921 4.8493 13.2087 4.8493 15.1254C4.8493 15.5254 4.8868 16.0254 4.9618 16.6254C5.0368 17.2254 5.21596 17.9254 5.4993 18.7254C5.5493 18.8754 5.54513 19.0087 5.4868 19.1254C5.42846 19.2421 5.33263 19.3254 5.1993 19.3754C5.06596 19.4254 4.9368 19.4212 4.8118 19.3629C4.6868 19.3046 4.5993 19.2087 4.5493 19.0754C4.2993 18.4254 4.12013 17.7796 4.0118 17.1379C3.90346 16.4962 3.8493 15.8337 3.8493 15.1504C3.8493 12.9337 4.65346 11.0754 6.2618 9.57539C7.87013 8.07539 9.79096 7.32539 12.0243 7.32539ZM12.0243 2.52539C13.091 2.52539 14.1326 2.65456 15.1493 2.91289C16.166 3.17122 17.1493 3.54206 18.0993 4.02539C18.2493 4.10872 18.3368 4.20872 18.3618 4.32539C18.3868 4.44206 18.3743 4.55872 18.3243 4.67539C18.2743 4.79206 18.191 4.88372 18.0743 4.95039C17.9576 5.01706 17.816 5.00872 17.6493 4.92539C16.766 4.47539 15.8535 4.12956 14.9118 3.88789C13.9701 3.64622 13.0076 3.52539 12.0243 3.52539C11.0576 3.52539 10.1076 3.63789 9.1743 3.86289C8.24096 4.08789 7.3493 4.44206 6.4993 4.92539C6.36596 5.00872 6.23263 5.02956 6.0993 4.98789C5.96596 4.94622 5.86596 4.85872 5.7993 4.72539C5.73263 4.59206 5.71596 4.47122 5.7493 4.36289C5.78263 4.25456 5.86596 4.15872 5.9993 4.07539C6.93263 3.57539 7.90763 3.19206 8.9243 2.92539C9.94096 2.65872 10.9743 2.52539 12.0243 2.52539ZM12.0243 9.75039C13.5743 9.75039 14.9076 10.2712 16.0243 11.3129C17.141 12.3546 17.6993 13.6337 17.6993 15.1504C17.6993 15.3004 17.6535 15.4212 17.5618 15.5129C17.4701 15.6046 17.3493 15.6504 17.1993 15.6504C17.066 15.6504 16.9493 15.6046 16.8493 15.5129C16.7493 15.4212 16.6993 15.3004 16.6993 15.1504C16.6993 13.9004 16.2368 12.8546 15.3118 12.0129C14.3868 11.1712 13.291 10.7504 12.0243 10.7504C10.7576 10.7504 9.67013 11.1712 8.7618 12.0129C7.85346 12.8546 7.3993 13.9004 7.3993 15.1504C7.3993 16.5004 7.63263 17.6462 8.0993 18.5879C8.56596 19.5296 9.2493 20.4754 10.1493 21.4254C10.2493 21.5254 10.2993 21.6421 10.2993 21.7754C10.2993 21.9087 10.2493 22.0254 10.1493 22.1254C10.0493 22.2254 9.93263 22.2754 9.7993 22.2754C9.66596 22.2754 9.5493 22.2254 9.4493 22.1254C8.46596 21.0921 7.7118 20.0379 7.1868 18.9629C6.6618 17.8879 6.3993 16.6171 6.3993 15.1504C6.3993 13.6337 6.9493 12.3546 8.0493 11.3129C9.1493 10.2712 10.4743 9.75039 12.0243 9.75039ZM11.9993 14.6504C12.1493 14.6504 12.2701 14.7004 12.3618 14.8004C12.4535 14.9004 12.4993 15.0171 12.4993 15.1504C12.4993 16.4004 12.9493 17.4254 13.8493 18.2254C14.7493 19.0254 15.7993 19.4254 16.9993 19.4254C17.0993 19.4254 17.241 19.4171 17.4243 19.4004C17.6076 19.3837 17.7993 19.3587 17.9993 19.3254C18.1493 19.2921 18.2785 19.3129 18.3868 19.3879C18.4951 19.4629 18.566 19.5754 18.5993 19.7254C18.6326 19.8587 18.6076 19.9754 18.5243 20.0754C18.441 20.1754 18.3326 20.2421 18.1993 20.2754C17.8993 20.3587 17.6368 20.4046 17.4118 20.4129C17.1868 20.4212 17.0493 20.4254 16.9993 20.4254C15.516 20.4254 14.2285 19.9254 13.1368 18.9254C12.0451 17.9254 11.4993 16.6671 11.4993 15.1504C11.4993 15.0171 11.5451 14.9004 11.6368 14.8004C11.7285 14.7004 11.8493 14.6504 11.9993 14.6504Z" fill="#0030E3"/>
</svg>
