<svg width="20" height="20" viewBox="0 0 20 20" fill="none" xmlns="http://www.w3.org/2000/svg">
<rect width="20" height="20" fill="#1E1E1E"/>
<g id="MAY RELEASE DESIGNS">
<path d="M-3056 -919C-3056 -920.105 -3055.1 -921 -3054 -921H17462C17463.1 -921 17464 -920.105 17464 -919V11772C17464 11773.1 17463.1 11774 17462 11774H-3054C-3055.1 11774 -3056 11773.1 -3056 11772V-919Z" fill="#444444"/>
<path d="M-3054 -921V-920H17462V-921V-922H-3054V-921ZM17464 -919H17463V11772H17464H17465V-919H17464ZM17462 11774V11773H-3054V11774V11775H17462V11774ZM-3056 11772H-3055V-919H-3056H-3057V11772H-3056ZM-3054 11774V11773C-3054.55 11773 -3055 11772.6 -3055 11772H-3056H-3057C-3057 11773.7 -3055.66 11775 -3054 11775V11774ZM17464 11772H17463C17463 11772.6 17462.6 11773 17462 11773V11774V11775C17463.7 11775 17465 11773.7 17465 11772H17464ZM17462 -921V-920C17462.6 -920 17463 -919.552 17463 -919H17464H17465C17465 -920.657 17463.7 -922 17462 -922V-921ZM-3054 -921V-922C-3055.66 -922 -3057 -920.657 -3057 -919H-3056H-3055C-3055 -919.552 -3054.55 -920 -3054 -920V-921Z" fill="white" fill-opacity="0.1"/>
<g id="MZN Finance Service Catalogue (Search page)" clip-path="url(#clip0_843_3199)">
<rect width="1440" height="2178" transform="translate(-535 -130)" fill="white"/>
<g id="Frame 2147223755">
<g id="Frame 2147223755_2">
<g id="forum">
<mask id="mask0_843_3199" style="mask-type:alpha" maskUnits="userSpaceOnUse" x="0" y="0" width="20" height="20">
<rect id="Bounding box" width="20" height="20" fill="#D9D9D9"/>
</mask>
<g mask="url(#mask0_843_3199)">
<path id="forum_2" d="M18 18L15 15H7.5C7.0875 15 6.73438 14.8531 6.44063 14.5594C6.14688 14.2656 6 13.9125 6 13.5V12.5H14C14.4125 12.5 14.7656 12.3531 15.0594 12.0594C15.3531 11.7656 15.5 11.4125 15.5 11V6H16.5C16.9125 6 17.2656 6.14688 17.5594 6.44063C17.8531 6.73438 18 7.0875 18 7.5V18ZM3.5 10.375L4.375 9.5H12.5V3.5H3.5V10.375ZM2 14V3.5C2 3.0875 2.14688 2.73438 2.44063 2.44063C2.73438 2.14688 3.0875 2 3.5 2H12.5C12.9125 2 13.2656 2.14688 13.5594 2.44063C13.8531 2.73438 14 3.0875 14 3.5V9.5C14 9.9125 13.8531 10.2656 13.5594 10.5594C13.2656 10.8531 12.9125 11 12.5 11H5L2 14Z" fill="#747474"/>
</g>
</g>
</g>
</g>
</g>
</g>
<defs>
<clipPath id="clip0_843_3199">
<rect width="1440" height="2178" fill="white" transform="translate(-535 -130)"/>
</clipPath>
</defs>
</svg>
