<svg width="24" height="25" viewBox="0 0 24 25" fill="none" xmlns="http://www.w3.org/2000/svg">
<path d="M12.0008 12.2753C11.1383 12.2753 10.406 11.9743 9.80403 11.3723C9.20186 10.7701 8.90078 10.0378 8.90078 9.17526C8.90078 8.31276 9.20186 7.58051 9.80403 6.97851C10.406 6.37634 11.1383 6.07526 12.0008 6.07526C12.8633 6.07526 13.5955 6.37634 14.1975 6.97851C14.7997 7.58051 15.1008 8.31276 15.1008 9.17526C15.1008 10.0378 14.7997 10.7701 14.1975 11.3723C13.5955 11.9743 12.8633 12.2753 12.0008 12.2753ZM5.30078 19.0908V17.2675C5.30078 16.9612 5.39211 16.666 5.57478 16.382C5.75745 16.098 6.01295 15.8522 6.34128 15.6445C7.21295 15.1433 8.12911 14.7591 9.08978 14.4918C10.0504 14.2244 11.019 14.0908 11.9955 14.0908C12.972 14.0908 13.9424 14.2244 14.9065 14.4918C15.8707 14.7591 16.7886 15.1433 17.6603 15.6445C17.9886 15.8355 18.2441 16.0772 18.4268 16.3695C18.6094 16.6618 18.7008 16.9612 18.7008 17.2675V19.0908H5.30078ZM6.60078 17.7908H17.4008V17.2675C17.4008 17.162 17.3628 17.0628 17.2868 16.9698C17.2106 16.8768 17.1057 16.7978 16.972 16.733C16.2437 16.292 15.4569 15.958 14.6115 15.731C13.766 15.5042 12.8958 15.3908 12.0008 15.3908C11.1058 15.3908 10.2355 15.5042 9.39003 15.731C8.5447 15.958 7.75786 16.292 7.02953 16.733C6.89503 16.8253 6.78995 16.9138 6.71428 16.9983C6.63861 17.0828 6.60078 17.1725 6.60078 17.2675V17.7908ZM12.006 10.9753C12.5025 10.9753 12.9258 10.7985 13.2758 10.445C13.6258 10.0915 13.8008 9.66651 13.8008 9.17001C13.8008 8.67351 13.624 8.25026 13.2705 7.90026C12.917 7.55026 12.492 7.37526 11.9955 7.37526C11.499 7.37526 11.0758 7.55209 10.7258 7.90576C10.3758 8.25926 10.2008 8.68426 10.2008 9.18076C10.2008 9.67709 10.3775 10.1003 10.731 10.4503C11.0845 10.8003 11.5095 10.9753 12.006 10.9753Z" fill="white"/>
</svg>
