<svg width="24" height="24" viewBox="0 0 24 24" fill="none" xmlns="http://www.w3.org/2000/svg">
<g id="Gift">
<path id="Vector" d="M12 6.18752L13.455 3.8614C14.0213 2.9524 15.0188 2.40002 16.0913 2.40002H16.2C17.8575 2.40002 19.2 3.74327 19.2 5.40002C19.2 6.0754 18.975 6.69752 18.6 7.20002H19.8C20.7938 7.20002 21.6 8.00627 21.6 9.00002V11.4C21.6 12.1838 21.0975 12.8513 20.4 13.0988V19.2C20.4 20.5238 19.3238 21.6 18 21.6H6.00002C4.6744 21.6 3.60002 20.5238 3.60002 19.2V13.0988C2.90102 12.8513 2.40002 12.1838 2.40002 11.4V9.00002C2.40002 8.00627 3.2059 7.20002 4.20002 7.20002H5.39965C5.02315 6.69752 4.80002 6.0754 4.80002 5.40002C4.80002 3.74327 6.14327 2.40002 7.80002 2.40002H7.90877C8.98127 2.40002 9.97877 2.9524 10.545 3.8614L12 6.18752ZM16.0913 3.60002C15.4313 3.60002 14.82 3.93902 14.4713 4.4974L12.7838 7.20002H16.2C17.1938 7.20002 18 6.39377 18 5.40002C18 4.4059 17.1938 3.60002 16.2 3.60002H16.0913ZM11.2163 7.20002L9.52877 4.4974C9.18003 3.93902 8.56877 3.60002 7.90877 3.60002H7.80002C6.80627 3.60002 6.00002 4.4059 6.00002 5.40002C6.00002 6.39377 6.80627 7.20002 7.80002 7.20002H11.2163ZM4.20002 8.40002C3.86852 8.40002 3.60002 8.67002 3.60002 9.00002V11.4C3.60002 11.73 3.86852 12 4.20002 12H11.4V8.40002H4.20002ZM12.6 12H19.8C20.13 12 20.4 11.73 20.4 11.4V9.00002C20.4 8.67002 20.13 8.40002 19.8 8.40002H12.6V12ZM11.4 13.2H4.80002V19.2C4.80002 19.8638 5.3374 20.4 6.00002 20.4H11.4V13.2ZM12.6 20.4H18C18.6638 20.4 19.2 19.8638 19.2 19.2V13.2H12.6V20.4Z" fill="#002180"/>
</g>
</svg>
