<svg width="24" height="24" viewBox="0 0 24 24" fill="none" xmlns="http://www.w3.org/2000/svg">
<path d="M11.7885 19.971C11.8872 19.971 11.9875 19.9479 12.0895 19.9017C12.1914 19.8556 12.2718 19.803 12.3308 19.744L20.3288 11.746C20.5545 11.5203 20.7244 11.2792 20.8385 11.0227C20.9525 10.7664 21.0095 10.4972 21.0095 10.2152C21.0095 9.9229 20.9525 9.64148 20.8385 9.37098C20.7244 9.10032 20.5545 8.85732 20.3288 8.64198L16.3288 4.64198C16.1135 4.41632 15.8801 4.25123 15.6288 4.14673C15.3776 4.0424 15.1059 3.99023 14.8135 3.99023C14.5315 3.99023 14.2607 4.0424 14.001 4.14673C13.7414 4.25123 13.502 4.41632 13.2828 4.64198L12.7095 5.21523L14.5595 7.08048C14.7839 7.29465 14.9496 7.5389 15.0568 7.81323C15.1638 8.08757 15.2173 8.37215 15.2173 8.66698C15.2173 9.27732 15.0135 9.78632 14.6058 10.194C14.1981 10.6017 13.6891 10.8055 13.0788 10.8055C12.784 10.8055 12.4984 10.7567 12.222 10.6592C11.9459 10.5619 11.7007 10.4062 11.4865 10.192L9.59229 8.31323L5.24629 12.6592C5.17063 12.7349 5.11388 12.8196 5.07604 12.9132C5.03821 13.0067 5.01929 13.1029 5.01929 13.2017C5.01929 13.3862 5.08213 13.5439 5.20779 13.6747C5.33346 13.8056 5.48854 13.871 5.67304 13.871C5.77188 13.871 5.87221 13.8479 5.97404 13.8017C6.07604 13.7556 6.15654 13.703 6.21554 13.644L9.50004 10.3595L10.5538 11.4132L7.28454 14.6977C7.20904 14.7734 7.15238 14.8581 7.11454 14.9517C7.07671 15.0452 7.05779 15.1414 7.05779 15.2402C7.05779 15.4184 7.12221 15.5719 7.25104 15.7007C7.37988 15.8296 7.53338 15.894 7.71154 15.894C7.81038 15.894 7.91071 15.8709 8.01254 15.8247C8.11454 15.7786 8.19496 15.726 8.25379 15.667L11.6538 12.2825L12.7078 13.3362L9.32304 16.7362C9.25388 16.7952 9.19879 16.8757 9.15779 16.9775C9.11679 17.0795 9.09629 17.1798 9.09629 17.2785C9.09629 17.4568 9.16071 17.6104 9.28954 17.7392C9.41838 17.8681 9.57188 17.9325 9.75004 17.9325C9.84871 17.9325 9.94488 17.9136 10.0385 17.8757C10.132 17.8379 10.2166 17.7812 10.2923 17.7055L13.6923 14.321L14.7463 15.3747L11.3463 18.7747C11.2706 18.8504 11.2139 18.9382 11.176 19.0382C11.1382 19.1382 11.1193 19.2344 11.1193 19.3267C11.1193 19.5112 11.1879 19.6647 11.325 19.7872C11.4622 19.9097 11.6167 19.971 11.7885 19.971ZM11.773 21.4707C11.2077 21.4707 10.7148 21.2747 10.2943 20.8825C9.87379 20.4902 9.65396 20.0017 9.63479 19.417C9.06813 19.3785 8.59471 19.1772 8.21454 18.8132C7.83437 18.4491 7.62829 17.9708 7.59629 17.3785C7.00396 17.3402 6.52513 17.1332 6.15979 16.7575C5.79429 16.3818 5.59871 15.9093 5.57304 15.34C4.97821 15.3017 4.48721 15.086 4.10004 14.693C3.71288 14.3 3.51929 13.8029 3.51929 13.2017C3.51929 12.9069 3.57538 12.6181 3.68754 12.3352C3.79971 12.0526 3.96288 11.8042 4.17704 11.5902L9.59229 6.19023L12.5213 9.11899C12.5801 9.18815 12.6573 9.24332 12.7528 9.28448C12.8485 9.32548 12.952 9.34598 13.0635 9.34598C13.2455 9.34598 13.4025 9.28573 13.5345 9.16523C13.6667 9.04473 13.7328 8.88698 13.7328 8.69198C13.7328 8.58048 13.7123 8.47698 13.6713 8.38148C13.6301 8.28598 13.575 8.20873 13.5058 8.14973L9.99804 4.64198C9.78271 4.41632 9.54779 4.25123 9.29329 4.14673C9.03879 4.0424 8.76538 3.99023 8.47304 3.99023C8.19104 3.99023 7.92346 4.0424 7.67029 4.14673C7.41696 4.25123 7.17754 4.41632 6.95204 4.64198L3.66729 7.94198C3.48529 8.12398 3.33629 8.33907 3.22029 8.58723C3.10429 8.83523 3.03604 9.08815 3.01554 9.34598C2.99488 9.55882 3.00446 9.7694 3.04429 9.97773C3.08396 10.1861 3.15379 10.3819 3.25379 10.5652L2.15004 11.669C1.92438 11.3433 1.75454 10.9786 1.64054 10.5747C1.52638 10.1709 1.47954 9.76132 1.50004 9.34598C1.52054 8.88565 1.62438 8.44107 1.81154 8.01223C1.99871 7.5834 2.26088 7.2004 2.59804 6.86323L5.87304 3.58823C6.24754 3.22407 6.65496 2.95007 7.09529 2.76623C7.53563 2.58223 7.99813 2.49023 8.48279 2.49023C8.96729 2.49023 9.42812 2.58223 9.86529 2.76623C10.3026 2.95007 10.7033 3.22407 11.0673 3.58823L11.6405 4.16124L12.2135 3.58823C12.5879 3.22407 12.9936 2.95007 13.4308 2.76623C13.868 2.58223 14.3289 2.49023 14.8135 2.49023C15.2982 2.49023 15.7607 2.58223 16.201 2.76623C16.6414 2.95007 17.0436 3.22407 17.4078 3.58823L21.3828 7.56323C21.7468 7.9274 22.0256 8.34182 22.2193 8.80649C22.4128 9.27115 22.5095 9.74582 22.5095 10.2305C22.5095 10.7152 22.4128 11.1761 22.2193 11.6132C22.0256 12.0504 21.7468 12.451 21.3828 12.815L13.3845 20.7977C13.164 21.0182 12.9157 21.1856 12.6395 21.2997C12.3632 21.4137 12.0744 21.4707 11.773 21.4707Z" fill="#0030E3"/>
</svg>
