<svg width="20" height="20" viewBox="0 0 20 20" fill="none" xmlns="http://www.w3.org/2000/svg">
<rect width="20" height="20" fill="#1E1E1E"/>
<g id="MAY RELEASE DESIGNS">
<path d="M-2611 -919C-2611 -920.105 -2610.1 -921 -2609 -921H17907C17908.1 -921 17909 -920.105 17909 -919V11772C17909 11773.1 17908.1 11774 17907 11774H-2609C-2610.1 11774 -2611 11773.1 -2611 11772V-919Z" fill="#444444"/>
<path d="M-2609 -921V-920H17907V-921V-922H-2609V-921ZM17909 -919H17908V11772H17909H17910V-919H17909ZM17907 11774V11773H-2609V11774V11775H17907V11774ZM-2611 11772H-2610V-919H-2611H-2612V11772H-2611ZM-2609 11774V11773C-2609.55 11773 -2610 11772.6 -2610 11772H-2611H-2612C-2612 11773.7 -2610.66 11775 -2609 11775V11774ZM17909 11772H17908C17908 11772.6 17907.6 11773 17907 11773V11774V11775C17908.7 11775 17910 11773.7 17910 11772H17909ZM17907 -921V-920C17907.6 -920 17908 -919.552 17908 -919H17909H17910C17910 -920.657 17908.7 -922 17907 -922V-921ZM-2609 -921V-922C-2610.66 -922 -2612 -920.657 -2612 -919H-2611H-2610C-2610 -919.552 -2609.55 -920 -2609 -920V-921Z" fill="white" fill-opacity="0.1"/>
<g id="MZN Finance Service Catalogue (Search page)" clip-path="url(#clip0_843_3199)">
<rect width="1440" height="2178" transform="translate(-90 -130)" fill="white"/>
<g id="Frame 2147223755">
<g id="Frame 2147223761">
<g id="all_inclusive">
<mask id="mask0_843_3199" style="mask-type:alpha" maskUnits="userSpaceOnUse" x="0" y="0" width="20" height="20">
<rect id="Bounding box" width="20" height="20" fill="#D9D9D9"/>
</mask>
<g mask="url(#mask0_843_3199)">
<path id="all_inclusive_2" d="M4.5125 14.5C3.25417 14.5 2.1875 14.0641 1.3125 13.1923C0.4375 12.3205 0 11.258 0 10.0048C0 8.7516 0.4375 7.6875 1.3125 6.8125C2.18764 5.9375 3.25417 5.5 4.51208 5.5C5.01792 5.5 5.50347 5.58681 5.96875 5.76042C6.43403 5.93403 6.85417 6.1875 7.22917 6.52083L8.875 8L7.75 9L6.25 7.64583C6.01389 7.4375 5.75076 7.27778 5.46062 7.16667C5.17049 7.05556 4.86583 7 4.54667 7C3.70514 7 2.98701 7.29229 2.39229 7.87688C1.79743 8.46146 1.5 9.16979 1.5 10.0019C1.5 10.834 1.79743 11.5451 2.39229 12.1354C2.98701 12.7257 3.70514 13.0208 4.54667 13.0208C4.86583 13.0208 5.17049 12.9653 5.46062 12.8542C5.75076 12.7431 6.01389 12.5833 6.25 12.375L12.7708 6.52083C13.1458 6.20139 13.5658 5.95139 14.0308 5.77083C14.4957 5.59028 14.9811 5.5 15.4871 5.5C16.7453 5.5 17.8119 5.93715 18.6871 6.81146C19.5624 7.68576 20 8.74861 20 10C20 11.2639 19.5596 12.3299 18.6788 13.1979C17.7979 14.066 16.7244 14.5 15.4583 14.5C14.9542 14.5 14.4705 14.4132 14.0073 14.2396C13.5441 14.066 13.125 13.8125 12.75 13.4792L11.0833 11.9792L12.25 11L13.75 12.3542C13.9861 12.5625 14.2492 12.7222 14.5394 12.8333C14.8295 12.9444 15.1342 13 15.4533 13C16.2949 13 17.013 12.7077 17.6077 12.1231C18.2026 11.5385 18.5 10.8302 18.5 9.99813C18.5 9.16604 18.2026 8.45486 17.6077 7.86458C17.013 7.27431 16.2949 6.97917 15.4533 6.97917C15.1342 6.97917 14.8295 7.03472 14.5394 7.14583C14.2492 7.25694 13.9861 7.41667 13.75 7.625L7.23417 13.4775C6.85583 13.8119 6.43417 14.066 5.96917 14.2396C5.50417 14.4132 5.01861 14.5 4.5125 14.5Z" fill="#747474"/>
</g>
</g>
</g>
</g>
</g>
</g>
<defs>
<clipPath id="clip0_843_3199">
<rect width="1440" height="2178" fill="white" transform="translate(-90 -130)"/>
</clipPath>
</defs>
</svg>
