<svg width="16" height="16" viewBox="0 0 16 16" fill="none" xmlns="http://www.w3.org/2000/svg">
<mask id="mask0_7497_76871" style="mask-type:alpha" maskUnits="userSpaceOnUse" x="0" y="0" width="16" height="16">
<rect width="16" height="16" fill="#D9D9D9"/>
</mask>
<g mask="url(#mask0_7497_76871)">
<path d="M7.4001 11.2016H8.6001V7.20156H7.4001V11.2016ZM7.9966 6.00156C8.1656 6.00156 8.30843 5.9444 8.4251 5.83006C8.54176 5.71573 8.6001 5.57406 8.6001 5.40506C8.6001 5.23606 8.54293 5.09323 8.4286 4.97656C8.31426 4.8599 8.1726 4.80156 8.0036 4.80156C7.8346 4.80156 7.69176 4.85873 7.5751 4.97306C7.45843 5.0874 7.4001 5.22906 7.4001 5.39806C7.4001 5.56706 7.45726 5.7099 7.5716 5.82656C7.68593 5.94323 7.8276 6.00156 7.9966 6.00156ZM8.00476 14.4016C7.12388 14.4016 6.29454 14.2349 5.51676 13.9016C4.73899 13.5682 4.05843 13.1099 3.4751 12.5266C2.89176 11.9432 2.43343 11.2629 2.1001 10.4856C1.76676 9.70823 1.6001 8.87767 1.6001 7.9939C1.6001 7.11012 1.76676 6.28212 2.1001 5.5099C2.43343 4.73767 2.89176 4.0599 3.4751 3.47656C4.05843 2.89323 4.73876 2.4349 5.5161 2.10156C6.29343 1.76823 7.12399 1.60156 8.00776 1.60156C8.89154 1.60156 9.71954 1.76823 10.4918 2.10156C11.264 2.4349 11.9418 2.89323 12.5251 3.47656C13.1084 4.0599 13.5668 4.7389 13.9001 5.51356C14.2334 6.28834 14.4001 7.11612 14.4001 7.9969C14.4001 8.87779 14.2334 9.70712 13.9001 10.4849C13.5668 11.2627 13.1084 11.9432 12.5251 12.5266C11.9418 13.1099 11.2628 13.5682 10.4881 13.9016C9.71332 14.2349 8.88554 14.4016 8.00476 14.4016Z" fill="#747474"/>
</g>
</svg>
