<svg width="21" height="20" viewBox="0 0 21 20" fill="none" xmlns="http://www.w3.org/2000/svg">
<mask id="mask0_13899_31796" style="mask-type:alpha" maskUnits="userSpaceOnUse" x="0" y="0" width="21" height="20">
<rect x="0.25" width="20" height="20" fill="#D9D9D9"/>
</mask>
<g mask="url(#mask0_13899_31796)">
<path d="M10.25 18.5C9.29167 17.6111 8.21375 16.8889 7.01625 16.3333C5.81875 15.7778 4.56333 15.5 3.25 15.5V7.5C4.56944 7.5 5.81597 7.77083 6.98958 8.3125C8.16319 8.85417 9.25 9.58333 10.25 10.5C11.25 9.58333 12.3368 8.85417 13.5104 8.3125C14.684 7.77083 15.9306 7.5 17.25 7.5V15.5C15.9237 15.5 14.6651 15.7778 13.4742 16.3333C12.2831 16.8889 11.2083 17.6111 10.25 18.5ZM10.25 16.5208C11.0694 15.9097 11.9375 15.3889 12.8542 14.9583C13.7708 14.5278 14.7361 14.2431 15.75 14.1042V9.16667C14.6667 9.36111 13.6771 9.77431 12.7812 10.4062C11.8854 11.0382 11.0417 11.75 10.25 12.5417C9.45833 11.75 8.61458 11.0382 7.71875 10.4062C6.82292 9.77431 5.83333 9.36111 4.75 9.16667V14.1042C5.76389 14.2292 6.72917 14.5104 7.64583 14.9479C8.5625 15.3854 9.43056 15.9097 10.25 16.5208ZM10.25 8.5C9.27778 8.5 8.45139 8.15972 7.77083 7.47917C7.09028 6.79861 6.75 5.97222 6.75 5C6.75 4.02778 7.09028 3.20139 7.77083 2.52083C8.45139 1.84028 9.27778 1.5 10.25 1.5C11.2222 1.5 12.0486 1.84028 12.7292 2.52083C13.4097 3.20139 13.75 4.02778 13.75 5C13.75 5.97222 13.4097 6.79861 12.7292 7.47917C12.0486 8.15972 11.2222 8.5 10.25 8.5ZM10.25 7C10.8 7 11.2708 6.80417 11.6625 6.4125C12.0542 6.02083 12.25 5.55 12.25 5C12.25 4.45 12.0542 3.97917 11.6625 3.5875C11.2708 3.19583 10.8 3 10.25 3C9.7 3 9.22917 3.19583 8.8375 3.5875C8.44583 3.97917 8.25 4.45 8.25 5C8.25 5.55 8.44583 6.02083 8.8375 6.4125C9.22917 6.80417 9.7 7 10.25 7Z" fill="#747474"/>
</g>
</svg>
