<svg width="20" height="20" viewBox="0 0 20 20" fill="none" xmlns="http://www.w3.org/2000/svg">
<rect width="20" height="20" fill="#1E1E1E"/>
<g id="MAY RELEASE DESIGNS">
<path d="M-2921 -919C-2921 -920.105 -2920.1 -921 -2919 -921H17597C17598.1 -921 17599 -920.105 17599 -919V11772C17599 11773.1 17598.1 11774 17597 11774H-2919C-2920.1 11774 -2921 11773.1 -2921 11772V-919Z" fill="#444444"/>
<path d="M-2919 -921V-920H17597V-921V-922H-2919V-921ZM17599 -919H17598V11772H17599H17600V-919H17599ZM17597 11774V11773H-2919V11774V11775H17597V11774ZM-2921 11772H-2920V-919H-2921H-2922V11772H-2921ZM-2919 11774V11773C-2919.55 11773 -2920 11772.6 -2920 11772H-2921H-2922C-2922 11773.7 -2920.66 11775 -2919 11775V11774ZM17599 11772H17598C17598 11772.6 17597.6 11773 17597 11773V11774V11775C17598.7 11775 17600 11773.7 17600 11772H17599ZM17597 -921V-920C17597.6 -920 17598 -919.552 17598 -919H17599H17600C17600 -920.657 17598.7 -922 17597 -922V-921ZM-2919 -921V-922C-2920.66 -922 -2922 -920.657 -2922 -919H-2921H-2920C-2920 -919.552 -2919.55 -920 -2919 -920V-921Z" fill="white" fill-opacity="0.1"/>
<g id="MZN Finance Service Catalogue (Search page)" clip-path="url(#clip0_843_3199)">
<rect width="1440" height="2178" transform="translate(-400 -130)" fill="white"/>
<g id="Frame 2147223755">
<g id="Frame 2147223754">
<g id="local_library">
<mask id="mask0_843_3199" style="mask-type:alpha" maskUnits="userSpaceOnUse" x="0" y="0" width="20" height="20">
<rect id="Bounding box" width="20" height="20" fill="#D9D9D9"/>
</mask>
<g mask="url(#mask0_843_3199)">
<path id="local_library_2" d="M10 18.5C9.04167 17.6111 7.96375 16.8889 6.76625 16.3333C5.56875 15.7778 4.31333 15.5 3 15.5V7.5C4.31944 7.5 5.56597 7.77083 6.73958 8.3125C7.91319 8.85417 9 9.58333 10 10.5C11 9.58333 12.0868 8.85417 13.2604 8.3125C14.434 7.77083 15.6806 7.5 17 7.5V15.5C15.6737 15.5 14.4151 15.7778 13.2242 16.3333C12.0331 16.8889 10.9583 17.6111 10 18.5ZM10 16.5208C10.8194 15.9097 11.6875 15.3889 12.6042 14.9583C13.5208 14.5278 14.4861 14.2431 15.5 14.1042V9.16667C14.4167 9.36111 13.4271 9.77431 12.5312 10.4062C11.6354 11.0382 10.7917 11.75 10 12.5417C9.20833 11.75 8.36458 11.0382 7.46875 10.4062C6.57292 9.77431 5.58333 9.36111 4.5 9.16667V14.1042C5.51389 14.2292 6.47917 14.5104 7.39583 14.9479C8.3125 15.3854 9.18056 15.9097 10 16.5208ZM10 8.5C9.02778 8.5 8.20139 8.15972 7.52083 7.47917C6.84028 6.79861 6.5 5.97222 6.5 5C6.5 4.02778 6.84028 3.20139 7.52083 2.52083C8.20139 1.84028 9.02778 1.5 10 1.5C10.9722 1.5 11.7986 1.84028 12.4792 2.52083C13.1597 3.20139 13.5 4.02778 13.5 5C13.5 5.97222 13.1597 6.79861 12.4792 7.47917C11.7986 8.15972 10.9722 8.5 10 8.5ZM10 7C10.55 7 11.0208 6.80417 11.4125 6.4125C11.8042 6.02083 12 5.55 12 5C12 4.45 11.8042 3.97917 11.4125 3.5875C11.0208 3.19583 10.55 3 10 3C9.45 3 8.97917 3.19583 8.5875 3.5875C8.19583 3.97917 8 4.45 8 5C8 5.55 8.19583 6.02083 8.5875 6.4125C8.97917 6.80417 9.45 7 10 7Z" fill="#747474"/>
</g>
</g>
</g>
</g>
</g>
</g>
<defs>
<clipPath id="clip0_843_3199">
<rect width="1440" height="2178" fill="white" transform="translate(-400 -130)"/>
</clipPath>
</defs>
</svg>
