<svg width="20" height="20" viewBox="0 0 20 20" fill="none" xmlns="http://www.w3.org/2000/svg">
<g opacity="0.7" clip-path="url(#clip0_393_4829)">
<path d="M6.534 18.775C6.34389 18.6208 6.19008 18.4266 6.0835 18.2063C5.97692 17.9859 5.92019 17.7448 5.91733 17.5V15.75H4.584C4.20751 15.7666 3.8317 15.7046 3.48046 15.5681C3.12921 15.4315 2.81021 15.2234 2.54374 14.9569C2.27727 14.6905 2.06915 14.3715 1.93262 14.0202C1.79608 13.669 1.73412 13.2932 1.75067 12.9167V5.41667C1.73412 5.04019 1.79608 4.66438 1.93262 4.31313C2.06915 3.96188 2.27727 3.64289 2.54374 3.37641C2.81021 3.10994 3.12921 2.90182 3.48046 2.76529C3.8317 2.62875 4.20751 2.56679 4.584 2.58334H15.4173C15.7938 2.56679 16.1696 2.62875 16.5209 2.76529C16.8721 2.90182 17.1911 3.10994 17.4576 3.37641C17.7241 3.64289 17.9322 3.96188 18.0687 4.31313C18.2053 4.66438 18.2672 5.04019 18.2507 5.41667V12.9167C18.2672 13.2932 18.2053 13.669 18.0687 14.0202C17.9322 14.3715 17.7241 14.6905 17.4576 14.9569C17.1911 15.2234 16.8721 15.4315 16.5209 15.5681C16.1696 15.7046 15.7938 15.7666 15.4173 15.75H11.534L8.434 18.4667C8.21555 18.7496 7.89771 18.9388 7.5449 18.9961C7.19208 19.0533 6.8307 18.9743 6.534 18.775ZM10.6423 14.5333C10.8542 14.3465 11.1266 14.2429 11.409 14.2417H15.4173C15.5966 14.2584 15.7773 14.2353 15.9467 14.1742C16.116 14.1131 16.2698 14.0155 16.3972 13.8882C16.5245 13.7609 16.6221 13.607 16.6832 13.4377C16.7443 13.2683 16.7674 13.0876 16.7507 12.9083V5.40834C16.7674 5.22908 16.7443 5.04834 16.6832 4.87898C16.6221 4.70963 16.5245 4.55583 16.3972 4.42852C16.2698 4.30121 16.116 4.20353 15.9467 4.14243C15.7773 4.08133 15.5966 4.05831 15.4173 4.07501H4.584C4.40397 4.05812 4.22243 4.08129 4.05242 4.14287C3.88241 4.20444 3.72813 4.30289 3.60067 4.43115C3.47321 4.5594 3.37573 4.71429 3.31521 4.88468C3.2547 5.05507 3.23266 5.23675 3.25067 5.41667V12.9167C3.23397 13.0959 3.25699 13.2767 3.31809 13.446C3.37919 13.6154 3.47687 13.7692 3.60418 13.8965C3.73149 14.0238 3.88529 14.1215 4.05464 14.1826C4.224 14.2437 4.40474 14.2667 4.584 14.25H6.66733C7.25067 14.4167 7.25067 14.4167 7.41733 15V17.3583L10.6423 14.5333Z" fill="#818C99"/>
</g>
<defs>
<clipPath id="clip0_393_4829">
<rect width="20" height="20" fill="white"/>
</clipPath>
</defs>
</svg>
