<svg width="21" height="20" viewBox="0 0 21 20" fill="none" xmlns="http://www.w3.org/2000/svg">
<mask id="mask0_11594_39090" style="mask-type:alpha" maskUnits="userSpaceOnUse" x="0" y="0" width="21" height="20">
<rect x="0.25" width="20" height="20" fill="#D9D9D9"/>
</mask>
<g mask="url(#mask0_11594_39090)">
<path d="M7.52083 17C6.34028 17 5.33333 16.5833 4.5 15.75C3.66667 14.9167 3.25 13.9097 3.25 12.7292C3.25 12.2431 3.32986 11.7708 3.48958 11.3125C3.64931 10.8542 3.875 10.4375 4.16667 10.0625L6.875 6.625L5.375 3H15.125L13.6042 6.625L16.3333 10.0625C16.625 10.4375 16.8507 10.8542 17.0104 11.3125C17.1701 11.7708 17.25 12.2431 17.25 12.7292C17.25 13.9097 16.8333 14.9167 16 15.75C15.1667 16.5833 14.1597 17 12.9792 17H7.52083ZM10.25 13.25C9.76389 13.25 9.35069 13.0799 9.01042 12.7396C8.67014 12.3993 8.5 11.9861 8.5 11.5C8.5 11.0139 8.67014 10.6007 9.01042 10.2604C9.35069 9.92014 9.76389 9.75 10.25 9.75C10.7361 9.75 11.1493 9.92014 11.4896 10.2604C11.8299 10.6007 12 11.0139 12 11.5C12 11.9861 11.8299 12.3993 11.4896 12.7396C11.1493 13.0799 10.7361 13.25 10.25 13.25ZM8.25 6H12.25L12.875 4.5H7.625L8.25 6ZM7.52083 15.5H12.9792C13.7431 15.5 14.3958 15.2292 14.9375 14.6875C15.4792 14.1458 15.75 13.4931 15.75 12.7292C15.75 12.4097 15.6979 12.1042 15.5938 11.8125C15.4896 11.5208 15.3403 11.25 15.1458 11L12.3958 7.5H8.10417L5.35417 11C5.15972 11.25 5.01042 11.5208 4.90625 11.8125C4.80208 12.1042 4.75 12.4097 4.75 12.7292C4.75 13.4931 5.02083 14.1458 5.5625 14.6875C6.10417 15.2292 6.75694 15.5 7.52083 15.5Z" fill="#0030E3"/>
</g>
</svg>
