<svg width="20" height="20" viewBox="0 0 20 20" fill="none" xmlns="http://www.w3.org/2000/svg">
<rect width="20" height="20" fill="#1E1E1E"/>
<g id="MAY RELEASE DESIGNS">
<path d="M-2782 -919C-2782 -920.105 -2781.1 -921 -2780 -921H17736C17737.1 -921 17738 -920.105 17738 -919V11772C17738 11773.1 17737.1 11774 17736 11774H-2780C-2781.1 11774 -2782 11773.1 -2782 11772V-919Z" fill="#444444"/>
<path d="M-2780 -921V-920H17736V-921V-922H-2780V-921ZM17738 -919H17737V11772H17738H17739V-919H17738ZM17736 11774V11773H-2780V11774V11775H17736V11774ZM-2782 11772H-2781V-919H-2782H-2783V11772H-2782ZM-2780 11774V11773C-2780.55 11773 -2781 11772.6 -2781 11772H-2782H-2783C-2783 11773.7 -2781.66 11775 -2780 11775V11774ZM17738 11772H17737C17737 11772.6 17736.6 11773 17736 11773V11774V11775C17737.7 11775 17739 11773.7 17739 11772H17738ZM17736 -921V-920C17736.6 -920 17737 -919.552 17737 -919H17738H17739C17739 -920.657 17737.7 -922 17736 -922V-921ZM-2780 -921V-922C-2781.66 -922 -2783 -920.657 -2783 -919H-2782H-2781C-2781 -919.552 -2780.55 -920 -2780 -920V-921Z" fill="white" fill-opacity="0.1"/>
<g id="MZN Finance Service Catalogue (Search page)" clip-path="url(#clip0_843_3199)">
<rect width="1440" height="2178" transform="translate(-261 -130)" fill="white"/>
<g id="Frame 2147223755">
<g id="Frame 2147223752">
<mask id="path-3-inside-1_843_3199" fill="white">
<path d="M-10 -10H99V30H-10V-10Z"/>
</mask>
<path d="M99 30V28H-10V30V32H99V30Z" fill="#2A5EB2" mask="url(#path-3-inside-1_843_3199)"/>
<g id="money_bag">
<mask id="mask0_843_3199" style="mask-type:alpha" maskUnits="userSpaceOnUse" x="0" y="0" width="20" height="20">
<rect id="Bounding box" width="20" height="20" fill="#D9D9D9"/>
</mask>
<g mask="url(#mask0_843_3199)">
<path id="money_bag_2" d="M7.27083 17C6.09028 17 5.08333 16.5833 4.25 15.75C3.41667 14.9167 3 13.9097 3 12.7292C3 12.2431 3.07986 11.7708 3.23958 11.3125C3.39931 10.8542 3.625 10.4375 3.91667 10.0625L6.625 6.625L5.125 3H14.875L13.3542 6.625L16.0833 10.0625C16.375 10.4375 16.6007 10.8542 16.7604 11.3125C16.9201 11.7708 17 12.2431 17 12.7292C17 13.9097 16.5833 14.9167 15.75 15.75C14.9167 16.5833 13.9097 17 12.7292 17H7.27083ZM10 13.25C9.51389 13.25 9.10069 13.0799 8.76042 12.7396C8.42014 12.3993 8.25 11.9861 8.25 11.5C8.25 11.0139 8.42014 10.6007 8.76042 10.2604C9.10069 9.92014 9.51389 9.75 10 9.75C10.4861 9.75 10.8993 9.92014 11.2396 10.2604C11.5799 10.6007 11.75 11.0139 11.75 11.5C11.75 11.9861 11.5799 12.3993 11.2396 12.7396C10.8993 13.0799 10.4861 13.25 10 13.25ZM8 6H12L12.625 4.5H7.375L8 6ZM7.27083 15.5H12.7292C13.4931 15.5 14.1458 15.2292 14.6875 14.6875C15.2292 14.1458 15.5 13.4931 15.5 12.7292C15.5 12.4097 15.4479 12.1042 15.3438 11.8125C15.2396 11.5208 15.0903 11.25 14.8958 11L12.1458 7.5H7.85417L5.10417 11C4.90972 11.25 4.76042 11.5208 4.65625 11.8125C4.55208 12.1042 4.5 12.4097 4.5 12.7292C4.5 13.4931 4.77083 14.1458 5.3125 14.6875C5.85417 15.2292 6.50694 15.5 7.27083 15.5Z" fill="#2A5EB2"/>
</g>
</g>
</g>
</g>
</g>
</g>
<defs>
<clipPath id="clip0_843_3199">
<rect width="1440" height="2178" fill="white" transform="translate(-261 -130)"/>
</clipPath>
</defs>
</svg>
