<svg width="18" height="22" viewBox="0 0 18 22" fill="none" xmlns="http://www.w3.org/2000/svg">
<g id="Order">
<g id="box">
<path d="M7.6254 11C7.24581 11 6.93812 11.3743 6.93812 11.836C6.93812 12.2977 7.24581 12.672 7.6254 12.672H10.3745C10.754 12.672 11.0618 12.2977 11.0618 11.836C11.0618 11.3743 10.754 11 10.3745 11H7.6254Z" fill="#7D879C"/>
<path fill-rule="evenodd" clip-rule="evenodd" d="M3.50176 2.64001C2.36304 2.64001 1.43994 3.76288 1.43994 5.14802V16.852C1.43994 18.2372 2.36304 19.36 3.50176 19.36H14.4981C15.6368 19.36 16.5599 18.2372 16.5599 16.852V5.14802C16.5599 3.76288 15.6368 2.64001 14.4981 2.64001H3.50176ZM14.4981 4.31201H3.50176C3.12217 4.31201 2.81449 4.68629 2.81449 5.14802V7.65602H15.1854V5.14802C15.1854 4.68629 14.8777 4.31201 14.4981 4.31201ZM2.81449 16.852V9.32802H15.1854V16.852C15.1854 17.3137 14.8777 17.688 14.4981 17.688H3.50176C3.12217 17.688 2.81449 17.3137 2.81449 16.852Z" fill="#7D879C"/>
</g>
</g>
</svg>
