<svg width="24" height="25" viewBox="0 0 24 25" fill="none" xmlns="http://www.w3.org/2000/svg">
<rect width="24" height="25" fill="#1E1E1E"/>
<g id="MAY RELEASE DESIGNS">
<path d="M-1745 -4104C-1745 -4105.1 -1744.1 -4106 -1743 -4106H18773C18774.1 -4106 18775 -4105.1 18775 -4104V8587C18775 8588.1 18774.1 8589 18773 8589H-1743C-1744.1 8589 -1745 8588.1 -1745 8587V-4104Z" fill="#444444"/>
<path d="M-1743 -4106V-4105H18773V-4106V-4107H-1743V-4106ZM18775 -4104H18774V8587H18775H18776V-4104H18775ZM18773 8589V8588H-1743V8589V8590H18773V8589ZM-1745 8587H-1744V-4104H-1745H-1746V8587H-1745ZM-1743 8589V8588C-1743.55 8588 -1744 8587.55 -1744 8587H-1745H-1746C-1746 8588.66 -1744.66 8590 -1743 8590V8589ZM18775 8587H18774C18774 8587.55 18773.6 8588 18773 8588V8589V8590C18774.7 8590 18776 8588.66 18776 8587H18775ZM18773 -4106V-4105C18773.6 -4105 18774 -4104.55 18774 -4104H18775H18776C18776 -4105.66 18774.7 -4107 18773 -4107V-4106ZM-1743 -4106V-4107C-1744.66 -4107 -1746 -4105.66 -1746 -4104H-1745H-1744C-1744 -4104.55 -1743.55 -4105 -1743 -4105V-4106Z" fill="white" fill-opacity="0.1"/>
<g id="MarketPlace + Portal" clip-path="url(#clip0_843_3199)">
<rect width="1440" height="5043" transform="translate(-960 -3315)" fill="white"/>
<g id="Frame 2147223884">
<rect width="1440" height="804" transform="translate(-960 -631)" fill="#0030E3"/>
<g id="Group 289333">
<g id="pin_drop">
<mask id="mask0_843_3199" style="mask-type:alpha" maskUnits="userSpaceOnUse" x="0" y="0" width="24" height="25">
<rect id="Bounding box" y="0.435547" width="24" height="24" fill="#D9D9D9"/>
</mask>
<g mask="url(#mask0_843_3199)">
<path id="pin_drop_2" d="M12 17.4105C13.6372 15.9747 14.8798 14.5824 15.728 13.2335C16.576 11.8849 17 10.624 17 9.45105C17 7.97655 16.5333 6.77205 15.6 5.83755C14.6667 4.90288 13.4667 4.43555 12 4.43555C10.5333 4.43555 9.33333 4.90288 8.4 5.83755C7.46667 6.77205 7 7.97655 7 9.45105C7 10.624 7.424 11.8849 8.272 13.2335C9.12017 14.5824 10.3628 15.9747 12 17.4105ZM12 18.6855C10.0218 17.0675 8.52725 15.4771 7.51625 13.9143C6.50542 12.3515 6 10.8637 6 9.45105C6 7.68821 6.56025 6.24488 7.68075 5.12105C8.80125 3.99738 10.241 3.43555 12 3.43555C13.759 3.43555 15.1988 3.99738 16.3193 5.12105C17.4398 6.24488 18 7.68821 18 9.45105C18 10.8637 17.4946 12.3483 16.4837 13.9048C15.4727 15.4611 13.9782 17.0547 12 18.6855ZM12 11.051C12.4475 11.051 12.8286 10.8936 13.1432 10.5788C13.4581 10.2641 13.6155 9.88305 13.6155 9.43555C13.6155 8.98805 13.4581 8.60696 13.1432 8.2923C12.8286 7.97746 12.4475 7.82005 12 7.82005C11.5525 7.82005 11.1714 7.97746 10.8568 8.2923C10.5419 8.60696 10.3845 8.98805 10.3845 9.43555C10.3845 9.88305 10.5419 10.2641 10.8568 10.5788C11.1714 10.8936 11.5525 11.051 12 11.051ZM6 21.4355V20.4355H18V21.4355H6Z" fill="white"/>
</g>
</g>
</g>
</g>
</g>
</g>
<defs>
<clipPath id="clip0_843_3199">
<rect width="1440" height="5043" fill="white" transform="translate(-960 -3315)"/>
</clipPath>
</defs>
</svg>
