<svg width="24" height="25" viewBox="0 0 24 25" fill="none" xmlns="http://www.w3.org/2000/svg">
<path d="M11.9998 12.2742C11.1373 12.2742 10.4051 11.9732 9.80305 11.3712C9.20089 10.7691 8.8998 10.0367 8.8998 9.17422C8.8998 8.31172 9.20089 7.57947 9.80305 6.97747C10.4051 6.3753 11.1373 6.07422 11.9998 6.07422C12.8623 6.07422 13.5946 6.3753 14.1966 6.97747C14.7987 7.57947 15.0998 8.31172 15.0998 9.17422C15.0998 10.0367 14.7987 10.7691 14.1966 11.3712C13.5946 11.9732 12.8623 12.2742 11.9998 12.2742ZM5.2998 19.0897V17.2665C5.2998 16.9601 5.39114 16.665 5.5738 16.381C5.75647 16.097 6.01197 15.8511 6.3403 15.6435C7.21197 15.1423 8.12814 14.7581 9.0888 14.4907C10.0495 14.2234 11.0181 14.0897 11.9946 14.0897C12.9711 14.0897 13.9414 14.2234 14.9056 14.4907C15.8697 14.7581 16.7876 15.1423 17.6593 15.6435C17.9876 15.8345 18.2431 16.0761 18.4258 16.3685C18.6085 16.6608 18.6998 16.9601 18.6998 17.2665V19.0897H5.2998ZM6.5998 17.7897H17.3998V17.2665C17.3998 17.161 17.3618 17.0617 17.2858 16.9687C17.2096 16.8757 17.1047 16.7968 16.9711 16.732C16.2427 16.291 15.4559 15.957 14.6106 15.73C13.7651 15.5031 12.8948 15.3897 11.9998 15.3897C11.1048 15.3897 10.2346 15.5031 9.38905 15.73C8.54372 15.957 7.75689 16.291 7.02855 16.732C6.89405 16.8243 6.78897 16.9127 6.7133 16.9972C6.63764 17.0817 6.5998 17.1715 6.5998 17.2665V17.7897ZM12.0051 10.9742C12.5016 10.9742 12.9248 10.7975 13.2748 10.444C13.6248 10.0905 13.7998 9.66547 13.7998 9.16897C13.7998 8.67247 13.6231 8.24922 13.2696 7.89922C12.9161 7.54922 12.4911 7.37422 11.9946 7.37422C11.4981 7.37422 11.0748 7.55105 10.7248 7.90472C10.3748 8.25822 10.1998 8.68322 10.1998 9.17972C10.1998 9.67605 10.3766 10.0992 10.7301 10.4492C11.0836 10.7992 11.5086 10.9742 12.0051 10.9742Z" fill="white"/>
</svg>
