<svg width="20" height="20" viewBox="0 0 20 20" fill="none" xmlns="http://www.w3.org/2000/svg">
<rect width="20" height="20" fill="#1E1E1E"/>
<g id="MAY RELEASE DESIGNS">
<path d="M-3637 -919C-3637 -920.105 -3636.1 -921 -3635 -921H16881C16882.1 -921 16883 -920.105 16883 -919V11772C16883 11773.1 16882.1 11774 16881 11774H-3635C-3636.1 11774 -3637 11773.1 -3637 11772V-919Z" fill="#444444"/>
<path d="M-3635 -921V-920H16881V-921V-922H-3635V-921ZM16883 -919H16882V11772H16883H16884V-919H16883ZM16881 11774V11773H-3635V11774V11775H16881V11774ZM-3637 11772H-3636V-919H-3637H-3638V11772H-3637ZM-3635 11774V11773C-3635.55 11773 -3636 11772.6 -3636 11772H-3637H-3638C-3638 11773.7 -3636.66 11775 -3635 11775V11774ZM16883 11772H16882C16882 11772.6 16881.6 11773 16881 11773V11774V11775C16882.7 11775 16884 11773.7 16884 11772H16883ZM16881 -921V-920C16881.6 -920 16882 -919.552 16882 -919H16883H16884C16884 -920.657 16882.7 -922 16881 -922V-921ZM-3635 -921V-922C-3636.66 -922 -3638 -920.657 -3638 -919H-3637H-3636C-3636 -919.552 -3635.55 -920 -3635 -920V-921Z" fill="white" fill-opacity="0.1"/>
<g id="MZN Finance Service Catalogue (Search page)" clip-path="url(#clip0_843_3199)">
<rect width="1440" height="2178" transform="translate(-1116 -130)" fill="white"/>
<g id="Frame 2147223755">
<g id="Frame 2147223759">
<g id="rocket_launch">
<mask id="mask0_843_3199" style="mask-type:alpha" maskUnits="userSpaceOnUse" x="0" y="0" width="20" height="20">
<rect id="Bounding box" width="20" height="20" fill="#D9D9D9"/>
</mask>
<g mask="url(#mask0_843_3199)">
<path id="rocket_launch_2" d="M5.02083 8.60369L6.64583 9.14536C6.85417 8.75647 7.06944 8.37799 7.29167 8.00994C7.51389 7.64188 7.75 7.2773 8 6.91619L6.85417 6.77036L5.02083 8.60369ZM7.89583 9.95786L10.0208 12.0829C10.6875 11.7356 11.3194 11.3572 11.9167 10.9474C12.5139 10.5377 13.0764 10.069 13.6042 9.54119C14.4375 8.70786 15.1285 7.78424 15.6771 6.77036C16.2257 5.75647 16.5 4.66619 16.5 3.49952C15.3194 3.49952 14.2222 3.77036 13.2083 4.31202C12.1944 4.85369 11.2708 5.54119 10.4375 6.37452C9.90972 6.9023 9.4375 7.4648 9.02083 8.06202C8.60417 8.65925 8.22917 9.29119 7.89583 9.95786ZM11.4375 8.56202C11.1458 8.27036 11 7.91619 11 7.49952C11 7.08286 11.1458 6.72869 11.4375 6.43702C11.7292 6.14536 12.0833 5.99952 12.5 5.99952C12.9167 5.99952 13.2708 6.14536 13.5625 6.43702C13.8542 6.72869 14 7.08286 14 7.49952C14 7.91619 13.8542 8.27036 13.5625 8.56202C13.2708 8.85369 12.9167 8.99952 12.5 8.99952C12.0833 8.99952 11.7292 8.85369 11.4375 8.56202ZM11.3958 14.9787L13.2292 13.1454L13.0833 11.9995C12.7222 12.2495 12.3576 12.4856 11.9896 12.7079C11.6215 12.9301 11.2431 13.1454 10.8542 13.3537L11.3958 14.9787ZM17.7917 2.18702C18.1528 3.60369 18.0243 5.06202 17.4062 6.56202C16.7882 8.06202 15.9167 9.37452 14.7917 10.4995L14.4583 10.8537L14.7083 12.9579C14.7361 13.194 14.7118 13.4197 14.6354 13.6349C14.559 13.8502 14.4375 14.0412 14.2708 14.2079L10.7292 17.7495L9.3125 13.5204L6.5 10.687L2.25 9.27036L5.79167 5.70786C5.95833 5.54119 6.14931 5.41966 6.36458 5.34327C6.57986 5.26688 6.80556 5.24258 7.04167 5.27036L9.14583 5.54119L9.54167 5.16619C10.6667 4.04119 11.9688 3.16966 13.4479 2.55161C14.9271 1.93355 16.375 1.81202 17.7917 2.18702ZM3.70833 13.1037C4.15278 12.687 4.67708 12.4822 5.28125 12.4891C5.88542 12.4961 6.40972 12.7217 6.85417 13.1662C7.27083 13.5829 7.48264 14.0863 7.48958 14.6766C7.49653 15.2669 7.30556 15.7842 6.91667 16.2287C6.31944 16.9092 5.57292 17.3363 4.67708 17.5099C3.78125 17.6836 2.88889 17.8467 2 17.9995C2.15278 17.1245 2.3125 16.2461 2.47917 15.3641C2.64583 14.4822 3.05556 13.7287 3.70833 13.1037ZM4.64583 14.2912C4.40972 14.5273 4.25347 14.8051 4.17708 15.1245C4.10069 15.444 4.01389 15.7634 3.91667 16.0829C4.23611 15.9995 4.55208 15.9162 4.86458 15.8329C5.17708 15.7495 5.44444 15.5898 5.66667 15.3537C5.81944 15.187 5.91319 14.9926 5.94792 14.7704C5.98264 14.5481 5.92361 14.3606 5.77083 14.2079C5.61806 14.0551 5.43403 13.9926 5.21875 14.0204C5.00347 14.0481 4.8125 14.1384 4.64583 14.2912Z" fill="#747474"/>
</g>
</g>
</g>
</g>
</g>
</g>
<defs>
<clipPath id="clip0_843_3199">
<rect width="1440" height="2178" fill="white" transform="translate(-1116 -130)"/>
</clipPath>
</defs>
</svg>
