<svg width="21" height="20" viewBox="0 0 21 20" fill="none" xmlns="http://www.w3.org/2000/svg">
<mask id="mask0_13899_31857" style="mask-type:alpha" maskUnits="userSpaceOnUse" x="0" y="0" width="21" height="20">
<rect x="0.75" width="20" height="20" fill="#D9D9D9"/>
</mask>
<g mask="url(#mask0_13899_31857)">
<path d="M5.77083 8.60564L7.39583 9.14731C7.60417 8.75842 7.81944 8.37995 8.04167 8.01189C8.26389 7.64384 8.5 7.27925 8.75 6.91814L7.60417 6.77231L5.77083 8.60564ZM8.64583 9.95981L10.7708 12.0848C11.4375 11.7376 12.0694 11.3591 12.6667 10.9494C13.2639 10.5397 13.8264 10.0709 14.3542 9.54314C15.1875 8.70981 15.8785 7.7862 16.4271 6.77231C16.9757 5.75842 17.25 4.66814 17.25 3.50148C16.0694 3.50148 14.9722 3.77231 13.9583 4.31398C12.9444 4.85564 12.0208 5.54314 11.1875 6.37648C10.6597 6.90425 10.1875 7.46675 9.77083 8.06398C9.35417 8.6612 8.97917 9.29314 8.64583 9.95981ZM12.1875 8.56398C11.8958 8.27231 11.75 7.91814 11.75 7.50148C11.75 7.08481 11.8958 6.73064 12.1875 6.43898C12.4792 6.14731 12.8333 6.00148 13.25 6.00148C13.6667 6.00148 14.0208 6.14731 14.3125 6.43898C14.6042 6.73064 14.75 7.08481 14.75 7.50148C14.75 7.91814 14.6042 8.27231 14.3125 8.56398C14.0208 8.85564 13.6667 9.00148 13.25 9.00148C12.8333 9.00148 12.4792 8.85564 12.1875 8.56398ZM12.1458 14.9806L13.9792 13.1473L13.8333 12.0015C13.4722 12.2515 13.1076 12.4876 12.7396 12.7098C12.3715 12.932 11.9931 13.1473 11.6042 13.3556L12.1458 14.9806ZM18.5417 2.18898C18.9028 3.60564 18.7743 5.06398 18.1562 6.56398C17.5382 8.06398 16.6667 9.37648 15.5417 10.5015L15.2083 10.8556L15.4583 12.9598C15.4861 13.1959 15.4618 13.4216 15.3854 13.6369C15.309 13.8522 15.1875 14.0431 15.0208 14.2098L11.4792 17.7515L10.0625 13.5223L7.25 10.689L3 9.27231L6.54167 5.70981C6.70833 5.54314 6.89931 5.42161 7.11458 5.34523C7.32986 5.26884 7.55556 5.24453 7.79167 5.27231L9.89583 5.54314L10.2917 5.16814C11.4167 4.04314 12.7188 3.17161 14.1979 2.55356C15.6771 1.9355 17.125 1.81398 18.5417 2.18898ZM4.45833 13.1056C4.90278 12.689 5.42708 12.4841 6.03125 12.4911C6.63542 12.498 7.15972 12.7237 7.60417 13.1681C8.02083 13.5848 8.23264 14.0883 8.23958 14.6786C8.24653 15.2688 8.05556 15.7862 7.66667 16.2306C7.06944 16.9112 6.32292 17.3383 5.42708 17.5119C4.53125 17.6855 3.63889 17.8487 2.75 18.0015C2.90278 17.1265 3.0625 16.248 3.22917 15.3661C3.39583 14.4841 3.80556 13.7306 4.45833 13.1056ZM5.39583 14.2931C5.15972 14.5293 5.00347 14.807 4.92708 15.1265C4.85069 15.4459 4.76389 15.7654 4.66667 16.0848C4.98611 16.0015 5.30208 15.9181 5.61458 15.8348C5.92708 15.7515 6.19444 15.5918 6.41667 15.3556C6.56944 15.189 6.66319 14.9945 6.69792 14.7723C6.73264 14.5501 6.67361 14.3626 6.52083 14.2098C6.36806 14.057 6.18403 13.9945 5.96875 14.0223C5.75347 14.0501 5.5625 14.1404 5.39583 14.2931Z" fill="#747474"/>
</g>
</svg>
