<svg width="18" height="19" viewBox="0 0 18 19" fill="none" xmlns="http://www.w3.org/2000/svg">
<path d="M16.7372 16.0574L13.7159 13.045C14.6907 11.8031 15.2196 10.2696 15.2176 8.69085C15.2176 7.28486 14.8007 5.91044 14.0196 4.74141C13.2385 3.57237 12.1282 2.66121 10.8293 2.12316C9.53028 1.58511 8.10094 1.44433 6.72196 1.71863C5.34299 1.99292 4.07631 2.66997 3.08213 3.66416C2.08794 4.65835 1.41089 5.92502 1.1366 7.30399C0.862302 8.68297 1.00308 10.1123 1.54113 11.4113C2.07918 12.7102 2.99033 13.8205 4.15937 14.6016C5.32841 15.3827 6.70283 15.7997 8.10882 15.7997C9.68756 15.8016 11.2211 15.2727 12.463 14.2979L15.4753 17.3192C15.5579 17.4025 15.6562 17.4686 15.7645 17.5137C15.8728 17.5588 15.9889 17.582 16.1062 17.582C16.2236 17.582 16.3397 17.5588 16.448 17.5137C16.5563 17.4686 16.6545 17.4025 16.7372 17.3192C16.8204 17.2366 16.8865 17.1383 16.9317 17.03C16.9768 16.9217 17 16.8056 17 16.6883C17 16.571 16.9768 16.4548 16.9317 16.3465C16.8865 16.2383 16.8204 16.14 16.7372 16.0574ZM2.77721 8.69085C2.77721 7.63636 3.0899 6.60555 3.67575 5.72877C4.26159 4.85199 5.09428 4.16862 6.0685 3.76508C7.04273 3.36155 8.11474 3.25596 9.14897 3.46168C10.1832 3.66741 11.1332 4.17519 11.8788 4.92083C12.6245 5.66647 13.1323 6.61648 13.338 7.65071C13.5437 8.68494 13.4381 9.75695 13.0346 10.7312C12.6311 11.7054 11.9477 12.5381 11.0709 13.1239C10.1941 13.7098 9.16332 14.0225 8.10882 14.0225C6.69479 14.0225 5.33867 13.4607 4.3388 12.4609C3.33893 11.461 2.77721 10.1049 2.77721 8.69085Z" fill="white"/>
</svg>
