<svg width="23" height="23" viewBox="0 0 23 23" fill="none" xmlns="http://www.w3.org/2000/svg">
<g clip-path="url(#clip0_7497_77137)">
<path d="M16.875 15.075C16.1625 15.075 15.525 15.3563 15.0375 15.7969L8.35312 11.9062C8.4 11.6906 8.4375 11.475 8.4375 11.25C8.4375 11.025 8.4 10.8094 8.35312 10.5938L14.9625 6.74063C15.4688 7.20938 16.1344 7.5 16.875 7.5C18.4312 7.5 19.6875 6.24375 19.6875 4.6875C19.6875 3.13125 18.4312 1.875 16.875 1.875C15.3188 1.875 14.0625 3.13125 14.0625 4.6875C14.0625 4.9125 14.1 5.12812 14.1469 5.34375L7.5375 9.19688C7.03125 8.72813 6.36562 8.4375 5.625 8.4375C4.06875 8.4375 2.8125 9.69375 2.8125 11.25C2.8125 12.8063 4.06875 14.0625 5.625 14.0625C6.36562 14.0625 7.03125 13.7719 7.5375 13.3031L14.2125 17.2031C14.1656 17.4 14.1375 17.6063 14.1375 17.8125C14.1375 19.3219 15.3656 20.55 16.875 20.55C18.3844 20.55 19.6125 19.3219 19.6125 17.8125C19.6125 16.3031 18.3844 15.075 16.875 15.075Z" fill="#0030E3"/>
</g>
<defs>
<clipPath id="clip0_7497_77137">
<rect width="22.5" height="22.5" rx="4" fill="white"/>
</clipPath>
</defs>
</svg>
