<svg width="24" height="24" viewBox="0 0 24 24" fill="none" xmlns="http://www.w3.org/2000/svg">
<g id="share 1" clip-path="url(#clip0_866_363)">
<path id="Vector" d="M17.625 15.825C16.9125 15.825 16.275 16.1063 15.7875 16.5469L9.10312 12.6562C9.15 12.4406 9.1875 12.225 9.1875 12C9.1875 11.775 9.15 11.5594 9.10312 11.3438L15.7125 7.49063C16.2188 7.95938 16.8844 8.25 17.625 8.25C19.1812 8.25 20.4375 6.99375 20.4375 5.4375C20.4375 3.88125 19.1812 2.625 17.625 2.625C16.0688 2.625 14.8125 3.88125 14.8125 5.4375C14.8125 5.6625 14.85 5.87812 14.8969 6.09375L8.2875 9.94688C7.78125 9.47813 7.11562 9.1875 6.375 9.1875C4.81875 9.1875 3.5625 10.4438 3.5625 12C3.5625 13.5563 4.81875 14.8125 6.375 14.8125C7.11562 14.8125 7.78125 14.5219 8.2875 14.0531L14.9625 17.9531C14.9156 18.15 14.8875 18.3563 14.8875 18.5625C14.8875 20.0719 16.1156 21.3 17.625 21.3C19.1344 21.3 20.3625 20.0719 20.3625 18.5625C20.3625 17.0531 19.1344 15.825 17.625 15.825Z" fill="#002180"/>
</g>
<defs>
<clipPath id="clip0_866_363">
<rect width="22.5" height="22.5" fill="white" transform="translate(0.75 0.75)"/>
</clipPath>
</defs>
</svg>
