<svg width="20" height="20" viewBox="0 0 20 20" fill="none" xmlns="http://www.w3.org/2000/svg">
<g opacity="0.7" clip-path="url(#clip0_393_4832)">
<path d="M10.0834 6.55833V3.66667C10.085 3.45784 10.146 3.25377 10.2592 3.07831C10.3725 2.90286 10.5333 2.76327 10.723 2.67587C10.9127 2.58846 11.1233 2.55686 11.3303 2.58474C11.5372 2.61263 11.732 2.69885 11.8918 2.83333L19.3418 9.16667C19.5638 9.3557 19.7017 9.62514 19.7251 9.91579C19.7485 10.2064 19.6556 10.4945 19.4668 10.7167L19.3418 10.8417L11.8918 17.175C11.732 17.3095 11.5372 17.3957 11.3303 17.4236C11.1233 17.4515 10.9127 17.4199 10.723 17.3325C10.5333 17.2451 10.3725 17.1055 10.2592 16.93C10.146 16.7546 10.085 16.5505 10.0834 16.3417V13.4667C6.18342 13.5583 3.41676 14.375 1.84176 15.8583C1.69097 15.9979 1.49931 16.0853 1.29505 16.1077C1.09079 16.1301 0.884757 16.0862 0.707338 15.9825C0.529919 15.8789 0.390512 15.7209 0.309683 15.532C0.228855 15.3431 0.210885 15.1332 0.258424 14.9333C1.53342 9.63333 4.85009 6.8 10.0834 6.55833ZM11.5834 4.54167V8.04167H10.8334C6.41676 8.04167 3.56676 9.91667 2.17509 13.7583C4.21676 12.55 7.10842 11.9583 10.8334 11.9583H11.5834V15.4583L18.0084 10L11.5834 4.54167Z" fill="#818C99"/>
</g>
<defs>
<clipPath id="clip0_393_4832">
<rect width="20" height="20" fill="white"/>
</clipPath>
</defs>
</svg>
