<svg width="24" height="24" viewBox="0 0 24 24" fill="none" xmlns="http://www.w3.org/2000/svg">
<g id="Truck">
<path id="Union" fill-rule="evenodd" clip-rule="evenodd" d="M22.0607 11.9492L20.874 10.4208L20.875 10.4203L18.9659 6.6233C18.8577 6.40842 18.6377 6.27286 18.3972 6.27286H15.6821V5.63635C15.6821 5.28485 15.3972 5 15.0457 5H4.43949C4.08799 5 3.80314 5.28489 3.80314 5.63635C3.80314 5.98782 4.08803 6.27271 4.43949 6.27271H14.4093V10.7273C14.4093 11.0788 14.6942 11.3637 15.0457 11.3637H19.9948L20.9215 12.5575V15.8395H19.7221C19.4463 14.732 18.4433 13.909 17.2517 13.909C16.0601 13.909 15.0571 14.732 14.7813 15.8395H11.0251C10.7493 14.732 9.74633 13.909 8.55471 13.909C7.36309 13.909 6.36012 14.732 6.08433 15.8395H4.43949C4.08799 15.8395 3.80314 16.1244 3.80314 16.4758C3.80314 16.8273 4.08803 17.1122 4.43949 17.1122H6.09534C6.38597 18.1981 7.37843 19 8.55471 19C9.73098 19 10.7234 18.1981 11.0141 17.1122H14.7924C15.083 18.1981 16.0755 19 17.2517 19C18.4282 19 19.4205 18.1981 19.7111 17.1122H21.5579C21.9094 17.1122 22.1942 16.8273 22.1943 16.4758V12.3395C22.1943 12.1982 22.1472 12.0608 22.0607 11.9492ZM18.0047 7.54561L19.2845 10.091H15.6821V7.54561H18.0047ZM8.55471 17.7273C7.85281 17.7273 7.28197 17.1564 7.28197 16.4545C7.28197 15.7526 7.85281 15.1818 8.55471 15.1818C9.25642 15.1818 9.82746 15.7526 9.82746 16.4545C9.82746 17.1565 9.25662 17.7273 8.55471 17.7273ZM17.2517 17.7273C16.5498 17.7273 15.979 17.1564 15.979 16.4545C15.979 15.7526 16.5498 15.1818 17.2517 15.1818C17.9536 15.1818 18.5245 15.7526 18.5245 16.4545C18.5245 17.1565 17.9536 17.7273 17.2517 17.7273ZM3.67576 12.6157H6.60309C6.95456 12.6157 7.23945 12.9006 7.23941 13.2521C7.23941 13.6035 6.95456 13.8884 6.60305 13.8884H3.67576C3.32429 13.8884 3.0394 13.6036 3.0394 13.2521C3.0394 12.9006 3.32425 12.6157 3.67576 12.6157ZM8.06675 10.1123H2.63635C2.28489 10.1123 2 10.3972 2 10.7487C2 11.1002 2.28489 11.3851 2.63635 11.3851H8.06675C8.41825 11.3851 8.7031 11.1002 8.7031 10.7487C8.7031 10.3973 8.41825 10.1123 8.06675 10.1123ZM3.67576 7.6095H9.10615C9.45765 7.6095 9.74254 7.89439 9.7425 8.24585C9.7425 8.59732 9.45765 8.88221 9.10615 8.88221H3.67576C3.32429 8.88221 3.0394 8.59736 3.0394 8.24585C3.0394 7.89439 3.32425 7.6095 3.67576 7.6095Z" fill="#0030E3"/>
</g>
</svg>
