<svg width="18" height="21" viewBox="0 0 18 21" fill="none" xmlns="http://www.w3.org/2000/svg">
<path id="Vector" d="M9.00002 1.8C8.64872 1.8 8.30087 1.86984 7.97632 2.00553C7.65176 2.14121 7.35687 2.34009 7.10846 2.59081C6.86006 2.84153 6.66302 3.13918 6.52858 3.46675C6.39415 3.79433 6.32496 4.14543 6.32496 4.5C6.32496 4.85457 6.39415 5.20567 6.52858 5.53325C6.66302 5.86082 6.86006 6.15847 7.10846 6.40919C7.35687 6.65991 7.65176 6.85879 7.97632 6.99447C8.30087 7.13016 8.64872 7.2 9.00002 7.2C9.70949 7.2 10.3899 6.91554 10.8916 6.40919C11.3932 5.90284 11.6751 5.21608 11.6751 4.5C11.6751 3.78392 11.3932 3.09716 10.8916 2.59081C10.3899 2.08446 9.70949 1.8 9.00002 1.8ZM4.54158 4.5C4.54158 3.30653 5.01131 2.16193 5.84743 1.31802C6.68355 0.474106 7.81757 0 9.00002 0C10.1825 0 11.3165 0.474106 12.1526 1.31802C12.9887 2.16193 13.4585 3.30653 13.4585 4.5C13.4585 5.69347 12.9887 6.83807 12.1526 7.68198C11.3165 8.52589 10.1825 9 9.00002 9C7.81757 9 6.68355 8.52589 5.84743 7.68198C5.01131 6.83807 4.54158 5.69347 4.54158 4.5ZM5.80659 11.4828C5.96353 11.6004 6.16564 11.7384 6.40699 11.8752C7.01691 12.2232 7.91097 12.5832 8.99883 12.5832C10.0867 12.5832 10.9819 12.2232 11.5919 11.8752C11.8332 11.7384 12.0353 11.6004 12.1923 11.4828C12.4158 11.5428 12.6373 11.6092 12.8569 11.682L13.9982 12.06C14.8542 12.3444 15.501 13.0344 15.7317 13.8876L16.2037 17.3244C16.2928 17.9772 15.954 18.4512 15.4832 18.564C14.2384 18.864 12.1399 19.2 9.00002 19.2C5.86009 19.2 3.76046 18.864 2.51567 18.564C2.04605 18.4512 1.70721 17.9772 1.79519 17.3244L2.26718 13.8876C2.38447 13.4622 2.60424 13.0726 2.9069 12.7537C3.20957 12.4348 3.58572 12.1965 4.00181 12.06L5.14317 11.682C5.36193 11.61 5.58307 11.5436 5.80659 11.4828ZM6.65072 9.8568L6.30474 9.5124L5.8268 9.6228C5.40989 9.7188 4.99614 9.8352 4.58557 9.972L3.44421 10.35C2.73516 10.5826 2.09589 10.9924 1.5858 11.5412C1.07571 12.0901 0.711357 12.7602 0.526612 13.4892L0.514722 13.5372L0.0296443 17.0772C-0.161771 18.474 0.578924 19.9488 2.10311 20.3148C3.49415 20.6496 5.73169 21 8.99883 21C12.2672 21 14.5047 20.6496 15.8957 20.316C17.4199 19.9488 18.1618 18.474 17.9704 17.0784L17.4841 13.5384L17.4722 13.4904C17.2876 12.761 16.9231 12.0906 16.4128 11.5415C15.9025 10.9924 15.2629 10.5826 14.5534 10.35L13.4133 9.972C13.0035 9.836 12.5898 9.72 12.172 9.624L11.6941 9.5124L11.3493 9.8556L11.3481 9.8568C11.3022 9.89907 11.2546 9.9395 11.2055 9.978C11.0522 10.1009 10.8892 10.2109 10.718 10.3068C10.1953 10.6117 9.60369 10.7758 9.00002 10.7832C8.39635 10.7758 7.80473 10.6117 7.28203 10.3068C7.05742 10.1788 6.8451 10.028 6.65072 9.8568Z" fill="#7D879C"/>
</svg>
