<svg width="90" height="40" viewBox="0 0 90 40" fill="none" xmlns="http://www.w3.org/2000/svg">
<g id="Asset 10" clip-path="url(#clip0_1137_20937)">
<g id="Layer 1">
<g id="Group">
<path id="Vector" d="M5.79957 33.0874C5.79957 33.2841 5.76012 33.5791 5.70095 33.7758L2.56486 34.1791C2.72265 35.6445 3.45243 36.2052 4.24139 36.2052C4.80352 36.2052 5.54316 35.9101 5.86861 35.4577L5.97709 35.5265C5.37551 36.5396 4.46821 37.0903 3.3045 37.0903C1.68715 37.0903 0.523438 35.8806 0.523438 34.1889C0.523438 32.3694 1.82521 30.9531 3.60036 30.9531C4.96131 30.9531 5.79957 31.8186 5.79957 33.0775V33.0874ZM2.53527 33.7267L3.85677 33.5595C4.02442 33.1562 4.05401 32.8022 4.05401 32.5071C4.05401 31.6416 3.75815 31.2875 3.39326 31.2875C2.84099 31.2875 2.53527 32.4087 2.53527 33.589V33.7365V33.7267Z" fill="white"/>
<path id="Vector_2" d="M9.65527 32.2256H9.67499C10.1089 31.2716 10.7401 30.9766 11.5389 30.9766C12.5941 30.9766 13.3831 31.5077 13.3831 33.4452V34.6156C13.3831 36.2188 13.5705 36.5335 14.4284 36.7695V36.8679C13.6691 36.9662 13.0576 37.1039 12.4561 37.1039C11.6474 37.1039 11.4896 36.9957 11.4896 34.3009V33.5436C11.4896 32.0191 11.3318 31.6552 10.9275 31.6552C10.3653 31.6552 9.68485 32.3928 9.66513 33.9271V35.3434C9.66513 36.3171 9.98071 36.799 10.6415 36.9662V37.0646C9.94126 37.0646 9.30024 36.9171 8.65921 36.8187C7.99846 36.9171 7.45606 37.0646 6.75586 37.0646V36.9662C7.40675 36.799 7.7815 36.3171 7.7815 35.3434V32.9338C7.7815 31.8617 7.37716 31.6355 6.89393 31.5962V31.488C7.90971 31.4782 8.84659 30.9766 9.16217 30.9766C9.47775 30.9766 9.65527 31.0454 9.65527 31.7634V32.2158V32.2256Z" fill="white"/>
<path id="Vector_3" d="M17.6237 35.4051C17.6237 36.1723 17.7421 36.4772 18.3437 36.4772C18.6001 36.4772 18.9157 36.428 19.389 36.31L19.4285 36.4182C18.7776 36.8903 17.8999 37.1361 17.2589 37.1361C16.4206 37.1361 15.7007 36.7034 15.7007 35.6904V31.5694H14.8525L14.961 31.1366C16.174 31.0284 17.0123 29.9761 17.4955 29.2188H17.6139V31.0186H19.1622V31.5694H17.6139V35.3953L17.6237 35.4051Z" fill="white"/>
<path id="Vector_4" d="M25.2273 33.0874C25.2273 33.2841 25.1879 33.5791 25.1287 33.7758L21.9926 34.1791C22.1504 35.6445 22.8802 36.2052 23.6691 36.2052C24.2313 36.2052 24.9709 35.9101 25.2963 35.4577L25.4048 35.5265C24.8032 36.5396 23.8959 37.0903 22.7322 37.0903C21.1149 37.0903 19.9512 35.8806 19.9512 34.1889C19.9512 32.3694 21.2529 30.9531 23.0281 30.9531C24.389 30.9531 25.2273 31.8186 25.2273 33.0775V33.0874ZM21.963 33.7267L23.2845 33.5595C23.4522 33.1562 23.4817 32.8022 23.4817 32.5071C23.4817 31.6416 23.1859 31.2875 22.821 31.2875C22.2687 31.2875 21.963 32.4087 21.963 33.589V33.7365V33.7267Z" fill="white"/>
<path id="Vector_5" d="M29.0538 34.4247V35.3689C29.0538 36.3426 29.3694 36.8245 30.0301 36.9917V37.09C29.3299 37.09 28.6889 36.9425 28.0479 36.8442C27.3871 36.9425 26.8447 37.09 26.1445 37.09V36.9917C26.7954 36.8245 27.1702 36.3426 27.1702 35.3689V32.9592C27.1702 31.8872 26.7658 31.661 26.2826 31.6216V31.5135C27.2984 31.5036 28.2353 31.002 28.5508 31.002C28.8664 31.002 29.0439 31.0709 29.0439 31.7888V32.5953C29.399 31.602 30.0696 30.9922 30.7106 30.9922C31.2727 30.9922 31.6771 31.1397 31.5686 31.6512L31.1544 33.4903H30.9966C30.9966 32.438 30.6021 31.8479 30.2076 31.8479C29.6357 31.8479 29.0538 32.8019 29.0538 34.4247Z" fill="white"/>
<path id="Vector_6" d="M34.9806 32.2256H35.0003C35.4145 31.2618 36.1245 30.9766 36.9036 30.9766C38.0575 30.9766 39.2015 31.6454 39.2015 33.5731C39.2015 35.7172 37.88 37.0843 36.0358 37.0843C35.523 37.0843 35.1877 36.9761 34.9806 36.7302V38.2743C34.9806 39.2578 35.375 39.7299 36.2034 39.8971V39.9955C35.3948 39.9955 34.7044 39.848 33.9746 39.7496C33.3139 39.848 32.7715 39.9955 32.0713 39.9955V39.8971C32.7222 39.7299 33.0969 39.248 33.0969 38.2743V32.5797C33.0969 31.8814 32.5742 31.6847 32.091 31.6552V31.5372C32.8898 31.5372 33.9549 31.0159 34.4776 31.0159C34.7932 31.0159 34.9707 31.0848 34.9707 31.8027V32.2551L34.9806 32.2256ZM34.9806 34.055V34.8025C35.0003 36.1204 35.592 36.7105 36.0752 36.7105C36.7853 36.7105 37.1206 35.55 37.1206 33.6616C37.1206 32.1666 36.7261 31.6552 36.2823 31.6552C35.7301 31.6552 34.9806 32.4125 34.9806 34.055Z" fill="white"/>
<path id="Vector_7" d="M42.9981 34.4247V35.3689C42.9981 36.3426 43.3137 36.8245 43.9745 36.9917V37.09C43.2743 37.09 42.6332 36.9425 41.9922 36.8442C41.3315 36.9425 40.7891 37.09 40.0889 37.09V36.9917C40.7398 36.8245 41.1145 36.3426 41.1145 35.3689V32.9592C41.1145 31.8872 40.7102 31.661 40.2269 31.6216V31.5135C41.2427 31.5036 42.1796 31.002 42.4952 31.002C42.8108 31.002 42.9883 31.0709 42.9883 31.7888V32.5953C43.3433 31.602 44.0139 30.9922 44.6549 30.9922C45.2171 30.9922 45.6214 31.1397 45.5129 31.6512L45.0987 33.4903H44.9409C44.9409 32.438 44.5465 31.8479 44.152 31.8479C43.58 31.8479 42.9981 32.8019 42.9981 34.4247Z" fill="white"/>
<path id="Vector_8" d="M48.9942 35.3591C48.9942 36.3328 49.3098 36.8148 49.9706 36.982V37.0803C49.2704 37.0803 48.6293 36.9328 47.9883 36.8344C47.3276 36.9328 46.7852 37.0803 46.085 37.0803V36.982C46.7358 36.8148 47.1106 36.3328 47.1106 35.3591V32.9495C47.1106 31.8775 46.7063 31.6513 46.223 31.6119V31.5037C47.2388 31.4939 48.1757 30.9923 48.4913 30.9923C48.8069 30.9923 48.9844 31.0611 48.9844 31.7791V35.3591H48.9942ZM48.008 30.1858C47.3374 30.1858 46.9035 29.7727 46.9035 29.1924C46.9035 28.6122 47.3374 28.2188 48.008 28.2188C48.6786 28.2188 49.083 28.622 49.083 29.1924C49.083 29.7629 48.6688 30.1858 48.008 30.1858Z" fill="white"/>
<path id="Vector_9" d="M54.6057 31.1559C54.8227 31.1559 54.9608 31.0871 55.0002 30.9395H55.089L54.7438 33.0148H54.6057C54.6057 32.0902 53.7576 31.3919 53.0969 31.3919C52.6629 31.3919 52.4558 31.6575 52.4558 32.1099C52.4558 32.4935 52.9588 32.8279 53.8069 33.2508C54.5761 33.6344 55.2862 34.195 55.2862 34.9621C55.2862 36.2506 54.3395 37.1357 52.515 37.1357C52.3276 37.1357 50.7201 37.0767 50.8483 36.2997L51.085 34.6966H51.2034C51.3217 35.9063 51.9036 36.5948 52.7024 36.5948C53.2941 36.5948 53.7477 36.3981 53.7477 35.808C53.7477 35.3949 53.3631 35.1195 52.7517 34.8048C51.8247 34.3229 50.8976 33.8213 50.8976 32.8377C50.8976 31.4214 52.0515 30.9297 53.2842 30.9297C53.9844 30.9297 54.3888 31.1461 54.5959 31.1461L54.6057 31.1559Z" fill="white"/>
<path id="Vector_10" d="M61.6863 33.0874C61.6863 33.2841 61.6468 33.5791 61.5877 33.7758L58.4516 34.1791C58.6094 35.6445 59.3392 36.2052 60.1281 36.2052C60.6902 36.2052 61.4299 35.9101 61.7553 35.4577L61.8638 35.5265C61.2622 36.5396 60.3549 37.0903 59.1912 37.0903C57.5739 37.0903 56.4102 35.8806 56.4102 34.1889C56.4102 32.3694 57.7119 30.9531 59.4871 30.9531C60.848 30.9531 61.6863 31.8186 61.6863 33.0775V33.0874ZM58.422 33.7267L59.7435 33.5595C59.9111 33.1562 59.9407 32.8022 59.9407 32.5071C59.9407 31.6416 59.6449 31.2875 59.28 31.2875C58.7277 31.2875 58.422 32.4087 58.422 33.589V33.7365V33.7267Z" fill="white"/>
<path id="Vector_11" d="M69.4971 32.2274H69.5365C69.9704 31.2734 70.6016 30.9783 71.4004 30.9783C72.4556 30.9783 73.2347 31.5094 73.2347 33.447V34.6174C73.2347 36.2205 73.4221 36.5353 74.2801 36.7713V36.8697C73.5207 36.968 72.9093 37.1057 72.3077 37.1057C71.499 37.1057 71.3412 36.9975 71.3412 34.3027V33.5453C71.3412 32.0209 71.1835 31.657 70.7791 31.657C70.2071 31.657 69.5168 32.4241 69.5168 34.0568H69.5069V35.355C69.5069 36.3287 69.8225 36.8106 70.4833 36.9778V37.0762C69.7831 37.0762 69.142 36.9287 68.501 36.8303C67.8403 36.9287 67.2979 37.0762 66.5977 37.0762V36.9778C67.2485 36.8106 67.6233 36.3287 67.6233 35.355V29.926C67.6233 28.8539 67.1894 28.6277 66.716 28.5884V28.49C67.7318 28.4802 68.6687 27.9688 68.9842 27.9688C69.2998 27.9688 69.4971 28.0376 69.4971 28.7556V32.2274Z" fill="white"/>
<path id="Vector_12" d="M77.4852 34.5132C77.4852 36.0377 77.6528 36.3917 78.0473 36.3917C78.6193 36.3917 79.2899 35.6738 79.3195 34.1198V32.9494C79.3195 31.8774 78.9151 31.6511 78.4319 31.6118V31.5135C79.4477 31.5036 80.3846 30.9922 80.7002 30.9922C81.0157 30.9922 81.213 31.061 81.213 31.779V35.4967C81.213 36.2934 81.6765 36.5196 82.209 36.5589V36.677C81.3905 36.8442 80.3846 37.0802 79.8323 37.0802C79.497 37.0802 79.3392 37.0114 79.3392 36.2934V35.8311H79.2899C78.856 36.7852 78.2248 37.0802 77.4161 37.0802C76.3708 37.0802 75.5917 36.5491 75.5917 34.6116V32.9494C75.5917 31.8774 75.1873 31.6511 74.7041 31.6118V31.5135C75.71 31.5036 76.637 30.9922 76.9625 30.9922C77.3077 30.9922 77.4753 31.061 77.4753 31.779V34.523L77.4852 34.5132Z" fill="white"/>
<path id="Vector_13" d="M85.5324 32.2254H85.5521C85.9565 31.2714 86.6074 30.9763 87.4259 30.9763C88.5896 30.9763 89.8618 31.6156 89.8618 33.445C89.8618 35.6579 88.4614 37.0742 86.4496 37.0742C85.345 37.0742 85.2464 36.6709 84.5166 36.8283C83.8559 36.9266 83.3135 37.0742 82.6133 37.0742V36.9758C83.2642 36.8086 83.6389 36.3267 83.6389 35.353V29.8551C83.6192 28.8421 83.1951 28.6355 82.7316 28.5962V28.4978C83.7474 28.488 84.6843 27.9766 84.9999 27.9766C85.3155 27.9766 85.5127 28.0454 85.5127 28.7634V32.2352L85.5324 32.2254ZM86.7947 31.6648C86.2228 31.6648 85.5521 32.3828 85.5324 33.9367V34.8022C85.5521 36.1398 86.0748 36.7103 86.6074 36.7103C87.3766 36.7103 87.7809 35.471 87.7809 33.5433C87.7809 32.1369 87.2583 31.6549 86.7849 31.6549L86.7947 31.6648Z" fill="white"/>
<g id="Group_2">
<path id="Vector_14" d="M6.10463 3.71669C5.35513 2.26107 4.54645 1.2382 3.08688 0.844791L3.15592 0.59891C5.14803 0.59891 6.48925 0.421875 8.61943 0.421875C10.7496 0.421875 11.5977 1.16935 13.0573 4.95593L17.4952 16.4238L22.15 4.95593C23.6391 1.27754 24.3492 0.421875 25.7693 0.421875C28.077 0.421875 29.3591 0.59891 31.6668 0.59891L31.7062 0.844791C29.9705 1.30705 28.9745 2.04469 28.9745 4.31664C28.9745 4.67071 29.0139 5.06412 29.0435 5.48703L30.5721 19.0499C30.9962 22.7676 32.5247 24.1445 34.8719 24.7838L34.8324 25.0297C32.5642 25.0297 30.7496 24.8232 28.6589 24.3904C26.8443 24.7838 24.6451 25.0297 22.7614 25.0297C22.7614 24.9608 22.722 24.8527 22.722 24.7838C24.3591 24.3216 24.9902 23.4364 24.9902 21.5283C24.9902 21.1054 24.9902 20.6727 24.9212 20.1514L23.432 6.91315L15.3354 25.787H15.0198L7.59378 7.18853L6.21311 19.8662C6.17367 20.3579 6.14408 20.7907 6.14408 21.2136C6.14408 23.2987 6.81469 24.4396 8.20522 24.7543C8.20522 24.8625 8.16578 24.9313 8.16578 25.0395C6.21311 25.0395 5.32554 24.6166 4.04349 24.4002C2.6924 24.5773 1.51883 25.0395 0.0296821 25.0395C0.0296821 24.9313 -0.00976562 24.8625 -0.00976562 24.7543C2.12041 24.2232 3.60956 22.5905 3.96459 19.8662L6.10463 3.71669Z" fill="white"/>
<path id="Vector_15" d="M38.1657 25.0287L38.0967 24.7828C39.4478 23.8288 40.5819 21.9109 42.288 19.0882L50.3846 5.45655C51.0947 4.28615 51.5582 3.26328 52.1992 2.5158L45.7397 2.55514C42.3669 2.59449 42.2288 4.2173 41.4793 6.62694H41.1243C41.0848 4.74841 40.5917 2.09289 40.5227 0.0078125H40.8777C41.6963 0.784798 49.9606 0.538917 55.6805 1.07002C57.1697 0.755292 58.2347 0.538917 59.8324 0.538917L59.8718 0.784798C58.3136 2.44696 57.7417 3.83373 56.144 6.51875L47.9487 20.1504C47.2781 21.2815 46.7752 22.206 46.2131 22.9141C47.2091 22.983 48.2742 22.983 49.3393 22.983C51.075 22.983 52.8896 22.9141 54.9113 22.7764C57.288 22.5994 59.4872 20.5143 59.8817 17.3277H60.1973C59.7338 24.8713 59.6647 25.0484 54.7633 25.0484C53.6292 25.0484 47.3472 24.9795 42.7318 24.4091C40.8186 24.8713 39.931 25.0484 38.1854 25.0484L38.1657 25.0287Z" fill="white"/>
<path id="Vector_16" d="M69.4081 3.93104C68.2345 2.47542 67.061 1.23618 65.8184 0.852604L65.8874 0.606722C67.485 0.606722 68.6191 0.429688 70.3943 0.429688C72.5935 0.429688 74.5462 1.4919 75.6507 2.77048L85.1971 14.0614V5.41616C85.1971 2.6918 84.0629 1.38371 81.9328 0.882109L82.0018 0.596887C83.4909 0.596887 84.6645 1.0198 86.0156 1.19684C87.2977 0.980462 88.0077 0.596887 89.9604 0.596887L89.9998 0.882109C88.3332 1.23618 87.0905 2.6918 87.0905 5.41616V24.89H86.6961L71.4693 6.54722L71.2523 6.30134V19.8642C71.2523 22.5885 72.7119 24.3589 74.3785 24.7523L74.3391 25.0375C72.3864 25.0375 71.4988 24.6146 70.2168 24.3982C68.8657 24.5752 67.5146 25.0375 66.0255 25.0375L65.9564 24.7523C68.0866 24.2212 69.3982 22.5885 69.3982 19.8642V3.93104H69.4081Z" fill="white"/>
</g>
</g>
</g>
</g>
<defs>
<clipPath id="clip0_1137_20937">
<rect width="90" height="40" fill="white"/>
</clipPath>
</defs>
</svg>
