<svg width="31" height="13" viewBox="0 0 31 13" fill="none" xmlns="http://www.w3.org/2000/svg">
<g id="Layer 1">
<g id="Group">
<path id="Vector" d="M1.94045 10.7565C1.94045 10.8205 1.92723 10.9164 1.90741 10.9804L0.856762 11.1115C0.909625 11.588 1.15411 11.7703 1.41843 11.7703C1.60675 11.7703 1.85455 11.6744 1.96357 11.5273L1.99992 11.5497C1.79838 11.8791 1.49442 12.0582 1.10456 12.0582C0.562714 12.0582 0.172852 11.6648 0.172852 11.1147C0.172852 10.523 0.608969 10.0625 1.20367 10.0625C1.65961 10.0625 1.94045 10.3439 1.94045 10.7533V10.7565ZM0.846851 10.9644L1.28958 10.91C1.34574 10.7789 1.35565 10.6638 1.35565 10.5678C1.35565 10.2864 1.25654 10.1712 1.13429 10.1712C0.949272 10.1712 0.846851 10.5358 0.846851 10.9196V10.9676V10.9644Z" fill="white"/>
<path id="Vector_2" d="M3.23307 10.4726H3.23968C3.38505 10.1624 3.5965 10.0664 3.86412 10.0664C4.21764 10.0664 4.48195 10.2391 4.48195 10.8691V11.2497C4.48195 11.771 4.54473 11.8734 4.83217 11.9501V11.9821C4.57776 12.0141 4.37292 12.0589 4.17138 12.0589C3.90046 12.0589 3.8476 12.0237 3.8476 11.1474V10.9011C3.8476 10.4054 3.79474 10.2871 3.65928 10.2871C3.47095 10.2871 3.24298 10.5269 3.23637 11.0259V11.4864C3.23637 11.803 3.3421 11.9597 3.56346 12.0141V12.0461C3.32888 12.0461 3.11413 11.9981 2.89937 11.9661C2.67801 11.9981 2.4963 12.0461 2.26172 12.0461V12.0141C2.47978 11.9597 2.60533 11.803 2.60533 11.4864V10.7028C2.60533 10.3542 2.46987 10.2807 2.30797 10.2679V10.2327C2.64828 10.2295 2.96215 10.0664 3.06787 10.0664C3.1736 10.0664 3.23307 10.0888 3.23307 10.3223V10.4694V10.4726Z" fill="white"/>
<path id="Vector_3" d="M5.8991 11.5077C5.8991 11.7572 5.93875 11.8563 6.14029 11.8563C6.22619 11.8563 6.33192 11.8404 6.4905 11.802L6.50372 11.8372C6.28566 11.9907 5.99161 12.0706 5.77686 12.0706C5.49603 12.0706 5.25484 11.9299 5.25484 11.6005V10.2605H4.9707L5.00705 10.1197C5.41343 10.0846 5.69426 9.74235 5.85615 9.49609H5.8958V10.0814H6.41451V10.2605H5.8958V11.5045L5.8991 11.5077Z" fill="white"/>
<path id="Vector_4" d="M8.44631 10.7565C8.44631 10.8205 8.43309 10.9164 8.41327 10.9804L7.36262 11.1115C7.41548 11.588 7.65997 11.7703 7.92429 11.7703C8.11261 11.7703 8.3604 11.6744 8.46943 11.5273L8.50578 11.5497C8.30424 11.8791 8.00028 12.0582 7.61042 12.0582C7.06857 12.0582 6.67871 11.6648 6.67871 11.1147C6.67871 10.523 7.11483 10.0625 7.70953 10.0625C8.16547 10.0625 8.44631 10.3439 8.44631 10.7533V10.7565ZM7.35271 10.9644L7.79544 10.91C7.8516 10.7789 7.86151 10.6638 7.86151 10.5678C7.86151 10.2864 7.7624 10.1712 7.64015 10.1712C7.45513 10.1712 7.35271 10.5358 7.35271 10.9196V10.9676V10.9644Z" fill="white"/>
<path id="Vector_5" d="M9.73442 11.1943V11.5013C9.73442 11.8179 9.84015 11.9746 10.0615 12.029V12.061C9.82693 12.061 9.61218 12.013 9.39742 11.981C9.17606 12.013 8.99434 12.061 8.75977 12.061V12.029C8.97782 11.9746 9.10337 11.8179 9.10337 11.5013V10.7178C9.10337 10.3692 8.96791 10.2956 8.80602 10.2828V10.2476C9.14632 10.2444 9.4602 10.0813 9.56592 10.0813C9.67165 10.0813 9.73112 10.1037 9.73112 10.3372V10.5994C9.85006 10.2764 10.0747 10.0781 10.2895 10.0781C10.4778 10.0781 10.6133 10.1261 10.5769 10.2924L10.4382 10.8905H10.3853C10.3853 10.5483 10.2531 10.3564 10.121 10.3564C9.92935 10.3564 9.73442 10.6666 9.73442 11.1943Z" fill="white"/>
<path id="Vector_6" d="M11.7178 10.4726H11.7244C11.8632 10.1592 12.1011 10.0664 12.3621 10.0664C12.7486 10.0664 13.1319 10.2839 13.1319 10.9107C13.1319 11.6079 12.6892 12.0525 12.0713 12.0525C11.8995 12.0525 11.7872 12.0173 11.7178 11.9373V12.4395C11.7178 12.7593 11.85 12.9128 12.1275 12.9671V12.9991C11.8566 12.9991 11.6253 12.9512 11.3808 12.9192C11.1595 12.9512 10.9777 12.9991 10.7432 12.9991V12.9671C10.9612 12.9128 11.0868 12.7561 11.0868 12.4395V10.5877C11.0868 10.3606 10.9117 10.2967 10.7498 10.2871V10.2487C11.0174 10.2487 11.3742 10.0792 11.5493 10.0792C11.655 10.0792 11.7145 10.1016 11.7145 10.3351V10.4822L11.7178 10.4726ZM11.7178 11.0674V11.3105C11.7244 11.7391 11.9227 11.9309 12.0846 11.9309C12.3224 11.9309 12.4348 11.5536 12.4348 10.9395C12.4348 10.4534 12.3026 10.2871 12.1539 10.2871C11.9689 10.2871 11.7178 10.5333 11.7178 11.0674Z" fill="white"/>
<path id="Vector_7" d="M14.4073 11.1943V11.5013C14.4073 11.8179 14.513 11.9746 14.7344 12.029V12.061C14.4998 12.061 14.285 12.013 14.0703 11.981C13.8489 12.013 13.6672 12.061 13.4326 12.061V12.029C13.6507 11.9746 13.7762 11.8179 13.7762 11.5013V10.7178C13.7762 10.3692 13.6408 10.2956 13.4789 10.2828V10.2476C13.8192 10.2444 14.133 10.0813 14.2388 10.0813C14.3445 10.0813 14.404 10.1037 14.404 10.3372V10.5994C14.5229 10.2764 14.7476 10.0781 14.9623 10.0781C15.1507 10.0781 15.2861 10.1261 15.2498 10.2924L15.111 10.8905H15.0581C15.0581 10.5483 14.926 10.3564 14.7938 10.3564C14.6022 10.3564 14.4073 10.6666 14.4073 11.1943Z" fill="white"/>
<path id="Vector_8" d="M16.4092 11.4937C16.4092 11.8104 16.515 11.9671 16.7363 12.0214V12.0534C16.5017 12.0534 16.287 12.0055 16.0722 11.9735C15.8509 12.0055 15.6691 12.0534 15.4346 12.0534V12.0214C15.6526 11.9671 15.7782 11.8104 15.7782 11.4937V10.7102C15.7782 10.3616 15.6427 10.288 15.4808 10.2752V10.2401C15.8211 10.2369 16.135 10.0738 16.2407 10.0738C16.3465 10.0738 16.4059 10.0961 16.4059 10.3296V11.4937H16.4092ZM16.0788 9.81151C15.8542 9.81151 15.7088 9.67719 15.7088 9.48849C15.7088 9.2998 15.8542 9.17188 16.0788 9.17188C16.3035 9.17188 16.439 9.303 16.439 9.48849C16.439 9.67399 16.3002 9.81151 16.0788 9.81151Z" fill="white"/>
<path id="Vector_9" d="M18.2954 10.1243C18.3681 10.1243 18.4143 10.102 18.4276 10.054H18.4573L18.3417 10.7288H18.2954C18.2954 10.4282 18.0113 10.2011 17.7899 10.2011C17.6445 10.2011 17.5752 10.2874 17.5752 10.4346C17.5752 10.5593 17.7437 10.668 18.0278 10.8056C18.2855 10.9303 18.5234 11.1126 18.5234 11.362C18.5234 11.781 18.2062 12.0688 17.595 12.0688C17.5322 12.0688 16.9937 12.0496 17.0366 11.797L17.1159 11.2757H17.1556C17.1952 11.6691 17.3901 11.8929 17.6578 11.8929C17.856 11.8929 18.008 11.829 18.008 11.6371C18.008 11.5028 17.8791 11.4132 17.6743 11.3109C17.3637 11.1542 17.0531 10.991 17.0531 10.6712C17.0531 10.2107 17.4397 10.0508 17.8527 10.0508C18.0873 10.0508 18.2227 10.1211 18.2921 10.1211L18.2954 10.1243Z" fill="white"/>
<path id="Vector_10" d="M20.6668 10.7565C20.6668 10.8205 20.6535 10.9164 20.6337 10.9804L19.5831 11.1115C19.6359 11.588 19.8804 11.7703 20.1447 11.7703C20.3331 11.7703 20.5809 11.6744 20.6899 11.5273L20.7262 11.5497C20.5247 11.8791 20.2207 12.0582 19.8309 12.0582C19.289 12.0582 18.8992 11.6648 18.8992 11.1147C18.8992 10.523 19.3353 10.0625 19.93 10.0625C20.3859 10.0625 20.6668 10.3439 20.6668 10.7533V10.7565ZM19.5732 10.9644L20.0159 10.91C20.0721 10.7789 20.082 10.6638 20.082 10.5678C20.082 10.2864 19.9829 10.1712 19.8606 10.1712C19.6756 10.1712 19.5732 10.5358 19.5732 10.9196V10.9676V10.9644Z" fill="white"/>
<path id="Vector_11" d="M23.2858 10.4747H23.299C23.4444 10.1644 23.6558 10.0685 23.9235 10.0685C24.277 10.0685 24.538 10.2412 24.538 10.8712V11.2518C24.538 11.7731 24.6008 11.8755 24.8882 11.9522V11.9842C24.6338 12.0162 24.429 12.0609 24.2274 12.0609C23.9565 12.0609 23.9036 12.0258 23.9036 11.1495V10.9032C23.9036 10.4075 23.8508 10.2892 23.7153 10.2892C23.5237 10.2892 23.2924 10.5386 23.2924 11.0695H23.2891V11.4917C23.2891 11.8083 23.3948 11.965 23.6162 12.0194V12.0514C23.3816 12.0514 23.1669 12.0034 22.9521 11.9714C22.7307 12.0034 22.549 12.0514 22.3145 12.0514V12.0194C22.5325 11.965 22.6581 11.8083 22.6581 11.4917V9.72628C22.6581 9.37768 22.5127 9.30412 22.3541 9.29133V9.25935C22.6944 9.25615 23.0083 9.08984 23.114 9.08984C23.2197 9.08984 23.2858 9.11223 23.2858 9.3457V10.4747Z" fill="white"/>
<path id="Vector_12" d="M25.9551 11.2231C25.9551 11.7188 26.0113 11.8339 26.1435 11.8339C26.3351 11.8339 26.5598 11.6005 26.5697 11.0951V10.7146C26.5697 10.366 26.4342 10.2924 26.2723 10.2796V10.2476C26.6126 10.2444 26.9265 10.0781 27.0322 10.0781C27.1379 10.0781 27.204 10.1005 27.204 10.334V11.5429C27.204 11.8019 27.3593 11.8755 27.5377 11.8883V11.9267C27.2635 11.981 26.9265 12.0578 26.7415 12.0578C26.6291 12.0578 26.5763 12.0354 26.5763 11.8019V11.6516H26.5598C26.4144 11.9618 26.2029 12.0578 25.932 12.0578C25.5818 12.0578 25.3208 11.8851 25.3208 11.2551V10.7146C25.3208 10.366 25.1853 10.2924 25.0234 10.2796V10.2476C25.3604 10.2444 25.671 10.0781 25.78 10.0781C25.8957 10.0781 25.9518 10.1005 25.9518 10.334V11.2263L25.9551 11.2231Z" fill="white"/>
<path id="Vector_13" d="M28.6518 10.4793H28.6584C28.7939 10.169 29.0119 10.0731 29.2861 10.0731C29.676 10.0731 30.1022 10.281 30.1022 10.8758C30.1022 11.5954 29.6331 12.056 28.9591 12.056C28.589 12.056 28.556 11.9248 28.3115 11.976C28.0901 12.008 27.9084 12.056 27.6738 12.056V12.024C27.8919 11.9696 28.0174 11.8129 28.0174 11.4963V9.70851C28.0108 9.3791 27.8688 9.31193 27.7135 9.29914V9.26716C28.0538 9.26396 28.3677 9.09766 28.4734 9.09766C28.5791 9.09766 28.6452 9.12004 28.6452 9.35351V10.4825L28.6518 10.4793ZM29.0747 10.297C28.8831 10.297 28.6584 10.5304 28.6518 11.0357V11.3172C28.6584 11.7521 28.8335 11.9376 29.0119 11.9376C29.2696 11.9376 29.4051 11.5347 29.4051 10.9078C29.4051 10.4505 29.23 10.2938 29.0714 10.2938L29.0747 10.297Z" fill="white"/>
<g id="Group_2">
<path id="Vector_14" d="M2.04843 1.20811C1.79733 0.734777 1.52641 0.402167 1.03743 0.27424L1.06056 0.194286C1.72795 0.194286 2.17728 0.136719 2.89093 0.136719C3.60457 0.136719 3.88871 0.37978 4.37769 1.61108L5.86445 5.34015L7.4239 1.61108C7.92279 0.41496 8.16067 0.136719 8.63644 0.136719C9.40955 0.136719 9.83906 0.194286 10.6122 0.194286L10.6254 0.27424C10.0439 0.424554 9.71021 0.664417 9.71021 1.4032C9.71021 1.51833 9.72343 1.64626 9.73334 1.78378L10.2454 6.19406C10.3875 7.40297 10.8996 7.85071 11.686 8.05859L11.6727 8.13855C10.9128 8.13855 10.3049 8.07139 9.60448 7.93067C8.99656 8.05859 8.25979 8.13855 7.62874 8.13855C7.62874 8.11616 7.61553 8.08098 7.61553 8.05859C8.16398 7.90828 8.37543 7.62044 8.37543 7C8.37543 6.86248 8.37543 6.72176 8.3523 6.55225L7.85341 2.24751L5.14089 8.38481H5.03517L2.54732 2.33706L2.08477 6.45951C2.07156 6.61942 2.06164 6.76013 2.06164 6.89766C2.06164 7.57567 2.28631 7.94666 2.75216 8.049C2.75216 8.08418 2.73895 8.10657 2.73895 8.14175C2.08477 8.14175 1.78742 8.00422 1.35791 7.93386C0.905273 7.99143 0.512107 8.14175 0.0132157 8.14175C0.0132157 8.10657 0 8.08418 0 8.049C0.713646 7.8763 1.21254 7.3454 1.33148 6.45951L2.04843 1.20811Z" fill="white"/>
<path id="Vector_15" d="M12.7917 8.13615L12.7686 8.0562C13.2212 7.74598 13.6011 7.12233 14.1727 6.20446L16.8852 1.77179C17.1231 1.39121 17.2784 1.0586 17.4932 0.815534L15.3291 0.828327C14.1992 0.841119 14.1529 1.36882 13.9018 2.15237H13.7829C13.7696 1.54152 13.6044 0.678013 13.5813 0H13.7003C13.9745 0.252656 16.7432 0.172701 18.6594 0.345403C19.1583 0.243061 19.5152 0.172701 20.0504 0.172701L20.0636 0.252656C19.5416 0.793147 19.35 1.24409 18.8147 2.11719L16.0692 6.54986C15.8445 6.91765 15.676 7.21828 15.4877 7.44854C15.8214 7.47093 16.1782 7.47093 16.535 7.47093C17.1165 7.47093 17.7244 7.44854 18.4017 7.40377C19.198 7.3462 19.9348 6.66819 20.0669 5.63198H20.1726C20.0173 8.08498 19.9942 8.14255 18.3522 8.14255C17.9722 8.14255 15.8676 8.12016 14.3214 7.93467C13.6804 8.08498 13.3831 8.14255 12.7983 8.14255L12.7917 8.13615Z" fill="white"/>
<path id="Vector_16" d="M23.2573 1.27527C22.8641 0.801939 22.471 0.398969 22.0547 0.27424L22.0778 0.194286C22.613 0.194286 22.993 0.136719 23.5877 0.136719C24.3245 0.136719 24.9787 0.482121 25.3487 0.897884L28.5469 4.56939V1.75819C28.5469 0.872299 28.1669 0.446942 27.4533 0.283835L27.4764 0.191088C27.9753 0.191088 28.3685 0.328609 28.8211 0.386176C29.2506 0.315816 29.4885 0.191088 30.1427 0.191088L30.1559 0.283835C29.5975 0.398969 29.1812 0.872299 29.1812 1.75819V8.09057H29.0491L23.9478 2.12598L23.8751 2.04603V6.45631C23.8751 7.3422 24.3641 7.91787 24.9225 8.0458L24.9093 8.13855C24.2551 8.13855 23.9577 8.00103 23.5282 7.93067C23.0756 7.98823 22.623 8.13855 22.1241 8.13855L22.1009 8.0458C22.8146 7.8731 23.254 7.3422 23.254 6.45631V1.27527H23.2573Z" fill="white"/>
</g>
</g>
</g>
</svg>
