<svg width="20" height="20" viewBox="0 0 20 20" fill="none" xmlns="http://www.w3.org/2000/svg">
<mask id="mask0_7497_77970" style="mask-type:alpha" maskUnits="userSpaceOnUse" x="0" y="0" width="20" height="20">
<rect width="20" height="20" fill="#D9D9D9"/>
</mask>
<g mask="url(#mask0_7497_77970)">
<path d="M5.5 16C4.80556 16 4.21528 15.7569 3.72917 15.2708C3.24306 14.7847 3 14.1944 3 13.5H1V6C1 5.5875 1.14688 5.23438 1.44063 4.94063C1.73438 4.64688 2.0875 4.5 2.5 4.5H14L19 9.5V13.5H17C17 14.1944 16.7569 14.7847 16.2708 15.2708C15.7847 15.7569 15.1944 16 14.5 16C13.8056 16 13.2153 15.7569 12.7292 15.2708C12.2431 14.7847 12 14.1944 12 13.5H8C8 14.1944 7.75694 14.7847 7.27083 15.2708C6.78472 15.7569 6.19444 16 5.5 16ZM11.5 8.5H15.875L13.375 6H11.5V8.5ZM7 8.5H10V6H7V8.5ZM2.5 8.5H5.5V6H2.5V8.5ZM5.49771 14.5C5.77701 14.5 6.01389 14.4035 6.20833 14.2106C6.40278 14.0178 6.5 13.7817 6.5 13.5023C6.5 13.223 6.40354 12.9861 6.21062 12.7917C6.01785 12.5972 5.78174 12.5 5.50229 12.5C5.22299 12.5 4.98611 12.5965 4.79167 12.7894C4.59722 12.9822 4.5 13.2183 4.5 13.4977C4.5 13.777 4.59646 14.0139 4.78938 14.2083C4.98215 14.4028 5.21826 14.5 5.49771 14.5ZM14.4977 14.5C14.777 14.5 15.0139 14.4035 15.2083 14.2106C15.4028 14.0178 15.5 13.7817 15.5 13.5023C15.5 13.223 15.4035 12.9861 15.2106 12.7917C15.0178 12.5972 14.7817 12.5 14.5023 12.5C14.223 12.5 13.9861 12.5965 13.7917 12.7894C13.5972 12.9822 13.5 13.2183 13.5 13.4977C13.5 13.777 13.5965 14.0139 13.7894 14.2083C13.9822 14.4028 14.2183 14.5 14.4977 14.5ZM2.5 12H3.5C3.75 11.6806 4.04514 11.434 4.38542 11.2604C4.72569 11.0868 5.09722 11 5.5 11C5.90278 11 6.27778 11.0868 6.625 11.2604C6.97222 11.434 7.26389 11.6806 7.5 12H12.5C12.7361 11.6806 13.0278 11.434 13.375 11.2604C13.7222 11.0868 14.0972 11 14.5 11C14.9028 11 15.2743 11.0868 15.6146 11.2604C15.9549 11.434 16.25 11.6806 16.5 12H17.5V10H2.5V12Z" fill="#5C5C5C"/>
</g>
</svg>
