<svg width="20" height="20" viewBox="0 0 20 20" fill="none" xmlns="http://www.w3.org/2000/svg">
<path d="M10.0057 12.2943C10.366 12.2943 10.6706 12.1683 10.9196 11.9164C11.1685 11.6645 11.293 11.3585 11.293 10.9982C11.293 10.638 11.167 10.3333 10.9151 10.0843C10.6632 9.83538 10.3572 9.71094 9.99693 9.71094C9.63665 9.71094 9.332 9.83691 9.08297 10.0889C8.83408 10.3407 8.70964 10.6467 8.70964 11.007C8.70964 11.3673 8.83561 11.6719 9.08755 11.9209C9.33936 12.1698 9.6454 12.2943 10.0057 12.2943ZM3.75776 16.5859C3.38262 16.5859 3.06554 16.4564 2.80651 16.1974C2.54748 15.9384 2.41797 15.6213 2.41797 15.2461V6.75906C2.41797 6.38392 2.54748 6.06684 2.80651 5.80781C3.06554 5.54879 3.38262 5.41927 3.75776 5.41927H7.41797V4.17135C7.41797 3.79496 7.54769 3.4783 7.80714 3.22135C8.06644 2.96441 8.38394 2.83594 8.75964 2.83594H11.2505C11.626 2.83594 11.9423 2.96545 12.1992 3.22448C12.4562 3.48351 12.5846 3.80059 12.5846 4.17573V5.41927H16.2448C16.62 5.41927 16.9371 5.54879 17.1961 5.80781C17.4551 6.06684 17.5846 6.38392 17.5846 6.75906V15.2461C17.5846 15.6213 17.4551 15.9384 17.1961 16.1974C16.9371 16.4564 16.62 16.5859 16.2448 16.5859H3.75776ZM3.75776 15.5026H16.2448C16.309 15.5026 16.3678 15.4759 16.4211 15.4224C16.4746 15.3691 16.5013 15.3103 16.5013 15.2461V6.75906C16.5013 6.6949 16.4746 6.63615 16.4211 6.58281C16.3678 6.52934 16.309 6.5026 16.2448 6.5026H3.75776C3.69359 6.5026 3.63484 6.52934 3.58151 6.58281C3.52804 6.63615 3.5013 6.6949 3.5013 6.75906V15.2461C3.5013 15.3103 3.52804 15.3691 3.58151 15.4224C3.63484 15.4759 3.69359 15.5026 3.75776 15.5026ZM8.5013 5.41927H11.5013V4.17573C11.5013 4.11156 11.4746 4.05281 11.4211 3.99948C11.3678 3.94601 11.309 3.91927 11.2448 3.91927H8.75776C8.69359 3.91927 8.63484 3.94601 8.58151 3.99948C8.52804 4.05281 8.5013 4.11156 8.5013 4.17573V5.41927Z" fill="#344054"/>
</svg>
