<svg width="24" height="24" viewBox="0 0 24 24" fill="none" xmlns="http://www.w3.org/2000/svg">
<mask id="mask0_7497_78301" style="mask-type:alpha" maskUnits="userSpaceOnUse" x="0" y="0" width="24" height="24">
<rect width="24" height="24" fill="#D9D9D9"/>
</mask>
<g mask="url(#mask0_7497_78301)">
<path d="M7.80039 16.1984L14.4004 14.3984L16.2004 7.79844L9.60039 9.59844L7.80039 16.1984ZM12.0004 13.1984C11.6671 13.2151 11.3837 13.1044 11.1504 12.8662C10.9171 12.628 10.8004 12.3388 10.8004 11.9984C10.8004 11.6651 10.9171 11.3818 11.1504 11.1484C11.3837 10.9151 11.6671 10.7984 12.0004 10.7984C12.3337 10.7984 12.6171 10.9151 12.8504 11.1484C13.0837 11.3818 13.2004 11.6651 13.2004 11.9984C13.2004 12.3318 13.0837 12.6151 12.8504 12.8484C12.6171 13.0818 12.3337 13.1984 12.0004 13.1984ZM12.0074 21.5984C10.6861 21.5984 9.44206 21.3484 8.27539 20.8484C7.10872 20.3484 6.08789 19.6609 5.21289 18.7859C4.33789 17.9109 3.65039 16.8904 3.15039 15.7244C2.65039 14.5584 2.40039 13.3126 2.40039 11.9869C2.40039 10.6613 2.65039 9.41927 3.15039 8.26094C3.65039 7.1026 4.33789 6.08594 5.21289 5.21094C6.08789 4.33594 7.10839 3.64844 8.27439 3.14844C9.44039 2.64844 10.6862 2.39844 12.0119 2.39844C13.3376 2.39844 14.5796 2.64844 15.7379 3.14844C16.8962 3.64844 17.9129 4.33594 18.7879 5.21094C19.6629 6.08594 20.3504 7.10444 20.8504 8.26644C21.3504 9.4286 21.6004 10.6703 21.6004 11.9914C21.6004 13.3128 21.3504 14.5568 20.8504 15.7234C20.3504 16.8901 19.6629 17.9109 18.7879 18.7859C17.9129 19.6609 16.8944 20.3484 15.7324 20.8484C14.5702 21.3484 13.3286 21.5984 12.0074 21.5984Z" fill="white"/>
</g>
</svg>
