<svg width="20" height="20" viewBox="0 0 20 20" fill="none" xmlns="http://www.w3.org/2000/svg">
<mask id="mask0_7497_77960" style="mask-type:alpha" maskUnits="userSpaceOnUse" x="0" y="0" width="20" height="20">
<rect width="20" height="20" fill="#D9D9D9"/>
</mask>
<g mask="url(#mask0_7497_77960)">
<path d="M7.50229 13.5C7.22299 13.5 6.98611 13.4035 6.79167 13.2106C6.59722 13.0178 6.5 12.7817 6.5 12.5023C6.5 12.223 6.59646 11.9861 6.78938 11.7917C6.98215 11.5972 7.21826 11.5 7.49771 11.5C7.77701 11.5 8.01389 11.5965 8.20833 11.7894C8.40278 11.9822 8.5 12.2183 8.5 12.4977C8.5 12.777 8.40354 13.0139 8.21062 13.2083C8.01785 13.4028 7.78174 13.5 7.50229 13.5ZM12.5023 13.5C12.223 13.5 11.9861 13.4035 11.7917 13.2106C11.5972 13.0178 11.5 12.7817 11.5 12.5023C11.5 12.223 11.5965 11.9861 11.7894 11.7917C11.9822 11.5972 12.2183 11.5 12.4977 11.5C12.777 11.5 13.0139 11.5965 13.2083 11.7894C13.4028 11.9822 13.5 12.2183 13.5 12.4977C13.5 12.777 13.4035 13.0139 13.2106 13.2083C13.0178 13.4028 12.7817 13.5 12.5023 13.5ZM10 18.5C11.8056 18.5 13.3403 17.8681 14.6042 16.6042C15.8681 15.3403 16.5 13.8056 16.5 12C16.5 11.6528 16.4653 11.2778 16.3958 10.875C16.3264 10.4722 16.2342 10.125 16.1192 9.83333C15.8175 9.90278 15.5729 9.94792 15.3854 9.96875C15.1979 9.98958 14.9444 10 14.625 10C13.3611 10 12.1875 9.77431 11.1042 9.32292C10.0208 8.87153 9.08333 8.19444 8.29167 7.29167C7.76389 8.36111 7.11458 9.25 6.34375 9.95833C5.57292 10.6667 4.625 11.2083 3.5 11.5833V12C3.5 13.8056 4.13194 15.3403 5.39583 16.6042C6.65972 17.8681 8.19444 18.5 10 18.5ZM8.83333 5.60021C9.45833 6.47785 10.2535 7.18056 11.2188 7.70833C12.184 8.23611 13.3194 8.5 14.625 8.5C14.7778 8.5 14.9097 8.49653 15.0208 8.48958C15.1319 8.48264 15.2639 8.46528 15.4167 8.4375C14.7083 7.45139 13.9062 6.71528 13.0104 6.22917C12.1146 5.74306 11.1111 5.5 10 5.5C9.80556 5.5 9.61111 5.51042 9.41667 5.53125C9.22222 5.55208 9.02778 5.57507 8.83333 5.60021ZM3.89583 9.8125C4.57639 9.4375 5.19097 8.97222 5.73958 8.41667C6.28819 7.86111 6.74306 7.11806 7.10417 6.1875C6.28472 6.63194 5.62153 7.13542 5.11458 7.69792C4.60764 8.26042 4.20139 8.96528 3.89583 9.8125ZM2.9375 8.25C3.29861 7.54167 3.76361 6.90542 4.3325 6.34125C4.90139 5.77708 5.54056 5.30917 6.25 4.9375C6.04167 4.49306 5.73618 4.14236 5.33354 3.88542C4.93104 3.62847 4.48653 3.5 4 3.5C3.29972 3.5 2.70799 3.7416 2.22479 4.22479C1.7416 4.70799 1.5 5.29972 1.5 6C1.5 6.48653 1.62847 6.93104 1.88542 7.33354C2.14236 7.73618 2.49306 8.04167 2.9375 8.25ZM10.0058 20C8.90472 20 7.86806 19.7917 6.89583 19.375C5.92361 18.9583 5.07292 18.3854 4.34375 17.6562C3.61458 16.9271 3.04167 16.0777 2.625 15.1081C2.20833 14.1385 2 13.1025 2 12C2 11.6019 2.03125 11.2073 2.09375 10.816C2.15625 10.4248 2.24306 10.0347 2.35417 9.64583C1.63194 9.32639 1.05903 8.83819 0.635417 8.18125C0.211806 7.52431 0 6.79722 0 6C0 4.88778 0.388611 3.94306 1.16583 3.16583C1.94306 2.38861 2.88778 2 4 2C4.78792 2 5.51271 2.21181 6.17438 2.63542C6.8359 3.05903 7.32639 3.63194 7.64583 4.35417C8.03472 4.22917 8.42479 4.13889 8.81604 4.08333C9.20729 4.02778 9.60194 4 10 4C11.1111 4 12.1493 4.20833 13.1146 4.625C14.0799 5.04167 14.9271 5.61458 15.6562 6.34375C16.3854 7.07292 16.9583 7.92167 17.375 8.89C17.7917 9.85847 18 10.8932 18 11.9942C18 13.0953 17.7917 14.1319 17.375 15.1042C16.9583 16.0764 16.3854 16.9271 15.6562 17.6562C14.9271 18.3854 14.0783 18.9583 13.11 19.375C12.1415 19.7917 11.1068 20 10.0058 20Z" fill="white"/>
</g>
</svg>
