<svg width="20" height="20" viewBox="0 0 20 20" fill="none" xmlns="http://www.w3.org/2000/svg">
<path d="M11.668 2.5V5.83333C11.668 6.29357 12.0411 6.66667 12.5013 6.66667H15.8346" stroke="#4B465C" stroke-width="1.5" stroke-linecap="round" stroke-linejoin="round"/>
<path d="M11.668 2.5V5.83333C11.668 6.29357 12.0411 6.66667 12.5013 6.66667H15.8346" stroke="white" stroke-opacity="0.2" stroke-width="1.5" stroke-linecap="round" stroke-linejoin="round"/>
<path fill-rule="evenodd" clip-rule="evenodd" d="M14.168 17.5H5.83464C4.91416 17.5 4.16797 16.7538 4.16797 15.8333V4.16667C4.16797 3.24619 4.91416 2.5 5.83464 2.5H11.668L15.8346 6.66667V15.8333C15.8346 16.7538 15.0884 17.5 14.168 17.5Z" stroke="#4B465C" stroke-width="1.5" stroke-linecap="round" stroke-linejoin="round"/>
<path fill-rule="evenodd" clip-rule="evenodd" d="M14.168 17.5H5.83464C4.91416 17.5 4.16797 16.7538 4.16797 15.8333V4.16667C4.16797 3.24619 4.91416 2.5 5.83464 2.5H11.668L15.8346 6.66667V15.8333C15.8346 16.7538 15.0884 17.5 14.168 17.5Z" stroke="white" stroke-opacity="0.2" stroke-width="1.5" stroke-linecap="round" stroke-linejoin="round"/>
</svg>
