<svg width="64" height="64" viewBox="0 0 64 64" fill="none" xmlns="http://www.w3.org/2000/svg">
<mask id="mask0_4485_110430" style="mask-type:alpha" maskUnits="userSpaceOnUse" x="0" y="0" width="64" height="64">
<rect width="64" height="64" fill="#D9D9D9"/>
</mask>
<g mask="url(#mask0_4485_110430)">
<path d="M12.308 50.6663C11.0804 50.6663 10.0556 50.2552 9.23333 49.433C8.41111 48.6108 8 47.5859 8 46.3583V17.641C8 16.4135 8.41111 15.3886 9.23333 14.5663C10.0556 13.7441 11.0804 13.333 12.308 13.333H25.59L30.9233 18.6663H51.692C52.9196 18.6663 53.9444 19.0775 54.7667 19.8997C55.5889 20.7219 56 21.7468 56 22.9743V46.3583C56 47.5859 55.5889 48.6108 54.7667 49.433C53.9444 50.2552 52.9196 50.6663 51.692 50.6663H12.308ZM12.308 47.9997H51.692C52.1707 47.9997 52.564 47.8459 52.872 47.5383C53.1796 47.2303 53.3333 46.837 53.3333 46.3583V22.9743C53.3333 22.4957 53.1796 22.1023 52.872 21.7943C52.564 21.4868 52.1707 21.333 51.692 21.333H29.8513L24.518 15.9997H12.308C11.8293 15.9997 11.436 16.1535 11.128 16.461C10.8204 16.769 10.6667 17.1623 10.6667 17.641V46.3583C10.6667 46.837 10.8204 47.2303 11.128 47.5383C11.436 47.8459 11.8293 47.9997 12.308 47.9997Z" fill="#0030E3"/>
</g>
</svg>
