<svg width="16" height="14" viewBox="0 0 16 14" fill="none" xmlns="http://www.w3.org/2000/svg">
<path d="M9.42221 1.43359C9.99088 1.43359 10.3955 1.61893 10.7475 2.03293C10.7589 2.04559 11.0769 2.43959 11.1875 2.57626C11.3395 2.76359 11.6369 2.93359 11.8175 2.93359H12.0909C13.7035 2.93359 14.6662 3.97559 14.6662 5.63359V9.53359C14.6662 11.0276 13.3329 12.3336 11.8175 12.3336H4.18154C2.67021 12.3336 1.36621 11.0316 1.36621 9.53359V5.63359C1.36621 3.96959 2.29954 2.93359 3.90888 2.93359H4.18154C4.36221 2.93359 4.65954 2.76359 4.81154 2.57626C4.92221 2.44026 5.24021 2.04559 5.25154 2.03293C5.60354 1.61893 6.00821 1.43359 6.57688 1.43359H9.42221Z" stroke="#828A99" stroke-width="1.7"/>
<path d="M7.99928 9.56693C9.41681 9.56693 10.566 8.41779 10.566 7.00026C10.566 5.58273 9.41681 4.43359 7.99928 4.43359C6.58175 4.43359 5.43262 5.58273 5.43262 7.00026C5.43262 8.41779 6.58175 9.56693 7.99928 9.56693Z" stroke="#828A99" stroke-width="1.7"/>
</svg>
