<svg width="16" height="16" viewBox="0 0 16 16" fill="none" xmlns="http://www.w3.org/2000/svg">
<path d="M1.33301 7.9987C1.33301 4.3167 4.31767 1.33203 7.99967 1.33203C11.6817 1.33203 14.6663 4.3167 14.6663 7.9987C14.6663 11.6807 11.6817 14.6654 7.99967 14.6654C4.31767 14.6654 1.33301 11.6807 1.33301 7.9987ZM13.533 7.9987C13.533 6.53117 12.95 5.12374 11.9123 4.08604C10.8746 3.04834 9.46721 2.46536 7.99967 2.46536C6.53214 2.46536 5.12472 3.04834 4.08702 4.08604C3.04932 5.12374 2.46634 6.53117 2.46634 7.9987C2.46634 9.46623 3.04932 10.8737 4.08702 11.9114C5.12472 12.9491 6.53214 13.532 7.99967 13.532C9.46721 13.532 10.8746 12.9491 11.9123 11.9114C12.95 10.8737 13.533 9.46623 13.533 7.9987ZM6.16634 7.66536C5.94533 7.66536 5.73337 7.57757 5.57709 7.42129C5.42081 7.26501 5.33301 7.05305 5.33301 6.83203C5.33301 6.61102 5.42081 6.39906 5.57709 6.24278C5.73337 6.0865 5.94533 5.9987 6.16634 5.9987C6.38735 5.9987 6.59932 6.0865 6.7556 6.24278C6.91188 6.39906 6.99967 6.61102 6.99967 6.83203C6.99967 7.05305 6.91188 7.26501 6.7556 7.42129C6.59932 7.57757 6.38735 7.66536 6.16634 7.66536ZM9.83301 7.66536C9.61199 7.66536 9.40003 7.57757 9.24375 7.42129C9.08747 7.26501 8.99967 7.05305 8.99967 6.83203C8.99967 6.61102 9.08747 6.39906 9.24375 6.24278C9.40003 6.0865 9.61199 5.9987 9.83301 5.9987C10.054 5.9987 10.266 6.0865 10.4223 6.24278C10.5785 6.39906 10.6663 6.61102 10.6663 6.83203C10.6663 7.05305 10.5785 7.26501 10.4223 7.42129C10.266 7.57757 10.054 7.66536 9.83301 7.66536Z" fill="#828A99"/>
<path d="M6 9.89844C6.55533 10.4098 7.222 10.6651 8 10.6651C8.778 10.6651 9.44467 10.4098 10 9.89844" stroke="#828A99" stroke-width="1.7" stroke-linecap="round" stroke-linejoin="round"/>
</svg>
