<svg width="16" height="16" viewBox="0 0 16 16" fill="none" xmlns="http://www.w3.org/2000/svg">
<path d="M13.353 10.0196L9.7632 13.5066C8.03806 15.1822 5.28714 15.1624 3.58632 13.462C1.84524 11.7214 1.84488 8.89893 3.58551 7.15785C3.59058 7.15277 3.59567 7.14771 3.60077 7.14266L8.97848 1.81526C10.1519 0.652821 12.0455 0.661721 13.2079 1.83513C13.214 1.84127 13.2201 1.84744 13.2261 1.85364C14.3928 3.05198 14.3799 4.96548 13.197 6.14793L7.77645 11.5668C7.21117 12.1319 6.30963 12.1766 5.6912 11.6702L5.60205 11.5972C5.00555 11.1088 4.91793 10.2293 5.40635 9.63281C5.43206 9.60141 5.45912 9.57115 5.48746 9.54212L9.13235 5.80787" stroke="#828A99" stroke-width="1.8" stroke-linecap="round" stroke-linejoin="round"/>
</svg>
