<svg width="20" height="20" viewBox="0 0 20 20" fill="none" xmlns="http://www.w3.org/2000/svg">
<mask id="mask0_7497_77955" style="mask-type:alpha" maskUnits="userSpaceOnUse" x="0" y="0" width="20" height="20">
<rect width="20" height="20" fill="#D9D9D9"/>
</mask>
<g mask="url(#mask0_7497_77955)">
<path d="M4.5 17C4.0875 17 3.73437 16.8531 3.44062 16.5594C3.14687 16.2656 3 15.9125 3 15.5V12H4.5V15.5H8V17H4.5ZM15.5 17H12V15.5H15.5V12H17V15.5C17 15.9125 16.8531 16.2656 16.5594 16.5594C16.2656 16.8531 15.9125 17 15.5 17ZM3 4.5C3 4.0875 3.14687 3.73438 3.44062 3.44063C3.73437 3.14688 4.0875 3 4.5 3H8V4.5H4.5V8H3V4.5ZM17 4.5V8H15.5V4.5H12V3H15.5C15.9125 3 16.2656 3.14688 16.5594 3.44063C16.8531 3.73438 17 4.0875 17 4.5ZM10.0015 14.5C10.2644 14.5 10.4861 14.4078 10.6667 14.2235C10.8472 14.0391 10.9375 13.8134 10.9375 13.5465C10.9375 13.2794 10.8467 13.059 10.6652 12.8854C10.4837 12.7118 10.2615 12.625 9.99854 12.625C9.73563 12.625 9.51389 12.7118 9.33333 12.8854C9.15278 13.059 9.0625 13.2794 9.0625 13.5465C9.0625 13.8134 9.15326 14.0391 9.33479 14.2235C9.51632 14.4078 9.73854 14.5 10.0015 14.5ZM9.33333 11.6458H10.7083C10.7083 11.1736 10.7465 10.8472 10.8229 10.6667C10.8993 10.4861 11.1181 10.2222 11.4792 9.875C11.8958 9.47222 12.184 9.12153 12.3438 8.82292C12.5035 8.52431 12.5833 8.19444 12.5833 7.83333C12.5833 7.15278 12.3438 6.59375 11.8646 6.15625C11.3854 5.71875 10.7639 5.5 10 5.5C9.41667 5.5 8.88889 5.67014 8.41667 6.01042C7.94444 6.35069 7.61111 6.80556 7.41667 7.375L8.64583 7.89583C8.75694 7.5625 8.93403 7.29167 9.17708 7.08333C9.42014 6.875 9.69597 6.77083 10.0046 6.77083C10.3488 6.77083 10.6424 6.87847 10.8854 7.09375C11.1285 7.30903 11.25 7.56187 11.25 7.85229C11.25 8.07576 11.184 8.28125 11.0521 8.46875C10.9201 8.65625 10.6528 8.95139 10.25 9.35417C9.84722 9.75694 9.59375 10.0799 9.48958 10.3229C9.38542 10.566 9.33333 11.0069 9.33333 11.6458Z" fill="#5C5C5C"/>
</g>
</svg>
