<svg width="20" height="20" viewBox="0 0 20 20" fill="none" xmlns="http://www.w3.org/2000/svg">
<path d="M4.75776 16.5807C4.38262 16.5807 4.06554 16.4512 3.80651 16.1922C3.54748 15.9332 3.41797 15.6161 3.41797 15.2409V4.75385C3.41797 4.37872 3.54748 4.06163 3.80651 3.8026C4.06554 3.54358 4.38262 3.41406 4.75776 3.41406H10.0092V4.4974H4.75776C4.69359 4.4974 4.63484 4.52413 4.58151 4.5776C4.52804 4.63094 4.5013 4.68969 4.5013 4.75385V15.2409C4.5013 15.3051 4.52804 15.3639 4.58151 15.4172C4.63484 15.4707 4.69359 15.4974 4.75776 15.4974H10.0092V16.5807H4.75776ZM13.6936 12.8884L12.9115 12.1303L14.503 10.5391H8.08151V9.45573H14.503L12.9115 7.86448L13.6936 7.10635L16.5846 9.9974L13.6936 12.8884Z" fill="#FE322B"/>
</svg>
