<svg width="65" height="64" viewBox="0 0 65 64" fill="none" xmlns="http://www.w3.org/2000/svg">
<mask id="mask0_4485_110059" style="mask-type:alpha" maskUnits="userSpaceOnUse" x="0" y="0" width="65" height="64">
<rect x="0.667969" width="64" height="64" fill="#D9D9D9"/>
</mask>
<g mask="url(#mask0_4485_110059)">
<path d="M15.6439 53.3337C14.4164 53.3337 13.3915 52.9226 12.5693 52.1003C11.747 51.2781 11.3359 50.2532 11.3359 49.0257V14.975C11.3359 13.7474 11.747 12.7225 12.5693 11.9003C13.3915 11.0781 14.4164 10.667 15.6439 10.667H42.2079L54.0026 22.4617V49.0257C54.0026 50.2532 53.5915 51.2781 52.7693 52.1003C51.9471 52.9226 50.9222 53.3337 49.6946 53.3337H15.6439ZM15.6439 50.667H49.6946C50.1733 50.667 50.5666 50.5132 50.8746 50.2057C51.1822 49.8977 51.3359 49.5043 51.3359 49.0257V24.0003H40.6693V13.3337H15.6439C15.1653 13.3337 14.7719 13.4874 14.4639 13.795C14.1564 14.103 14.0026 14.4963 14.0026 14.975V49.0257C14.0026 49.5043 14.1564 49.8977 14.4639 50.2057C14.7719 50.5132 15.1653 50.667 15.6439 50.667ZM20.6693 42.667H44.6693V40.0003H20.6693V42.667ZM20.6693 24.0003H32.6693V21.3337H20.6693V24.0003ZM20.6693 33.3337H44.6693V30.667H20.6693V33.3337Z" fill="#0030E3"/>
</g>
</svg>
