<svg width="20" height="20" viewBox="0 0 20 20" fill="none" xmlns="http://www.w3.org/2000/svg">
<mask id="mask0_7497_72845" style="mask-type:alpha" maskUnits="userSpaceOnUse" x="0" y="0" width="20" height="20">
<rect width="20" height="20" fill="#D9D9D9"/>
</mask>
<g mask="url(#mask0_7497_72845)">
<path d="M9.99547 17.7448C9.62547 17.7448 9.31068 17.6137 9.05109 17.3513C8.79137 17.0889 8.66151 16.7735 8.66151 16.4051H11.3411C11.3411 16.7791 11.2093 17.0959 10.9457 17.3555C10.6822 17.6151 10.3655 17.7448 9.99547 17.7448ZM4.41797 15.4051V14.3219H5.25776V8.93714C5.25776 7.76089 5.62797 6.73179 6.36839 5.84984C7.10866 4.9679 8.05575 4.4345 9.20964 4.24964V3.20964C9.20964 2.98977 9.28651 2.80283 9.44026 2.6488C9.59401 2.49491 9.78068 2.41797 10.0003 2.41797C10.22 2.41797 10.407 2.49491 10.5613 2.6488C10.7157 2.80283 10.793 2.98977 10.793 3.20964V3.66797C10.6562 3.90089 10.5373 4.15193 10.4363 4.42109C10.3353 4.6904 10.2689 4.97623 10.2369 5.27859L10.1136 5.27734C10.0736 5.27707 10.0362 5.27693 10.0013 5.27693C8.98102 5.27693 8.11589 5.63193 7.40589 6.34193C6.69602 7.05179 6.34109 7.91686 6.34109 8.93714V14.3219H13.6615V9.84109C13.8389 9.86776 14.02 9.87602 14.2048 9.86589C14.3897 9.85575 14.5697 9.83415 14.7448 9.80109V14.3167H15.5846V15.4051H4.41797ZM14.0694 8.16964C13.4332 8.16964 12.8921 7.94693 12.4461 7.50151C12 7.05609 11.7769 6.51519 11.7769 5.8788C11.7769 5.24255 11.9996 4.70137 12.4451 4.25526C12.8905 3.80929 13.4313 3.5863 14.0676 3.5863C14.7039 3.5863 15.2451 3.80901 15.6911 4.25443C16.1372 4.69984 16.3603 5.24068 16.3603 5.87693C16.3603 6.51332 16.1376 7.0545 15.6921 7.50047C15.2467 7.94658 14.7058 8.16964 14.0694 8.16964Z" fill="#344054"/>
</g>
</svg>
