<svg width="24" height="24" viewBox="0 0 24 24" fill="none" xmlns="http://www.w3.org/2000/svg">
<mask id="mask0_7497_78317" style="mask-type:alpha" maskUnits="userSpaceOnUse" x="0" y="0" width="24" height="24">
<rect width="24" height="24" fill="#D9D9D9"/>
</mask>
<g mask="url(#mask0_7497_78317)">
<path d="M11.9965 21.3845C11.5513 21.3845 11.1714 21.2263 10.8568 20.91C10.5419 20.5937 10.3845 20.2134 10.3845 19.7693H13.6155C13.6155 20.2168 13.4569 20.5978 13.1398 20.9125C12.8228 21.2272 12.4417 21.3845 11.9965 21.3845ZM5 18.7693V17.7693H6.6155V9.84625C6.6155 8.53975 7.02892 7.39067 7.85575 6.399C8.68275 5.40733 9.73083 4.78975 11 4.54625V4C11 3.72217 11.097 3.48608 11.291 3.29175C11.485 3.09725 11.7206 3 11.9978 3C12.2749 3 12.5113 3.09725 12.7068 3.29175C12.9023 3.48608 13 3.72217 13 4V4.075C12.8552 4.30067 12.7283 4.52825 12.6193 4.75775C12.5103 4.98725 12.4257 5.2315 12.3655 5.4905C12.3045 5.48267 12.2451 5.47592 12.1872 5.47025C12.1294 5.46442 12.067 5.4615 12 5.4615C10.7847 5.4615 9.75008 5.88842 8.89625 6.74225C8.04242 7.59608 7.6155 8.63075 7.6155 9.84625V17.7693H16.3845V11.6905C16.5435 11.7212 16.7073 11.7452 16.876 11.7625C17.0445 11.7798 17.214 11.7821 17.3845 11.7692V17.7693H19V18.7693H5ZM16.9638 9.40375C16.2699 9.40375 15.6794 9.16092 15.1923 8.67525C14.7051 8.18958 14.4615 7.59983 14.4615 6.906C14.4615 6.21233 14.7043 5.62183 15.19 5.1345C15.6757 4.64733 16.2654 4.40375 16.9593 4.40375C17.6531 4.40375 18.2436 4.64658 18.7308 5.13225C19.2179 5.61792 19.4615 6.20767 19.4615 6.9015C19.4615 7.59533 19.2187 8.18583 18.733 8.673C18.2473 9.16017 17.6576 9.40375 16.9638 9.40375Z" fill="#1C1B1F"/>
</g>
</svg>
