<svg width="64" height="64" viewBox="0 0 64 64" fill="none" xmlns="http://www.w3.org/2000/svg">
<mask id="mask0_4485_110120" style="mask-type:alpha" maskUnits="userSpaceOnUse" x="0" y="0" width="64" height="64">
<rect width="64" height="64" fill="#D9D9D9"/>
</mask>
<g mask="url(#mask0_4485_110120)">
<path d="M14.976 53.3337C13.7484 53.3337 12.7235 52.9226 11.9013 52.1003C11.0791 51.2781 10.668 50.2532 10.668 49.0257V14.975C10.668 13.7474 11.0791 12.7225 11.9013 11.9003C12.7235 11.0781 13.7484 10.667 14.976 10.667H49.0266C50.2542 10.667 51.2791 11.0781 52.1013 11.9003C52.9235 12.7225 53.3346 13.7474 53.3346 14.975V49.0257C53.3346 50.2532 52.9235 51.2781 52.1013 52.1003C51.2791 52.9226 50.2542 53.3337 49.0266 53.3337H14.976ZM14.976 50.667H49.0266C49.4373 50.667 49.8135 50.4961 50.1553 50.1543C50.4971 49.8125 50.668 49.4363 50.668 49.0257V14.975C50.668 14.5643 50.4971 14.1881 50.1553 13.8463C49.8135 13.5045 49.4373 13.3337 49.0266 13.3337H14.976C14.5653 13.3337 14.1891 13.5045 13.8473 13.8463C13.5055 14.1881 13.3346 14.5643 13.3346 14.975V49.0257C13.3346 49.4363 13.5055 49.8125 13.8473 50.1543C14.1891 50.4961 14.5653 50.667 14.976 50.667ZM20.0013 44.0003H44.4113L36.8733 33.949L29.8986 42.7697L25.232 37.1283L20.0013 44.0003Z" fill="#0030E3"/>
</g>
</svg>
