<svg width="36" height="36" viewBox="0 0 36 36" fill="none" xmlns="http://www.w3.org/2000/svg">
<mask id="mask0_4485_110632" style="mask-type:alpha" maskUnits="userSpaceOnUse" x="0" y="0" width="36" height="36">
<rect width="36" height="36" fill="#D9D9D9"/>
</mask>
<g mask="url(#mask0_4485_110632)">
<path d="M12.9806 18.5768H14.1345V15.5767H15.9806C16.3096 15.5767 16.5843 15.4668 16.8045 15.2468C17.0245 15.0265 17.1345 14.752 17.1345 14.4233V12.5767C17.1345 12.248 17.0245 11.9735 16.8045 11.7532C16.5843 11.5332 16.3096 11.4233 15.9806 11.4233H12.9806V18.5768ZM14.1345 14.4233V12.5767H15.9806V14.4233H14.1345ZM18.6923 18.5768H21.5768C21.9058 18.5768 22.1804 18.4668 22.4006 18.2467C22.6206 18.0265 22.7306 17.752 22.7306 17.4233V12.5767C22.7306 12.248 22.6206 11.9735 22.4006 11.7532C22.1804 11.5332 21.9058 11.4233 21.5768 11.4233H18.6923V18.5768ZM19.8461 17.4233V12.5767H21.5768V17.4233H19.8461ZM24.5768 18.5768H25.7306V15.5767H27.8078V14.4233H25.7306V12.5767H27.8078V11.4233H24.5768V18.5768ZM12.1733 25.5C11.4827 25.5 10.9062 25.2688 10.4438 24.8063C9.98125 24.3438 9.75 23.7673 9.75 23.0768V6.92325C9.75 6.23275 9.98125 5.65625 10.4438 5.19375C10.9062 4.73125 11.4827 4.5 12.1733 4.5H28.3268C29.0173 4.5 29.5938 4.73125 30.0563 5.19375C30.5188 5.65625 30.75 6.23275 30.75 6.92325V23.0768C30.75 23.7673 30.5188 24.3438 30.0563 24.8063C29.5938 25.2688 29.0173 25.5 28.3268 25.5H12.1733ZM12.1733 24H28.3268C28.5578 24 28.7694 23.9039 28.9616 23.7116C29.1539 23.5194 29.25 23.3078 29.25 23.0768V6.92325C29.25 6.69225 29.1539 6.48063 28.9616 6.28838C28.7694 6.09613 28.5578 6 28.3268 6H12.1733C11.9422 6 11.7306 6.09613 11.5384 6.28838C11.3461 6.48063 11.25 6.69225 11.25 6.92325V23.0768C11.25 23.3078 11.3461 23.5194 11.5384 23.7116C11.7306 23.9039 11.9422 24 12.1733 24ZM7.67325 30C6.98275 30 6.40625 29.7688 5.94375 29.3063C5.48125 28.8438 5.25 28.2674 5.25 27.5771V9.92325H6.75V27.5771C6.75 27.8079 6.84613 28.0194 7.03838 28.2116C7.23063 28.4039 7.44225 28.5 7.67325 28.5H25.3268V30H7.67325Z" fill="#0030E3"/>
</g>
</svg>
