<svg width="20" height="20" viewBox="0 0 20 20" fill="none" xmlns="http://www.w3.org/2000/svg">
<mask id="mask0_7497_77965" style="mask-type:alpha" maskUnits="userSpaceOnUse" x="0" y="0" width="20" height="20">
<rect width="20" height="20" fill="#D9D9D9"/>
</mask>
<g mask="url(#mask0_7497_77965)">
<path d="M5.02083 8.60564L6.64583 9.14731C6.85417 8.75842 7.06944 8.37995 7.29167 8.01189C7.51389 7.64384 7.75 7.27925 8 6.91814L6.85417 6.77231L5.02083 8.60564ZM7.89583 9.95981L10.0208 12.0848C10.6875 11.7376 11.3194 11.3591 11.9167 10.9494C12.5139 10.5397 13.0764 10.0709 13.6042 9.54314C14.4375 8.70981 15.1285 7.7862 15.6771 6.77231C16.2257 5.75842 16.5 4.66814 16.5 3.50148C15.3194 3.50148 14.2222 3.77231 13.2083 4.31398C12.1944 4.85564 11.2708 5.54314 10.4375 6.37648C9.90972 6.90425 9.4375 7.46675 9.02083 8.06398C8.60417 8.6612 8.22917 9.29314 7.89583 9.95981ZM11.4375 8.56398C11.1458 8.27231 11 7.91814 11 7.50148C11 7.08481 11.1458 6.73064 11.4375 6.43898C11.7292 6.14731 12.0833 6.00148 12.5 6.00148C12.9167 6.00148 13.2708 6.14731 13.5625 6.43898C13.8542 6.73064 14 7.08481 14 7.50148C14 7.91814 13.8542 8.27231 13.5625 8.56398C13.2708 8.85564 12.9167 9.00148 12.5 9.00148C12.0833 9.00148 11.7292 8.85564 11.4375 8.56398ZM11.3958 14.9806L13.2292 13.1473L13.0833 12.0015C12.7222 12.2515 12.3576 12.4876 11.9896 12.7098C11.6215 12.932 11.2431 13.1473 10.8542 13.3556L11.3958 14.9806ZM17.7917 2.18898C18.1528 3.60564 18.0243 5.06398 17.4062 6.56398C16.7882 8.06398 15.9167 9.37648 14.7917 10.5015L14.4583 10.8556L14.7083 12.9598C14.7361 13.1959 14.7118 13.4216 14.6354 13.6369C14.559 13.8522 14.4375 14.0431 14.2708 14.2098L10.7292 17.7515L9.3125 13.5223L6.5 10.689L2.25 9.27231L5.79167 5.70981C5.95833 5.54314 6.14931 5.42161 6.36458 5.34523C6.57986 5.26884 6.80556 5.24453 7.04167 5.27231L9.14583 5.54314L9.54167 5.16814C10.6667 4.04314 11.9688 3.17161 13.4479 2.55356C14.9271 1.9355 16.375 1.81398 17.7917 2.18898ZM3.70833 13.1056C4.15278 12.689 4.67708 12.4841 5.28125 12.4911C5.88542 12.498 6.40972 12.7237 6.85417 13.1681C7.27083 13.5848 7.48264 14.0883 7.48958 14.6786C7.49653 15.2688 7.30556 15.7862 6.91667 16.2306C6.31944 16.9112 5.57292 17.3383 4.67708 17.5119C3.78125 17.6855 2.88889 17.8487 2 18.0015C2.15278 17.1265 2.3125 16.248 2.47917 15.3661C2.64583 14.4841 3.05556 13.7306 3.70833 13.1056ZM4.64583 14.2931C4.40972 14.5293 4.25347 14.807 4.17708 15.1265C4.10069 15.4459 4.01389 15.7654 3.91667 16.0848C4.23611 16.0015 4.55208 15.9181 4.86458 15.8348C5.17708 15.7515 5.44444 15.5918 5.66667 15.3556C5.81944 15.189 5.91319 14.9945 5.94792 14.7723C5.98264 14.5501 5.92361 14.3626 5.77083 14.2098C5.61806 14.057 5.43403 13.9945 5.21875 14.0223C5.00347 14.0501 4.8125 14.1404 4.64583 14.2931Z" fill="#5C5C5C"/>
</g>
</svg>
