<svg width="16" height="17" viewBox="0 0 16 17" fill="none" xmlns="http://www.w3.org/2000/svg">
<path d="M7.68323 2.02863C7.71245 1.9696 7.75758 1.91992 7.81353 1.88518C7.86949 1.85044 7.93404 1.83203 7.9999 1.83203C8.06576 1.83203 8.13031 1.85044 8.18626 1.88518C8.24222 1.91992 8.28735 1.9696 8.31656 2.02863L9.85656 5.14796C9.95802 5.35327 10.1078 5.5309 10.293 5.6656C10.4782 5.80029 10.6933 5.88804 10.9199 5.92129L14.3639 6.42529C14.4292 6.43475 14.4905 6.46227 14.5409 6.50476C14.5913 6.54724 14.6289 6.60299 14.6492 6.6657C14.6696 6.7284 14.6721 6.79556 14.6563 6.85958C14.6405 6.9236 14.6071 6.98193 14.5599 7.02796L12.0692 9.45329C11.905 9.61336 11.7821 9.81095 11.7111 10.029C11.6402 10.2471 11.6233 10.4792 11.6619 10.7053L12.2499 14.132C12.2614 14.1972 12.2544 14.2643 12.2296 14.3257C12.2048 14.3872 12.1632 14.4404 12.1096 14.4793C12.056 14.5182 11.9926 14.5413 11.9265 14.5459C11.8604 14.5505 11.7944 14.5364 11.7359 14.5053L8.65723 12.8866C8.45438 12.7801 8.22868 12.7245 7.99956 12.7245C7.77044 12.7245 7.54475 12.7801 7.3419 12.8866L4.2639 14.5053C4.20545 14.5362 4.1395 14.5502 4.07353 14.5455C4.00757 14.5408 3.94424 14.5177 3.89076 14.4788C3.83728 14.4399 3.79579 14.3868 3.771 14.3254C3.74622 14.2641 3.73914 14.1971 3.75056 14.132L4.3379 10.706C4.3767 10.4798 4.35989 10.2476 4.28892 10.0293C4.21796 9.81109 4.09497 9.6134 3.93056 9.45329L1.4399 7.02863C1.39229 6.98265 1.35856 6.92422 1.34254 6.86001C1.32652 6.7958 1.32886 6.72837 1.34928 6.66542C1.36971 6.60247 1.40741 6.54652 1.45808 6.50395C1.50876 6.46138 1.57037 6.43389 1.6359 6.42463L5.07923 5.92129C5.30607 5.88829 5.52149 5.80067 5.70695 5.66595C5.89242 5.53124 6.04237 5.35347 6.1439 5.14796L7.68323 2.02863Z" stroke="#6E6E6E" stroke-linecap="round" stroke-linejoin="round"/>
</svg>
