<svg width="20" height="20" viewBox="0 0 20 20" fill="none" xmlns="http://www.w3.org/2000/svg">
<path d="M10.0013 9.74479C9.28255 9.74479 8.67234 9.49396 8.17068 8.99229C7.66887 8.49049 7.41797 7.88021 7.41797 7.16146C7.41797 6.44271 7.66887 5.8325 8.17068 5.33083C8.67234 4.82903 9.28255 4.57812 10.0013 4.57812C10.7201 4.57812 11.3303 4.82903 11.8319 5.33083C12.3337 5.8325 12.5846 6.44271 12.5846 7.16146C12.5846 7.88021 12.3337 8.49049 11.8319 8.99229C11.3303 9.49396 10.7201 9.74479 10.0013 9.74479ZM4.41797 15.4244V13.905C4.41797 13.6497 4.49408 13.4038 4.6463 13.1671C4.79852 12.9304 5.01144 12.7256 5.28505 12.5525C6.01144 12.1349 6.77491 11.8147 7.57547 11.5919C8.37602 11.3691 9.18318 11.2577 9.99693 11.2577C10.8107 11.2577 11.6193 11.3691 12.4228 11.5919C13.2262 11.8147 13.9912 12.1349 14.7176 12.5525C14.9912 12.7117 15.2041 12.9131 15.3563 13.1567C15.5085 13.4003 15.5846 13.6497 15.5846 13.905V15.4244H4.41797ZM5.5013 14.341H14.5013V13.905C14.5013 13.8171 14.4696 13.7344 14.4063 13.6569C14.3428 13.5794 14.2554 13.5136 14.144 13.4596C13.5371 13.0921 12.8814 12.8138 12.1769 12.6246C11.4723 12.4356 10.7471 12.341 10.0013 12.341C9.25547 12.341 8.53026 12.4356 7.82568 12.6246C7.12123 12.8138 6.46554 13.0921 5.85859 13.4596C5.74651 13.5365 5.65894 13.6102 5.59589 13.6806C5.53283 13.751 5.5013 13.8258 5.5013 13.905V14.341ZM10.0057 8.66146C10.4194 8.66146 10.7721 8.51417 11.0638 8.21958C11.3555 7.925 11.5013 7.57083 11.5013 7.15708C11.5013 6.74333 11.354 6.39062 11.0594 6.09896C10.7648 5.80729 10.4107 5.66146 9.99693 5.66146C9.58318 5.66146 9.23047 5.80882 8.9388 6.10354C8.64714 6.39812 8.5013 6.75229 8.5013 7.16604C8.5013 7.57965 8.64859 7.93229 8.94318 8.22396C9.23776 8.51562 9.59193 8.66146 10.0057 8.66146Z" fill="#344054"/>
</svg>
