<svg width="25" height="24" viewBox="0 0 25 24" fill="none" xmlns="http://www.w3.org/2000/svg">
<path d="M7.6665 16.5L14.6665 14.5L16.6665 7.5L9.6665 9.5L7.6665 16.5ZM12.1665 13.5C11.7498 13.5 11.3957 13.3542 11.104 13.0625C10.8123 12.7708 10.6665 12.4167 10.6665 12C10.6665 11.5833 10.8123 11.2292 11.104 10.9375C11.3957 10.6458 11.7498 10.5 12.1665 10.5C12.5832 10.5 12.9373 10.6458 13.229 10.9375C13.5207 11.2292 13.6665 11.5833 13.6665 12C13.6665 12.4167 13.5207 12.7708 13.229 13.0625C12.9373 13.3542 12.5832 13.5 12.1665 13.5ZM12.1665 22C10.7832 22 9.48317 21.7375 8.2665 21.2125C7.04984 20.6875 5.9915 19.975 5.0915 19.075C4.1915 18.175 3.479 17.1167 2.954 15.9C2.429 14.6833 2.1665 13.3833 2.1665 12C2.1665 10.6167 2.429 9.31667 2.954 8.1C3.479 6.88333 4.1915 5.825 5.0915 4.925C5.9915 4.025 7.04984 3.3125 8.2665 2.7875C9.48317 2.2625 10.7832 2 12.1665 2C13.5498 2 14.8498 2.2625 16.0665 2.7875C17.2832 3.3125 18.3415 4.025 19.2415 4.925C20.1415 5.825 20.854 6.88333 21.379 8.1C21.904 9.31667 22.1665 10.6167 22.1665 12C22.1665 13.3833 21.904 14.6833 21.379 15.9C20.854 17.1167 20.1415 18.175 19.2415 19.075C18.3415 19.975 17.2832 20.6875 16.0665 21.2125C14.8498 21.7375 13.5498 22 12.1665 22ZM12.1665 20C14.3832 20 16.2707 19.2208 17.829 17.6625C19.3873 16.1042 20.1665 14.2167 20.1665 12C20.1665 9.78333 19.3873 7.89583 17.829 6.3375C16.2707 4.77917 14.3832 4 12.1665 4C9.94984 4 8.06234 4.77917 6.504 6.3375C4.94567 7.89583 4.1665 9.78333 4.1665 12C4.1665 14.2167 4.94567 16.1042 6.504 17.6625C8.06234 19.2208 9.94984 20 12.1665 20Z" fill="#484C52"/>
</svg>
