<svg width="25" height="24" viewBox="0 0 25 24" fill="none" xmlns="http://www.w3.org/2000/svg">
<path d="M7.27498 10.7984L12.375 2.39844L17.475 10.7984H7.27498ZM17.775 21.5984C16.6083 21.5984 15.6166 21.1901 14.8 20.3734C13.9833 19.5568 13.575 18.5651 13.575 17.3984C13.575 16.2318 13.9833 15.2401 14.8 14.4234C15.6166 13.6068 16.6083 13.1984 17.775 13.1984C18.9416 13.1984 19.9333 13.6068 20.75 14.4234C21.5666 15.2401 21.975 16.2318 21.975 17.3984C21.975 18.5651 21.5666 19.5568 20.75 20.3734C19.9333 21.1901 18.9416 21.5984 17.775 21.5984ZM3.97498 20.9984V13.7984H11.175V20.9984H3.97498ZM17.7692 19.7984C18.4397 19.7984 19.0083 19.567 19.475 19.1042C19.9416 18.6412 20.175 18.0745 20.175 17.4042C20.175 16.7337 19.9436 16.1651 19.4807 15.6984C19.0177 15.2318 18.4511 14.9984 17.7807 14.9984C17.1102 14.9984 16.5416 15.2299 16.075 15.6927C15.6083 16.1557 15.375 16.7224 15.375 17.3927C15.375 18.0632 15.6064 18.6318 16.0692 19.0984C16.5322 19.5651 17.0989 19.7984 17.7692 19.7984ZM5.77498 19.1984H9.37498V15.5984H5.77498V19.1984ZM10.475 8.99844H14.275L12.375 5.87344L10.475 8.99844Z" fill="#484C52"/>
</svg>
