<svg width="25" height="24" viewBox="0 0 25 24" fill="none" xmlns="http://www.w3.org/2000/svg">
<path d="M6.80002 16.8734C7.70002 16.2401 8.66252 15.7693 9.68752 15.4609C10.7125 15.1526 11.775 14.9984 12.875 14.9984C13.975 14.9984 15.0375 15.1526 16.0625 15.4609C17.0875 15.7693 18.05 16.2401 18.95 16.8734C19.5334 16.1901 19.9667 15.4318 20.25 14.5984C20.5334 13.7651 20.675 12.8984 20.675 11.9984C20.675 9.83727 19.9148 7.99694 18.3943 6.47744C16.8738 4.9581 15.0321 4.19844 12.8693 4.19844C10.7064 4.19844 8.86669 4.9581 7.35002 6.47744C5.83336 7.99694 5.07502 9.83727 5.07502 11.9984C5.07502 12.8984 5.21669 13.7651 5.50002 14.5984C5.78336 15.4318 6.21669 16.1901 6.80002 16.8734ZM12.875 13.7984C11.875 13.7984 11.025 13.4484 10.325 12.7484C9.62502 12.0484 9.27502 11.1984 9.27502 10.1984C9.27502 9.19844 9.62502 8.34844 10.325 7.64844C11.025 6.94844 11.875 6.59844 12.875 6.59844C13.875 6.59844 14.725 6.94844 15.425 7.64844C16.125 8.34844 16.475 9.19844 16.475 10.1984C16.475 11.1984 16.125 12.0484 15.425 12.7484C14.725 13.4484 13.875 13.7984 12.875 13.7984ZM12.882 21.5984C11.5607 21.5984 10.3167 21.3484 9.15002 20.8484C7.98336 20.3484 6.96252 19.6609 6.08752 18.7859C5.21252 17.9109 4.52502 16.8904 4.02502 15.7244C3.52502 14.5584 3.27502 13.3126 3.27502 11.9869C3.27502 10.6613 3.52502 9.41927 4.02502 8.26094C4.52502 7.1026 5.21252 6.08594 6.08752 5.21094C6.96252 4.33594 7.98302 3.64844 9.14902 3.14844C10.315 2.64844 11.5609 2.39844 12.8865 2.39844C14.2122 2.39844 15.4542 2.64844 16.6125 3.14844C17.7709 3.64844 18.7875 4.33594 19.6625 5.21094C20.5375 6.08594 21.225 7.10444 21.725 8.26644C22.225 9.4286 22.475 10.6703 22.475 11.9914C22.475 13.3128 22.225 14.5568 21.725 15.7234C21.225 16.8901 20.5375 17.9109 19.6625 18.7859C18.7875 19.6609 17.769 20.3484 16.607 20.8484C15.4449 21.3484 14.2032 21.5984 12.882 21.5984ZM12.875 19.7984C13.7417 19.7984 14.575 19.6609 15.375 19.3859C16.175 19.1109 16.925 18.7068 17.625 18.1734C16.9084 17.7234 16.15 17.3818 15.35 17.1484C14.55 16.9151 13.725 16.7984 12.875 16.7984C12.025 16.7984 11.1959 16.9109 10.3875 17.1359C9.57919 17.3609 8.82502 17.7068 8.12502 18.1734C8.82502 18.7068 9.57502 19.1109 10.375 19.3859C11.175 19.6609 12.0084 19.7984 12.875 19.7984ZM12.875 11.9984C13.375 11.9984 13.8 11.8234 14.15 11.4734C14.5 11.1234 14.675 10.6984 14.675 10.1984C14.675 9.69844 14.5 9.27344 14.15 8.92344C13.8 8.57344 13.375 8.39844 12.875 8.39844C12.375 8.39844 11.95 8.57344 11.6 8.92344C11.25 9.27344 11.075 9.69844 11.075 10.1984C11.075 10.6984 11.25 11.1234 11.6 11.4734C11.95 11.8234 12.375 11.9984 12.875 11.9984Z" fill="#484C52"/>
</svg>
