<svg width="25" height="24" viewBox="0 0 25 24" fill="none" xmlns="http://www.w3.org/2000/svg">
<path d="M19.75 20.4016L13.775 14.4266C13.275 14.7932 12.7267 15.0807 12.1302 15.2891C11.5337 15.4974 10.8989 15.6016 10.2257 15.6016C8.55856 15.6016 7.14164 15.0182 5.97498 13.8516C4.80831 12.6849 4.22498 11.2682 4.22498 9.60156C4.22498 7.9349 4.80831 6.51823 5.97498 5.35156C7.14164 4.1849 8.55831 3.60156 10.225 3.60156C11.8916 3.60156 13.3083 4.1849 14.475 5.35156C15.6416 6.51823 16.225 7.93515 16.225 9.60231C16.225 10.2755 16.1208 10.9103 15.9125 11.5068C15.7041 12.1033 15.4166 12.6516 15.05 13.1516L21.025 19.1266L19.75 20.4016ZM10.225 13.8016C11.3916 13.8016 12.3833 13.3932 13.2 12.5766C14.0166 11.7599 14.425 10.7682 14.425 9.60156C14.425 8.4349 14.0166 7.44323 13.2 6.62656C12.3833 5.8099 11.3916 5.40156 10.225 5.40156C9.05831 5.40156 8.06664 5.8099 7.24998 6.62656C6.43331 7.44323 6.02498 8.4349 6.02498 9.60156C6.02498 10.7682 6.43331 11.7599 7.24998 12.5766C8.06664 13.3932 9.05831 13.8016 10.225 13.8016Z" fill="#484C52"/>
</svg>
