<svg width="21" height="20" viewBox="0 0 21 20" fill="none" xmlns="http://www.w3.org/2000/svg">
<mask id="mask0_4349_86390" style="mask-type:alpha" maskUnits="userSpaceOnUse" x="0" y="0" width="21" height="20">
<rect x="0.5" width="20" height="20" fill="#D9D9D9"/>
</mask>
<g mask="url(#mask0_4349_86390)">
<path d="M5.0125 14.5C3.75417 14.5 2.6875 14.0641 1.8125 13.1923C0.9375 12.3205 0.5 11.258 0.5 10.0048C0.5 8.7516 0.9375 7.6875 1.8125 6.8125C2.68764 5.9375 3.75417 5.5 5.01208 5.5C5.51792 5.5 6.00347 5.58681 6.46875 5.76042C6.93403 5.93403 7.35417 6.1875 7.72917 6.52083L9.375 8L8.25 9L6.75 7.64583C6.51389 7.4375 6.25076 7.27778 5.96062 7.16667C5.67049 7.05556 5.36583 7 5.04667 7C4.20514 7 3.48701 7.29229 2.89229 7.87688C2.29743 8.46146 2 9.16979 2 10.0019C2 10.834 2.29743 11.5451 2.89229 12.1354C3.48701 12.7257 4.20514 13.0208 5.04667 13.0208C5.36583 13.0208 5.67049 12.9653 5.96062 12.8542C6.25076 12.7431 6.51389 12.5833 6.75 12.375L13.2708 6.52083C13.6458 6.20139 14.0658 5.95139 14.5308 5.77083C14.9957 5.59028 15.4811 5.5 15.9871 5.5C17.2453 5.5 18.3119 5.93715 19.1871 6.81146C20.0624 7.68576 20.5 8.74861 20.5 10C20.5 11.2639 20.0596 12.3299 19.1788 13.1979C18.2979 14.066 17.2244 14.5 15.9583 14.5C15.4542 14.5 14.9705 14.4132 14.5073 14.2396C14.0441 14.066 13.625 13.8125 13.25 13.4792L11.5833 11.9792L12.75 11L14.25 12.3542C14.4861 12.5625 14.7492 12.7222 15.0394 12.8333C15.3295 12.9444 15.6342 13 15.9533 13C16.7949 13 17.513 12.7077 18.1077 12.1231C18.7026 11.5385 19 10.8302 19 9.99813C19 9.16604 18.7026 8.45486 18.1077 7.86458C17.513 7.27431 16.7949 6.97917 15.9533 6.97917C15.6342 6.97917 15.3295 7.03472 15.0394 7.14583C14.7492 7.25694 14.4861 7.41667 14.25 7.625L7.73417 13.4775C7.35583 13.8119 6.93417 14.066 6.46917 14.2396C6.00417 14.4132 5.51861 14.5 5.0125 14.5Z" fill="#2A5EB2"/>
</g>
</svg>
