<svg width="20" height="20" viewBox="0 0 20 20" fill="none" xmlns="http://www.w3.org/2000/svg">
<mask id="mask0_3040_48653" style="mask-type:alpha" maskUnits="userSpaceOnUse" x="0" y="0" width="20" height="20">
<rect width="20" height="20" fill="#D9D9D9"/>
</mask>
<g mask="url(#mask0_3040_48653)">
<path d="M10 18.5C9.04167 17.6111 7.96375 16.8889 6.76625 16.3333C5.56875 15.7778 4.31333 15.5 3 15.5V7.5C4.31944 7.5 5.56597 7.77083 6.73958 8.3125C7.91319 8.85417 9 9.58333 10 10.5C11 9.58333 12.0868 8.85417 13.2604 8.3125C14.434 7.77083 15.6806 7.5 17 7.5V15.5C15.6737 15.5 14.4151 15.7778 13.2242 16.3333C12.0331 16.8889 10.9583 17.6111 10 18.5ZM10 16.5208C10.8194 15.9097 11.6875 15.3889 12.6042 14.9583C13.5208 14.5278 14.4861 14.2431 15.5 14.1042V9.16667C14.4167 9.36111 13.4271 9.77431 12.5312 10.4062C11.6354 11.0382 10.7917 11.75 10 12.5417C9.20833 11.75 8.36458 11.0382 7.46875 10.4062C6.57292 9.77431 5.58333 9.36111 4.5 9.16667V14.1042C5.51389 14.2292 6.47917 14.5104 7.39583 14.9479C8.3125 15.3854 9.18056 15.9097 10 16.5208ZM10 8.5C9.02778 8.5 8.20139 8.15972 7.52083 7.47917C6.84028 6.79861 6.5 5.97222 6.5 5C6.5 4.02778 6.84028 3.20139 7.52083 2.52083C8.20139 1.84028 9.02778 1.5 10 1.5C10.9722 1.5 11.7986 1.84028 12.4792 2.52083C13.1597 3.20139 13.5 4.02778 13.5 5C13.5 5.97222 13.1597 6.79861 12.4792 7.47917C11.7986 8.15972 10.9722 8.5 10 8.5ZM10 7C10.55 7 11.0208 6.80417 11.4125 6.4125C11.8042 6.02083 12 5.55 12 5C12 4.45 11.8042 3.97917 11.4125 3.5875C11.0208 3.19583 10.55 3 10 3C9.45 3 8.97917 3.19583 8.5875 3.5875C8.19583 3.97917 8 4.45 8 5C8 5.55 8.19583 6.02083 8.5875 6.4125C8.97917 6.80417 9.45 7 10 7Z" fill="#747474"/>
</g>
</svg>
