<svg width="21" height="20" viewBox="0 0 21 20" fill="none" xmlns="http://www.w3.org/2000/svg">
<mask id="mask0_4349_86395" style="mask-type:alpha" maskUnits="userSpaceOnUse" x="0" y="0" width="21" height="20">
<rect x="0.5" width="20" height="20" fill="#D9D9D9"/>
</mask>
<g mask="url(#mask0_4349_86395)">
<path d="M7.77083 17C6.59028 17 5.58333 16.5833 4.75 15.75C3.91667 14.9167 3.5 13.9097 3.5 12.7292C3.5 12.2431 3.57986 11.7708 3.73958 11.3125C3.89931 10.8542 4.125 10.4375 4.41667 10.0625L7.125 6.625L5.625 3H15.375L13.8542 6.625L16.5833 10.0625C16.875 10.4375 17.1007 10.8542 17.2604 11.3125C17.4201 11.7708 17.5 12.2431 17.5 12.7292C17.5 13.9097 17.0833 14.9167 16.25 15.75C15.4167 16.5833 14.4097 17 13.2292 17H7.77083ZM10.5 13.25C10.0139 13.25 9.60069 13.0799 9.26042 12.7396C8.92014 12.3993 8.75 11.9861 8.75 11.5C8.75 11.0139 8.92014 10.6007 9.26042 10.2604C9.60069 9.92014 10.0139 9.75 10.5 9.75C10.9861 9.75 11.3993 9.92014 11.7396 10.2604C12.0799 10.6007 12.25 11.0139 12.25 11.5C12.25 11.9861 12.0799 12.3993 11.7396 12.7396C11.3993 13.0799 10.9861 13.25 10.5 13.25ZM8.5 6H12.5L13.125 4.5H7.875L8.5 6ZM7.77083 15.5H13.2292C13.9931 15.5 14.6458 15.2292 15.1875 14.6875C15.7292 14.1458 16 13.4931 16 12.7292C16 12.4097 15.9479 12.1042 15.8438 11.8125C15.7396 11.5208 15.5903 11.25 15.3958 11L12.6458 7.5H8.35417L5.60417 11C5.40972 11.25 5.26042 11.5208 5.15625 11.8125C5.05208 12.1042 5 12.4097 5 12.7292C5 13.4931 5.27083 14.1458 5.8125 14.6875C6.35417 15.2292 7.00694 15.5 7.77083 15.5Z" fill="#747474"/>
</g>
</svg>
