<svg width="20" height="20" viewBox="0 0 20 20" fill="none" xmlns="http://www.w3.org/2000/svg">
<mask id="mask0_3040_48648" style="mask-type:alpha" maskUnits="userSpaceOnUse" x="0" y="0" width="20" height="20">
<rect width="20" height="20" fill="#D9D9D9"/>
</mask>
<g mask="url(#mask0_3040_48648)">
<path d="M7.27083 17C6.09028 17 5.08333 16.5833 4.25 15.75C3.41667 14.9167 3 13.9097 3 12.7292C3 12.2431 3.07986 11.7708 3.23958 11.3125C3.39931 10.8542 3.625 10.4375 3.91667 10.0625L6.625 6.625L5.125 3H14.875L13.3542 6.625L16.0833 10.0625C16.375 10.4375 16.6007 10.8542 16.7604 11.3125C16.9201 11.7708 17 12.2431 17 12.7292C17 13.9097 16.5833 14.9167 15.75 15.75C14.9167 16.5833 13.9097 17 12.7292 17H7.27083ZM10 13.25C9.51389 13.25 9.10069 13.0799 8.76042 12.7396C8.42014 12.3993 8.25 11.9861 8.25 11.5C8.25 11.0139 8.42014 10.6007 8.76042 10.2604C9.10069 9.92014 9.51389 9.75 10 9.75C10.4861 9.75 10.8993 9.92014 11.2396 10.2604C11.5799 10.6007 11.75 11.0139 11.75 11.5C11.75 11.9861 11.5799 12.3993 11.2396 12.7396C10.8993 13.0799 10.4861 13.25 10 13.25ZM8 6H12L12.625 4.5H7.375L8 6ZM7.27083 15.5H12.7292C13.4931 15.5 14.1458 15.2292 14.6875 14.6875C15.2292 14.1458 15.5 13.4931 15.5 12.7292C15.5 12.4097 15.4479 12.1042 15.3438 11.8125C15.2396 11.5208 15.0903 11.25 14.8958 11L12.1458 7.5H7.85417L5.10417 11C4.90972 11.25 4.76042 11.5208 4.65625 11.8125C4.55208 12.1042 4.5 12.4097 4.5 12.7292C4.5 13.4931 4.77083 14.1458 5.3125 14.6875C5.85417 15.2292 6.50694 15.5 7.27083 15.5Z" fill="#2A5EB2"/>
</g>
</svg>
