<svg width="181" height="180" viewBox="0 0 181 180" fill="none" xmlns="http://www.w3.org/2000/svg">
<circle cx="90.9375" cy="90" r="65.2188" fill="#0030E3"/>
<path d="M60.867 103.39C58.2168 103.39 55.8205 102.959 53.6783 102.098C51.5581 101.215 49.7471 99.9888 48.2454 98.4207C46.7657 96.8527 45.6283 95.0086 44.8332 92.8884C44.0382 90.7683 43.6406 88.4825 43.6406 86.031V84.7059C43.6406 81.9011 44.0492 79.3613 44.8663 77.0866C45.6835 74.8118 46.8209 72.8683 48.2785 71.2561C49.7361 69.6218 51.4587 68.374 53.4464 67.5127C55.4341 66.6514 57.5874 66.2207 59.9063 66.2207C62.4682 66.2207 64.7098 66.6514 66.6312 67.5127C68.5526 68.374 70.1427 69.5887 71.4016 71.1567C72.6825 72.7027 73.6322 74.5468 74.2505 76.689C74.891 78.8313 75.2112 81.1944 75.2112 83.7783V87.1905H47.5166V81.4594H67.3269V80.83C67.2827 79.3945 66.9956 78.0473 66.4656 76.7884C65.9576 75.5296 65.1736 74.5136 64.1135 73.7407C63.0534 72.9677 61.64 72.5812 59.8732 72.5812C58.5481 72.5812 57.3665 72.8683 56.3285 73.4425C55.3126 73.9946 54.4623 74.8008 53.7777 75.8608C53.093 76.9209 52.563 78.2019 52.1875 79.7036C51.8342 81.1833 51.6575 82.8508 51.6575 84.7059V86.031C51.6575 87.5991 51.8673 89.0567 52.2869 90.4039C52.7286 91.729 53.3691 92.8884 54.2083 93.8823C55.0476 94.8761 56.0635 95.6601 57.2561 96.2343C58.4487 96.7864 59.8069 97.0625 61.3308 97.0625C63.2522 97.0625 64.9638 96.676 66.4656 95.903C67.9673 95.1301 69.2704 94.0369 70.3746 92.6234L74.5818 96.6981C73.8088 97.8244 72.804 98.9066 71.5672 99.9446C70.3304 100.961 68.8176 101.789 67.0287 102.429C65.2619 103.07 63.208 103.39 60.867 103.39Z" fill="#F0F2FA"/>
<path d="M97.0283 115.357C97.0283 126.561 91.4932 132.163 80.4238 132.163C75.0311 132.163 70.9148 130.832 67.9346 128.031C64.9548 125.3 63.5352 121.169 63.5352 115.638V112.347H73.7539V116.758C73.7539 117.388 73.8956 118.229 74.1084 119.209C74.3212 120.189 74.6761 120.959 75.1016 121.449C75.5272 121.939 76.0951 122.36 76.9463 122.78C77.7976 123.2 78.7915 123.34 80.0684 123.34C81.3455 123.34 82.4103 123.13 83.2617 122.71C84.1131 122.29 84.6807 121.659 85.1064 120.819C85.4611 119.979 85.6745 119.069 85.8164 118.229C85.8873 117.388 85.958 116.338 85.958 115.008V96.5254L97.0283 89.4023V115.357ZM127.135 68.3721C132.811 68.3721 137.282 69.7729 140.617 72.4336C143.952 75.0944 145.655 79.0867 145.655 84.4082C145.655 89.6597 143.951 93.6507 140.688 96.3115C137.352 98.9723 133.024 100.303 127.702 100.303H116.349V118.229H105.351V68.3721H127.135ZM116.349 91.6904H126.212C131.96 91.6904 134.869 89.3094 134.869 84.5479C134.869 79.7866 131.96 77.3359 126.283 77.3359H116.349V91.6904ZM97.0283 82.3838L85.958 89.5068V81.1162H97.0283V82.3838Z" fill="#F0F2FA"/>
</svg>
