<svg width="17" height="17" viewBox="0 0 17 17" fill="none" xmlns="http://www.w3.org/2000/svg">
<mask id="mask0_4485_122909" style="mask-type:alpha" maskUnits="userSpaceOnUse" x="0" y="0" width="17" height="17">
<rect x="0.701172" y="0.321777" width="16" height="16" fill="#D9D9D9"/>
</mask>
<g mask="url(#mask0_4485_122909)">
<path d="M4.23739 14.6527C3.90062 14.6527 3.61556 14.536 3.38223 14.3027C3.14889 14.0693 3.03223 13.7843 3.03223 13.4475V4.52451C3.03223 4.18774 3.14889 3.90268 3.38223 3.66935C3.61556 3.43601 3.90062 3.31935 4.23739 3.31935H5.16039V1.90918H6.18606V3.31935H11.2374V1.90918H12.2374V3.31935H13.1604C13.4972 3.31935 13.7822 3.43601 14.0156 3.66935C14.2489 3.90268 14.3656 4.18774 14.3656 4.52451V13.4475C14.3656 13.7843 14.2489 14.0693 14.0156 14.3027C13.7822 14.536 13.4972 14.6527 13.1604 14.6527H4.23739ZM4.23739 13.6527H13.1604C13.2117 13.6527 13.2587 13.6313 13.3014 13.5885C13.3442 13.5458 13.3656 13.4988 13.3656 13.4475V7.19118H4.03223V13.4475C4.03223 13.4988 4.05362 13.5458 4.09639 13.5885C4.13906 13.6313 4.18606 13.6527 4.23739 13.6527ZM4.03223 6.19118H13.3656V4.52451C13.3656 4.47318 13.3442 4.42618 13.3014 4.38351C13.2587 4.34073 13.2117 4.31935 13.1604 4.31935H4.23739C4.18606 4.31935 4.13906 4.34073 4.09639 4.38351C4.05362 4.42618 4.03223 4.47318 4.03223 4.52451V6.19118ZM8.69889 9.70401C8.53567 9.70401 8.39656 9.64651 8.28156 9.53151C8.16667 9.41662 8.10923 9.27751 8.10923 9.11418C8.10923 8.95096 8.16667 8.81185 8.28156 8.69685C8.39656 8.58196 8.53567 8.52451 8.69889 8.52451C8.86212 8.52451 9.00123 8.58196 9.11623 8.69685C9.23112 8.81185 9.28856 8.95096 9.28856 9.11418C9.28856 9.27751 9.23112 9.41662 9.11623 9.53151C9.00123 9.64651 8.86212 9.70401 8.69889 9.70401ZM6.03223 9.70401C5.869 9.70401 5.72989 9.64651 5.61489 9.53151C5.5 9.41662 5.44256 9.27751 5.44256 9.11418C5.44256 8.95096 5.5 8.81185 5.61489 8.69685C5.72989 8.58196 5.869 8.52451 6.03223 8.52451C6.19545 8.52451 6.33456 8.58196 6.44956 8.69685C6.56445 8.81185 6.62189 8.95096 6.62189 9.11418C6.62189 9.27751 6.56445 9.41662 6.44956 9.53151C6.33456 9.64651 6.19545 9.70401 6.03223 9.70401ZM11.3656 9.70401C11.2023 9.70401 11.0632 9.64651 10.9482 9.53151C10.8333 9.41662 10.7759 9.27751 10.7759 9.11418C10.7759 8.95096 10.8333 8.81185 10.9482 8.69685C11.0632 8.58196 11.2023 8.52451 11.3656 8.52451C11.5288 8.52451 11.6679 8.58196 11.7829 8.69685C11.8978 8.81185 11.9552 8.95096 11.9552 9.11418C11.9552 9.27751 11.8978 9.41662 11.7829 9.53151C11.6679 9.64651 11.5288 9.70401 11.3656 9.70401ZM8.69889 12.3193C8.53567 12.3193 8.39656 12.2618 8.28156 12.1468C8.16667 12.032 8.10923 11.8929 8.10923 11.7297C8.10923 11.5663 8.16667 11.4272 8.28156 11.3123C8.39656 11.1973 8.53567 11.1398 8.69889 11.1398C8.86212 11.1398 9.00123 11.1973 9.11623 11.3123C9.23112 11.4272 9.28856 11.5663 9.28856 11.7297C9.28856 11.8929 9.23112 12.032 9.11623 12.1468C9.00123 12.2618 8.86212 12.3193 8.69889 12.3193ZM6.03223 12.3193C5.869 12.3193 5.72989 12.2618 5.61489 12.1468C5.5 12.032 5.44256 11.8929 5.44256 11.7297C5.44256 11.5663 5.5 11.4272 5.61489 11.3123C5.72989 11.1973 5.869 11.1398 6.03223 11.1398C6.19545 11.1398 6.33456 11.1973 6.44956 11.3123C6.56445 11.4272 6.62189 11.5663 6.62189 11.7297C6.62189 11.8929 6.56445 12.032 6.44956 12.1468C6.33456 12.2618 6.19545 12.3193 6.03223 12.3193ZM11.3656 12.3193C11.2023 12.3193 11.0632 12.2618 10.9482 12.1468C10.8333 12.032 10.7759 11.8929 10.7759 11.7297C10.7759 11.5663 10.8333 11.4272 10.9482 11.3123C11.0632 11.1973 11.2023 11.1398 11.3656 11.1398C11.5288 11.1398 11.6679 11.1973 11.7829 11.3123C11.8978 11.4272 11.9552 11.5663 11.9552 11.7297C11.9552 11.8929 11.8978 12.032 11.7829 12.1468C11.6679 12.2618 11.5288 12.3193 11.3656 12.3193Z" fill="#B1B1B1"/>
</g>
</svg>
