<svg width="18" height="18" viewBox="0 0 18 18" fill="none" xmlns="http://www.w3.org/2000/svg">
<mask id="mask0_4485_121414" style="mask-type:alpha" maskUnits="userSpaceOnUse" x="0" y="0" width="18" height="18">
<rect width="18" height="18" fill="#D9D9D9"/>
</mask>
<g mask="url(#mask0_4485_121414)">
<path d="M3.97886 16.1226C3.59998 16.1226 3.2793 15.9913 3.0168 15.7288C2.7543 15.4663 2.62305 15.1456 2.62305 14.7668V4.72838C2.62305 4.34951 2.7543 4.02882 3.0168 3.76632C3.2793 3.50382 3.59998 3.37257 3.97886 3.37257H5.01723V1.78613H6.17111V3.37257H11.8539V1.78613H12.9789V3.37257H14.0172C14.3961 3.37257 14.7168 3.50382 14.9793 3.76632C15.2418 4.02882 15.373 4.34951 15.373 4.72838V14.7668C15.373 15.1456 15.2418 15.4663 14.9793 15.7288C14.7168 15.9913 14.3961 16.1226 14.0172 16.1226H3.97886ZM3.97886 14.9976H14.0172C14.075 14.9976 14.1279 14.9735 14.1759 14.9254C14.224 14.8774 14.248 14.8245 14.248 14.7668V7.72838H3.74805V14.7668C3.74805 14.8245 3.77211 14.8774 3.82023 14.9254C3.86823 14.9735 3.92111 14.9976 3.97886 14.9976ZM3.74805 6.60338H14.248V4.72838C14.248 4.67063 14.224 4.61776 14.1759 4.56976C14.1279 4.52163 14.075 4.49757 14.0172 4.49757H3.97886C3.92111 4.49757 3.86823 4.52163 3.82023 4.56976C3.77211 4.61776 3.74805 4.67063 3.74805 4.72838V6.60338Z" fill="#1C1B1F"/>
</g>
</svg>
