<svg width="18" height="18" viewBox="0 0 18 18" fill="none" xmlns="http://www.w3.org/2000/svg">
<mask id="mask0_4485_121420" style="mask-type:alpha" maskUnits="userSpaceOnUse" x="0" y="0" width="18" height="18">
<rect width="18" height="18" fill="#D9D9D9"/>
</mask>
<g mask="url(#mask0_4485_121420)">
<path d="M1.34863 14.4807V12.8132C1.34863 12.4267 1.44838 12.0818 1.64788 11.7784C1.84738 11.475 2.11382 11.239 2.4472 11.0704C3.15995 10.7218 3.87663 10.453 4.59726 10.264C5.31801 10.0751 6.11007 9.98067 6.97345 9.98067C7.83695 9.98067 8.62901 10.0751 9.34963 10.264C10.0704 10.453 10.7871 10.7218 11.4999 11.0704C11.8333 11.239 12.0997 11.475 12.2992 11.7784C12.4987 12.0818 12.5984 12.4267 12.5984 12.8132V14.4807H1.34863ZM14.0984 14.4807V12.721C14.0984 12.2287 13.9779 11.7595 13.7369 11.3134C13.4958 10.8674 13.1538 10.4847 12.7109 10.1654C13.2138 10.2404 13.6913 10.3564 14.1433 10.5135C14.5951 10.6708 15.0264 10.8566 15.437 11.071C15.8245 11.2777 16.1238 11.5214 16.3348 11.802C16.5458 12.0825 16.6513 12.3889 16.6513 12.721V14.4807H14.0984ZM6.97345 8.76904C6.25157 8.76904 5.63363 8.51204 5.11963 7.99804C4.60563 7.48392 4.34863 6.86592 4.34863 6.14404C4.34863 5.42217 4.60563 4.80423 5.11963 4.29023C5.63363 3.77611 6.25157 3.51904 6.97345 3.51904C7.69532 3.51904 8.31332 3.77611 8.82745 4.29023C9.34145 4.80423 9.59845 5.42217 9.59845 6.14404C9.59845 6.86592 9.34145 7.48392 8.82745 7.99804C8.31332 8.51204 7.69532 8.76904 6.97345 8.76904ZM13.4493 6.14404C13.4493 6.86592 13.1923 7.48392 12.6783 7.99804C12.1643 8.51204 11.5464 8.76904 10.8245 8.76904C10.7399 8.76904 10.6322 8.75942 10.5014 8.74017C10.3706 8.72092 10.2629 8.69979 10.1784 8.67679C10.4741 8.32117 10.7014 7.92667 10.8603 7.49329C11.0191 7.05992 11.0984 6.60992 11.0984 6.14329C11.0984 5.67654 11.0174 5.22823 10.8554 4.79836C10.6934 4.36861 10.4678 3.97298 10.1784 3.61148C10.286 3.57298 10.3937 3.54798 10.5014 3.53648C10.6091 3.52486 10.7168 3.51904 10.8245 3.51904C11.5464 3.51904 12.1643 3.77611 12.6783 4.29023C13.1923 4.80423 13.4493 5.42217 13.4493 6.14404ZM2.47345 13.3557H11.4734V12.8132C11.4734 12.6566 11.4343 12.5172 11.3559 12.3951C11.2776 12.273 11.1534 12.1662 10.9831 12.0749C10.3659 11.7566 9.73032 11.5155 9.07645 11.3515C8.42257 11.1876 7.72157 11.1057 6.97345 11.1057C6.22545 11.1057 5.52451 11.1876 4.87063 11.3515C4.21676 11.5155 3.5812 11.7566 2.96395 12.0749C2.7937 12.1662 2.66938 12.273 2.59101 12.3951C2.51263 12.5172 2.47345 12.6566 2.47345 12.8132V13.3557ZM6.97345 7.64404C7.38595 7.64404 7.73907 7.49717 8.03282 7.20342C8.32657 6.90967 8.47345 6.55654 8.47345 6.14404C8.47345 5.73154 8.32657 5.37842 8.03282 5.08467C7.73907 4.79092 7.38595 4.64404 6.97345 4.64404C6.56095 4.64404 6.20782 4.79092 5.91407 5.08467C5.62032 5.37842 5.47345 5.73154 5.47345 6.14404C5.47345 6.55654 5.62032 6.90967 5.91407 7.20342C6.20782 7.49717 6.56095 7.64404 6.97345 7.64404Z" fill="#1C1B1F"/>
</g>
</svg>
