<svg width="17" height="17" viewBox="0 0 17 17" fill="none" xmlns="http://www.w3.org/2000/svg">
<mask id="mask0_4485_122914" style="mask-type:alpha" maskUnits="userSpaceOnUse" x="0" y="0" width="17" height="17">
<rect x="0.701172" y="0.158203" width="16" height="16" fill="#D9D9D9"/>
</mask>
<g mask="url(#mask0_4485_122914)">
<path d="M8.70211 8.06821C9.03378 8.06821 9.31733 7.9501 9.55278 7.71387C9.78833 7.47765 9.90611 7.19371 9.90611 6.86204C9.90611 6.53037 9.788 6.24676 9.55178 6.01121C9.31556 5.77576 9.03156 5.65804 8.69978 5.65804C8.36811 5.65804 8.08456 5.77615 7.84911 6.01237C7.61356 6.2486 7.49578 6.5326 7.49578 6.86437C7.49578 7.19604 7.61389 7.4796 7.85011 7.71504C8.08633 7.95049 8.37033 8.06821 8.70211 8.06821ZM8.70095 13.167C10.0052 11.9995 11.0032 10.8796 11.6951 9.80737C12.387 8.73515 12.7329 7.79604 12.7329 6.99004C12.7329 5.77471 12.3468 4.7756 11.5746 3.99271C10.8024 3.20982 9.8445 2.81837 8.70095 2.81837C7.55739 2.81837 6.5995 3.20982 5.82728 3.99271C5.05506 4.7756 4.66895 5.77471 4.66895 6.99004C4.66895 7.79604 5.01489 8.73515 5.70678 9.80737C6.39867 10.8796 7.39672 11.9995 8.70095 13.167ZM8.70095 14.4977C7.02317 13.0439 5.76506 11.691 4.92661 10.4389C4.08817 9.18665 3.66895 8.03704 3.66895 6.99004C3.66895 5.4516 4.16656 4.2061 5.16178 3.25354C6.15711 2.30098 7.33683 1.82471 8.70095 1.82471C10.0651 1.82471 11.2448 2.30098 12.2401 3.25354C13.2353 4.2061 13.7329 5.4516 13.7329 6.99004C13.7329 8.03704 13.3137 9.18665 12.4753 10.4389C11.6368 11.691 10.3787 13.0439 8.70095 14.4977Z" fill="#B1B1B1"/>
</g>
</svg>
