<svg width="98" height="55" viewBox="0 0 98 55" fill="none" xmlns="http://www.w3.org/2000/svg">
<g id="Group 1344">
<path id="Vector 33" d="M96.9998 54.0526V22.2623C95.6477 23.7496 91.0506 23.6008 83.4787 11.1078C74.0139 -4.50847 65.9013 -0.0466789 58.4646 11.1078C51.028 22.2623 46.2956 26.7241 41.9013 26.7241C37.5069 26.7241 28.3801 13.3387 20.9435 8.87691C12.5604 5.30747 4.38014 19.2878 1.33789 26.7241V54.0526H96.9998Z" fill="url(#paint0_linear_380_25114)" fill-opacity="0.12"/>
<path id="Shape" d="M1 26.6966C1.83737 26.0522 8.93702 9.76606 16.8224 8.60727C29.2543 6.78034 32.9458 27.9356 43.6559 26.6966C52.0742 25.7227 60.8666 2.06681 70.328 1.09788C79.6837 0.139762 87.6183 23.171 97 22.3221" stroke="#4E97FD" stroke-width="2"/>
</g>
<defs>
<linearGradient id="paint0_linear_380_25114" x1="49.2482" y1="18.6842" x2="49.2504" y2="54.0526" gradientUnits="userSpaceOnUse">
<stop stop-color="#0099FF"/>
<stop offset="1" stop-color="#0099FF" stop-opacity="0"/>
</linearGradient>
</defs>
</svg>
