<svg width="80" height="80" viewBox="0 0 80 80" fill="none" xmlns="http://www.w3.org/2000/svg">
<g id="Group 2473">
<path id="Ellipse 122" d="M3.00481 24.7896C0.503445 30.8735 -0.458889 37.4804 0.203029 44.0251C0.864955 50.5697 3.13072 56.8501 6.79961 62.3099C10.4685 67.7698 15.4273 72.2405 21.2367 75.3262C27.0461 78.4118 33.5269 80.0171 40.1049 79.9999C46.6829 79.9826 53.1551 78.3434 58.9483 75.2273C64.7415 72.1112 69.6767 67.6145 73.3169 62.1355C76.9572 56.6565 79.1899 50.3643 79.8175 43.8163C80.4451 37.2683 79.4482 30.6665 76.9149 24.5958L71.3777 26.9064C73.5309 32.0665 74.3784 37.678 73.8449 43.2438C73.3115 48.8097 71.4136 54.158 68.3194 58.8152C65.2252 63.4723 61.0302 67.2945 56.1061 69.9432C51.1819 72.5918 45.6805 73.9852 40.0892 73.9999C34.4978 74.0145 28.9892 72.65 24.0512 70.0272C19.1132 67.4044 14.8982 63.6043 11.7797 58.9634C8.6611 54.3226 6.73522 48.9842 6.17258 43.4213C5.60994 37.8583 6.42793 32.2425 8.55409 27.0712L3.00481 24.7896Z" fill="#EBEFF4"/>
<path id="Ellipse 121" d="M76.9952 55.2104C79.4966 49.1265 80.4589 42.5196 79.797 35.9749C79.135 29.4303 76.8693 23.1499 73.2004 17.6901C69.5315 12.2302 64.5727 7.75947 58.7633 4.67383C52.9539 1.58818 46.4731 -0.0171118 39.8951 0.000137525C33.3171 0.0173868 26.8449 1.65665 21.0517 4.77272C15.2585 7.88878 10.3233 12.3855 6.68306 17.8645C3.04285 23.3435 0.81006 29.6357 0.182467 36.1837C-0.445126 42.7317 0.55185 49.3335 3.08508 55.4042L8.62232 53.0936C6.46907 47.9335 5.62164 42.322 6.1551 36.7562C6.68855 31.1903 8.58642 25.842 11.6806 21.1848C14.7748 16.5277 18.9698 12.7055 23.8939 10.0568C28.8181 7.40815 34.3195 6.01478 39.9108 6.00012C45.5022 5.98546 51.0108 7.34996 55.9488 9.97275C60.8868 12.5955 65.1018 16.3957 68.2203 21.0365C71.3389 25.6774 73.2648 31.0157 73.8274 36.5787C74.3901 42.1417 73.5721 47.7575 71.4459 52.9288L76.9952 55.2104Z" fill="#4E97FD"/>
</g>
</svg>
