<svg width="142" height="42" viewBox="0 0 142 42" fill="none" xmlns="http://www.w3.org/2000/svg">
<path d="M10.6592 35.75C10.6592 39.363 8.89757 41.1698 5.375 41.1699C3.65896 41.1699 2.34882 40.741 1.40039 39.8379C0.452005 38.9572 6.934e-05 37.6246 0 35.8408V34.7793H3.25195V36.2021C3.25202 36.4053 3.29753 36.6763 3.36523 36.9922C3.43298 37.3082 3.54522 37.5568 3.68066 37.7148C3.81608 37.8728 3.99686 38.0081 4.26758 38.1436C4.53857 38.279 4.85524 38.3242 5.26172 38.3242C5.66819 38.3242 6.00734 38.2566 6.27832 38.1211C6.54906 37.9856 6.72981 37.7825 6.86523 37.5117C6.97815 37.2407 7.04566 36.9468 7.09082 36.6758C7.1134 36.4048 7.13574 36.0657 7.13574 35.6367V24.707H10.6592V35.75ZM20.791 24.3232C23.1394 24.3233 25.0362 25.1138 26.4814 26.6719C27.9267 28.2301 28.6719 30.2629 28.6719 32.7695C28.6718 35.2985 27.9266 37.3307 26.4814 38.8662C25.0363 40.4017 23.1169 41.1698 20.7686 41.1699C18.3748 41.1699 16.455 40.4018 15.0098 38.8662C13.542 37.3307 12.8194 35.2986 12.8193 32.7695C12.8193 30.2403 13.542 28.185 14.9873 26.6494C16.4326 25.1139 18.3748 24.3232 20.791 24.3232ZM34.5283 34.3271C34.5283 35.6369 34.7767 36.6079 35.2734 37.2402C35.7702 37.8725 36.6736 38.1895 37.9834 38.1895C39.2479 38.1894 40.106 37.8725 40.5576 37.2402C41.0092 36.6079 41.2578 35.6368 41.2578 34.3271V24.707H44.7803V34.373C44.7802 36.6762 44.2158 38.3927 43.1094 39.4766C42.0028 40.5604 40.2859 41.1025 37.9375 41.1025C35.544 41.1025 33.8058 40.5596 32.6768 39.4531C31.5476 38.3466 31.0049 36.6305 31.0049 34.3271V24.707H34.5283V34.3271ZM55.9639 24.7295C57.5444 24.7296 58.854 25.0916 59.8701 25.8594C60.8637 26.6046 61.3828 27.7565 61.3828 29.292C61.3827 30.2176 61.1576 31.0306 60.7061 31.7305C60.2544 32.4305 59.6214 32.927 58.8311 33.2432C60.2086 33.5142 60.9989 34.7791 61.2021 36.9922C61.2021 37.06 61.2029 37.2861 61.248 37.6924C61.2706 38.0762 61.2927 38.3924 61.3379 38.6182C61.3532 38.7708 61.3793 38.9546 61.4082 39.1621C61.4221 39.2615 61.4366 39.3669 61.4512 39.4766C61.4963 39.7925 61.564 40.0858 61.6543 40.3115C61.7446 40.5373 61.8352 40.6957 61.9707 40.8086H58.3115C58.1761 40.5602 58.0862 40.244 58.041 39.8828C57.9733 39.5215 57.928 39.0471 57.8828 38.46C57.8377 37.8738 57.8155 37.5577 57.8154 37.4893C57.6799 36.3602 57.4086 35.5923 56.957 35.1406C56.5054 34.7116 55.7375 34.4854 54.6084 34.4854H51.4697V40.7861H47.9697V24.707L55.9639 24.7295ZM74.3379 35.4795V24.707H77.7256V40.7861H74.2031L67.541 29.9912V40.7861H64.1309V24.707H67.7217L74.3379 35.4795ZM92.9287 27.5977H84.3691V31.0977H92.21L90.3896 33.876H84.3691V37.8281H87.7988L85.8604 40.7861H80.8691V24.707H92.9287V27.5977ZM103.235 34.5986V40.7861H99.7578V34.5303L96.1484 28.6279L98.583 26.1016L101.52 31.1436L105.313 24.707H109.22L103.235 34.5986ZM20.7451 27.2139C19.4131 27.214 18.3518 27.7332 17.5615 28.7266C16.7712 29.7201 16.3643 31.0527 16.3643 32.7236C16.3643 34.4399 16.7713 35.7954 17.5391 36.7891C18.3294 37.76 19.4136 38.2567 20.791 38.2793C22.1232 38.2792 23.1844 37.7825 23.9521 36.7891C24.7199 35.7954 25.1035 34.4399 25.1035 32.7236C25.1034 31.0302 24.6974 29.6976 23.9297 28.7041C23.1393 27.7106 22.0774 27.2139 20.7451 27.2139ZM51.4697 31.9561H54.8115C55.7826 31.9561 56.5508 31.7986 57.0928 31.4824C57.6347 31.1663 57.9277 30.5789 57.9277 29.6758C57.9277 28.8177 57.6572 28.2526 57.1152 27.959C56.5733 27.6428 55.873 27.5078 54.9697 27.5078H51.4697V31.9561ZM121.102 0.00390625C122.785 0.0449726 124.163 0.472345 125.257 1.28711C126.386 2.1452 126.973 3.40983 127.019 5.12598L123.653 5.14844C123.518 3.54542 122.502 2.75496 120.605 2.75488C119.793 2.75488 119.16 2.91334 118.708 3.22949C118.257 3.54559 118.008 3.99708 118.008 4.58398C118.008 4.76462 118.053 4.94545 118.099 5.10352C118.166 5.239 118.279 5.37428 118.438 5.50977C118.618 5.64526 118.776 5.73584 118.935 5.82617C119.115 5.91644 119.364 6.00739 119.68 6.09766C119.995 6.1879 120.289 6.27793 120.56 6.36816C120.831 6.43591 121.193 6.52662 121.667 6.66211C122.164 6.77498 122.57 6.8881 122.932 7.00098C124.512 7.4526 125.709 8.01695 126.477 8.69434C127.244 9.3718 127.628 10.3428 127.628 11.6074C127.628 12.5107 127.447 13.3235 127.063 14.001C126.702 14.6784 126.183 15.2205 125.551 15.627C124.918 16.0334 124.218 16.3272 123.45 16.5078C122.683 16.6884 121.87 16.8008 121.012 16.8008C118.844 16.8008 117.128 16.2817 115.908 15.2881C114.689 14.2945 114.057 12.872 114.034 11.0654H117.534C117.602 13.0752 118.821 14.0918 121.17 14.0918C122.096 14.0918 122.818 13.8878 123.36 13.5039C123.902 13.1201 124.15 12.601 124.15 11.9463C124.15 11.3817 123.925 10.975 123.428 10.7266C122.931 10.4556 121.915 10.1166 120.334 9.66504C120.31 9.65902 120.287 9.65305 120.267 9.64746C120.209 9.63212 120.164 9.62012 120.131 9.62012C120.086 9.59755 120.04 9.57531 119.95 9.55273C119.882 9.53015 119.815 9.50684 119.747 9.50684L118.842 9.23633H118.841C118.755 9.21024 118.681 9.18696 118.618 9.16797H118.617C118.414 9.10019 118.075 8.98794 117.624 8.83008C117.172 8.64946 116.834 8.5134 116.631 8.37793C116.485 8.29049 116.33 8.1747 116.153 8.04297H116.152L116.151 8.04199C116.055 7.96998 115.951 7.89308 115.84 7.81348C115.524 7.56521 115.321 7.31672 115.186 7.0459C115.093 6.86164 115.002 6.65597 114.917 6.42285L121.102 0.00390625ZM68.9307 0.361328C70.5112 0.361333 71.8208 0.722642 72.8369 1.49023C73.8305 2.23544 74.3506 3.3873 74.3506 4.92285C74.3506 5.84873 74.1245 6.66225 73.6729 7.3623C73.2213 8.06212 72.589 8.5589 71.7988 8.875C73.1761 9.14608 73.9666 10.4104 74.1699 12.623C74.1699 12.6908 74.1697 12.917 74.2148 13.3232C74.2374 13.707 74.2605 14.0232 74.3057 14.249C74.3209 14.4013 74.3462 14.585 74.375 14.792V14.793C74.3889 14.8924 74.4033 14.9977 74.418 15.1074C74.4631 15.4236 74.5308 15.7175 74.6211 15.9434C74.7114 16.169 74.8022 16.3266 74.9375 16.4395H71.2793C71.1439 16.1911 71.053 15.8748 71.0078 15.5137C70.9401 15.1525 70.8957 14.6785 70.8506 14.0918C70.8054 13.5047 70.7822 13.1879 70.7822 13.1201C70.6467 11.9911 70.3754 11.2231 69.9238 10.7715C69.4722 10.3427 68.7047 10.1173 67.5762 10.1172H64.4365V16.417H60.9365V0.338867L68.9307 0.361328ZM100.29 0.361328C101.871 0.361328 103.181 0.722434 104.197 1.49023C105.191 2.23544 105.71 3.3874 105.71 4.92285C105.71 5.84873 105.484 6.66225 105.032 7.3623C104.581 8.06212 103.948 8.5589 103.158 8.875C104.536 9.14605 105.326 10.4104 105.529 12.623C105.529 12.6908 105.529 12.917 105.574 13.3232C105.597 13.7069 105.62 14.0232 105.665 14.249C105.68 14.4018 105.705 14.5862 105.734 14.7939C105.748 14.8932 105.763 14.998 105.777 15.1074C105.823 15.4236 105.89 15.7175 105.98 15.9434C105.993 15.9749 106.006 16.0052 106.019 16.0342L105.999 16.0547L106.188 16.4395H102.639C102.503 16.1911 102.412 15.8748 102.367 15.5137C102.299 15.1525 102.255 14.6785 102.21 14.0918C102.165 13.5047 102.142 13.1879 102.142 13.1201C102.006 11.9912 101.736 11.2231 101.284 10.7715C100.833 10.3425 100.064 10.1172 98.9355 10.1172H95.7959V16.417H92.2959V0.338867L100.29 0.361328ZM13.0303 3.22949H4.47168V6.72949H12.3301V9.50684H4.47168V13.459H13.1885V16.417H0.970703V0.338867H13.0303V3.22949ZM25.8213 11.1104V0.338867H29.209V16.417H25.6855L19.0244 5.62305V16.417H15.6143V0.338867H19.2051L25.8213 11.1104ZM44.2988 3.3418H39.4658V16.417H35.9209V3.3418H31.0879V0.338867H44.2988V3.3418ZM58.2168 3.22949H49.6582V6.72949H57.5166V9.50684H49.6582V13.459H58.375V16.417H46.1582V0.338867H58.2168V3.22949ZM84.0537 0.338867C85.8601 0.338893 87.2824 0.790495 88.3438 1.64844C89.4051 2.50651 89.9472 3.79367 89.9473 5.50977C89.9473 7.20319 89.4057 8.49051 88.3672 9.34863C87.3058 10.2067 85.928 10.6367 84.2344 10.6367H80.6211V16.417H77.1211V0.338867H84.0537ZM141.842 3.22949H133.283V6.72949H141.142V9.50684H133.283V13.459H142V16.417H129.783V0.338867H141.842V3.22949ZM112.003 9.82324L108.458 13.5029V0.338867H112.003V9.82324ZM80.6211 7.8584H83.7598C85.5888 7.8584 86.5145 7.09099 86.5146 5.55566C86.5146 4.02007 85.5888 3.22949 83.7822 3.22949H80.6211V7.8584ZM64.4365 7.58789H67.7793C68.7501 7.58785 69.5177 7.42937 70.0596 7.11328C70.6015 6.79713 70.8955 6.20993 70.8955 5.30664C70.8955 4.44863 70.624 3.88437 70.082 3.59082C69.5401 3.27472 68.8398 3.13867 67.9365 3.13867H64.4365V7.58789ZM95.7959 7.58789H99.1387C100.109 7.58786 100.877 7.42936 101.419 7.11328C101.961 6.79713 102.255 6.20993 102.255 5.30664C102.255 4.44863 101.983 3.88437 101.441 3.59082C100.9 3.27479 100.2 3.13871 99.2969 3.13867H95.7959V7.58789Z" fill="white"/>
</svg>
